SplineFontDB: 3.0
FontName: SansGuiltExtrude
FullName: Sans Guilt Extrude
FamilyName: Sans Guilt Extrude
Weight: Medium
Copyright: Created by RCA Workshop "Read the Fucking Manual" with FontForge  2.0 (http://fontforge.sf.net) and Fonzie.\nModified by Ludi, on April the 7th, 2011 - for fun and T-Shirts.
Version: 001.000
ItalicAngle: 0
UnderlinePosition: -100
UnderlineWidth: 50
Ascent: 800
Descent: 200
LayerCount: 2
Layer: 0 0 "Back"  1
Layer: 1 0 "Fore"  0
NeedsXUIDChange: 1
XUID: [1021 992 1258595862 1718112]
FSType: 0
OS2Version: 3
OS2_WeightWidthSlopeOnly: 0
OS2_UseTypoMetrics: 1
CreationTime: 1299848038
ModificationTime: 1302354787
PfmFamily: 17
TTFWeight: 500
TTFWidth: 5
LineGap: 90
VLineGap: 0
Panose: 2 11 6 3 0 0 0 0 0 0
OS2TypoAscent: 0
OS2TypoAOffset: 1
OS2TypoDescent: 0
OS2TypoDOffset: 1
OS2TypoLinegap: 90
OS2WinAscent: 0
OS2WinAOffset: 1
OS2WinDescent: 0
OS2WinDOffset: 1
HheadAscent: 0
HheadAOffset: 1
HheadDescent: 0
HheadDOffset: 1
OS2SubXSize: 650
OS2SubYSize: 699
OS2SubXOff: 0
OS2SubYOff: 140
OS2SupXSize: 650
OS2SupYSize: 699
OS2SupXOff: 0
OS2SupYOff: 479
OS2StrikeYSize: 49
OS2StrikeYPos: 258
OS2Vendor: 'PfEd'
OS2CodePages: 00000001.00000000
OS2UnicodeRanges: 00000063.00000000.00000020.00000000
Lookup: 1 0 0 "'rtla' Right to Left Alternates lookup 0"  {"'rtla' Right to Left Alternates lookup 0 subtable"  } ['rtla' ('DFLT' <'dflt' > ) ]
DEI: 91125

StartChar: .notdef
Encoding: 65536 -1 0
Width: 500
Flags: MW
HStem: 0 50<100 400 100 450> 483 50<100 400 100 100>
VStem: 50 50<50 50 50 483> 400 50<50 483 483 483>
LayerCount: 2
Fore
SplineSet
50 0 m 1
 50 533 l 1
 450 533 l 1
 450 0 l 1
 50 0 l 1
100 50 m 1
 400 50 l 1
 400 483 l 1
 100 483 l 1
 100 50 l 1
EndSplineSet
EndChar

StartChar: uni0021
Encoding: 33 33 2
Width: 229
Flags: HW
HStem: -111.234 10<91.065 135.8> -11.2344 10<102.176 135.8> 91.3906 10<104.547 132.778> 161.359 6.64062<115 117.266> 577.812 10<101.987 129.029>
VStem: 57.6875 10<-77.9593 64.9775> 63.1406 10<256.388 516.499> 79 10<169 269> 92 10<-104 -4> 115 10<96.0156 168> 156.594 10<-81 19 268.392 519.092> 161.156 3.84375<-63.1719 19>
LayerCount: 2
Fore
SplineSet
63.1406 446.75 m 0xfbe0
 63.1406 497.344 68.75 570.078 102 584.578 c 0
 106.844 586.688 111.656 587.812 116.375 587.812 c 0
 146.141 587.812 163.266 545.484 166 479.25 c 0
 166.281 472.25 166.609 464.547 166.594 456.188 c 0
 166.438 369.094 143.969 189.469 124.828 165.859 c 0
 124.375 165.297 123.938 164.734 123.344 164.281 c 0
 121.516 162.906 121.156 162.5 119.469 161.906 c 0
 118.281 161.484 117.266 161.328 116.312 161.359 c 0
 114.594 161.438 114.359 161.516 113.391 161.828 c 0
 101 165.781 90.0312 198.594 79.0625 268.219 c 0
 68.2188 337.062 63.1406 397.562 63.1406 446.75 c 0xfbe0
57.6875 43.625 m 0
 57.6875 67.8594 72.3438 93.0469 100.844 99.8594 c 0
 105.266 100.922 109.656 101.391 113.922 101.391 c 0
 145.875 101.391 171.156 74.2812 171.156 43.4844 c 0
 171.156 35.4375 169.516 26.0781 164.406 16.625 c 0
 154.875 -0.96875 135.078 -11.2344 113.656 -11.2344 c 0
 107.766 -11.2344 101.641 -10.5312 95.6562 -8.8125 c 0
 70.25 -1.51562 57.6875 21.2656 57.6875 43.625 c 0
165 -81 m 1
 155 -81 l 1
 155 19 l 1
 165 19 l 1
 165 -81 l 1
102 -104 m 1
 92 -104 l 1
 92 -4 l 1
 102 -4 l 1
 102 -104 l 1
125 96.0156 m 1
 115 96.0156 l 1
 115 168 l 1
 125 168 l 1
 125 96.0156 l 1
89 169 m 1
 79 169 l 1
 79 269 l 1
 89 269 l 1
 89 169 l 1
73.1406 346.75 m 0xfbc0
 73.1406 298.266 78.2188 238.234 88.9375 169.781 c 0
 93.9688 137.641 99.4062 112.781 104.578 95.8906 c 1
 95.0156 92.9688 l 1
 89.6094 110.625 84.1406 135.812 79.0625 168.219 c 0
 68.2656 237.062 63.1406 297.562 63.1406 346.75 c 0
 63.1406 446.75 l 1
 73.1406 446.75 l 1
 73.1406 346.75 l 0xfbc0
156.594 356.188 m 0xf9e0
 156.594 456.188 l 1
 166.594 456.188 l 1
 166.594 356.188 l 0
 166.594 278.812 150.453 148.859 135.281 92.3125 c 1
 125.625 94.9062 l 1
 140.359 149.781 156.594 280.188 156.594 356.188 c 0xf9e0
67.6875 -56.375 m 0xfdd0
 67.6875 -75.2656 77.6562 -93.2344 98.3438 -99.1875 c 0
 103.5 -100.672 108.641 -101.234 113.656 -101.234 c 0
 131.938 -101.234 148.078 -92.5312 155.594 -78.625 c 0
 159.828 -70.8125 161.156 -63.1719 161.156 -56.5156 c 0
 161.156 43.4844 l 1
 171.156 43.4844 l 1
 171.156 -56.5156 l 0
 171.156 -64.5625 169.516 -73.9219 164.406 -83.375 c 0
 154.875 -100.969 135.078 -111.234 113.656 -111.234 c 0
 107.766 -111.234 101.641 -110.531 95.6562 -108.812 c 0
 70.25 -101.516 57.6875 -78.7344 57.6875 -56.375 c 0
 57.6875 43.625 l 1
 67.6875 43.625 l 1
 67.6875 -56.375 l 0xfdd0
EndSplineSet
EndChar

StartChar: uni0022
Encoding: 34 34 3
Width: 299
Flags: HW
HStem: 290 5<61.2344 62 77 87 101 101.75 198.266 199 213 223 237 237.766> 385 5<52.7656 62 77 87 101 110.25 189.734 199 213 223 237 246.234> 600 10<44 120 180 256>
VStem: 34 10<368.792 600> 43 1<440.673 444> 52 10<295 344 385 390 395 433.488> 52 1<344 385> 77 10<290 390> 101 10<290 351 385 390 395 434.478> 120 10<379.814 600> 120 1<414.062 451> 170 10<375.311 600> 189 10<295 346 385 390 395 435.045> 189 1<346 385> 213 10<290 390> 237 10<291 348 386.172 391 395.828 432.709> 256 10<373.392 600> 256 1<446.487 448>
LayerCount: 2
Fore
SplineSet
34 552 m 2
 34 610 l 1
 130 610 l 1
 130 559 l 2
 130 513.938 128.922 508.109 120.938 450.25 c 1
 110.25 385 l 1
 52.7656 385 l 1
 43.0625 443.172 l 2
 34.0781 497.094 34 500.109 34 552 c 2
170 554 m 2
 170 610 l 1
 266 610 l 1
 266 555 l 2
 266 507.094 265.922 502.094 256.938 447.156 c 2
 246.234 386.172 l 1
 218.109 385 l 1
 189.734 385 l 1
 180.062 445.156 l 2
 170.094 501.047 170 504.094 170 554 c 2
257 348 m 1xe19340
 247 348 l 1
 247 448 l 1
 257 448 l 1
 257 348 l 1xe19340
247 291 m 1
 237 291 l 1
 237 391 l 1
 247 391 l 1
 247 291 l 1
223 290 m 1
 213 290 l 1
 213 390 l 1
 223 390 l 1
 223 290 l 1
199 290 m 1xe19b
 189 290 l 1xe197
 189 390 l 1
 199 390 l 1
 199 290 l 1xe19b
190 346 m 1
 180 346 l 1
 180 446 l 1
 190 446 l 1
 190 346 l 1
121 351 m 1xe1b3
 111 351 l 1
 111 451 l 1
 121 451 l 1
 121 351 l 1xe1b3
111 290 m 1
 101 290 l 1
 101 390 l 1
 111 390 l 1
 111 290 l 1
87 290 m 1
 77 290 l 1
 77 390 l 1
 87 390 l 1
 87 290 l 1
62 290 m 1xe593
 52 290 l 1xe393
 52 390 l 1
 62 390 l 1
 62 290 l 1xe593
53 344 m 1
 43 344 l 1
 43 444 l 1xeb93
 53 444 l 1
 53 344 l 1
44 452 m 0xf1d3
 44 399.891 43.9219 398.906 52.9375 344.828 c 2
 61.2344 295 l 1
 101.75 295 l 1
 111.062 351.75 l 1
 119.078 409.891 120 414.062 120 459 c 0
 120 559 l 1
 130 559 l 1
 130 459 l 0
 130 413.938 129.312 408.062 120.938 350.25 c 0
 118 329.859 114.266 309.531 110.938 289.188 c 2
 110.25 285 l 1
 82 285 l 0
 57 285 l 2
 52.7656 285 l 1
 52.7656 285 46.0625 325.172 43.0625 343.172 c 0
 34.0781 397.094 34 400.109 34 452 c 0
 34 552 l 1
 44 552 l 1
 44 452 l 0xf1d3
180 454 m 0
 180 403.906 179.906 402.938 189.938 346.844 c 2
 198.266 295 l 1
 217.891 295 l 1
 237.766 295.828 l 1
 247.062 348.844 l 2
 256.078 403.906 256 406.906 256 455 c 0
 256 555 l 1
 266 555 l 1
 266 455 l 0xe19380
 266 407.094 266.078 402.062 256.938 347.156 c 0
 253.766 328.141 250.25 309.141 246.922 290.141 c 2
 246.234 286.172 l 1
 242.203 286 l 2
 234.203 285.672 226.109 285.172 218.109 285 c 0
 210.109 284.828 202 285 194 285 c 2
 189.734 285 l 1
 189.062 289.203 l 2
 186.062 307.875 183.312 326.531 180.062 345.156 c 0
 170.328 401.094 170 404.094 170 454 c 0
 170 554 l 1
 180 554 l 1
 180 454 l 0
EndSplineSet
EndChar

StartChar: uni0023
Encoding: 35 35 4
Width: 496
Flags: HW
HStem: -111 5<71.5938 81 97 97.9219 295 305 321 321.906> -16 5<71 81 97 106.078 295 305 321 330.094> 49 10<7 62.4531 141.016 287 366 489> 54 5<37 47 132.984 142 217 227 423 433> 149 10<7 77.0469 141.016 301.406 365.016 489> 149 5<-3 7 37 47 141.016 142 217 227 365.016 366 423 433 489 499> 202.609 10<7 90.9531 174.209 314.922 397.429 489> 207.875 5.5625<159 169 367 377> 254 10<7 105.672 183.078 329.172 407 489> 259 5<59 69 174.922 184 259 269 443 453> 354 10<7 119.906 183.078 342.769 406.234 489> 354.078 4.92188<-3 7 59 69 183.078 184 259 269 406.234 407 443 453 489 499> 414.203 2.79688<202 212 409 419 426 436> 571 10<175.836 218.219 399.062 441.703>
VStem: -3 10<59 149 159 202.109 263.922 354.078 363.922 407> 37 10<54 154> 45 10<-104.875 -14.5156> 59 10<258 358> 71 10<-111 -11> 97 10<-111 -11> 114 10<-28 72> 132 10<23.4775 49 54 55.0781 59 149> 159 10<207.875 208.781 284.953 286> 174 10<231.796 254 259 354> 202 10<413.422 414.297 493.969 495> 217 10<54 154 474 574> 259 10<259 359> 269 10<-104.875 -14.5312> 295 10<-111 -11> 321 10<-111 -11> 336 10<-37 63> 356 8<44.0156 49 143.969 149> 367 10<209.578 212> 397 8<222.389 254 346.078 354> 409 10<414.203 417> 423 10<54 154 412.062 413.031 493.969 495> 443 10<259 359 473 573> 489 10<59 154 159 202 264 359 364 407>
LayerCount: 2
Fore
SplineSet
169.188 578.219 m 0xc41efffffc
 169.812 579.031 170.906 580.016 173.281 580.594 c 0
 177.453 581.609 186.406 581.828 192.766 581.812 c 0
 202.141 581.781 217.938 581.312 223.828 579.688 c 0
 226.328 579 229 577.406 229 574 c 1
 229.031 574.281 228.938 573.203 228.938 573.125 c 0
 228.422 569.625 222.281 542.984 211.891 493.969 c 0
 205.094 461.875 198.641 430.109 196.609 418.75 c 1
 209.531 417.375 251 416.75 300.141 416.75 c 0
 325.25 416.75 347.078 416.906 355.875 416.969 c 1
 358.406 429.281 366.359 465.359 373.109 495.062 c 2
 390.938 581 l 1
 421.906 581 l 2
 430.25 581.328 435.938 581.562 440.031 581.562 c 2
 440.031 581.562 443.438 581.578 445.625 581.297 c 0
 448.141 580.953 452.578 579.594 452.578 574.766 c 0
 452.578 573.562 452.047 572.531 451.875 571.625 c 0
 450.766 565.625 444.906 540.141 435.891 493.969 c 0
 428.438 460.812 420.281 424.578 419.094 417.562 c 1
 422.859 417.109 430.953 417 454 417 c 2
 499 417 l 1
 499 354 l 1
 406.234 354 l 1
 404.906 346.078 l 1
 377.312 212.859 l 1
 382.094 212.234 394.125 212 433 212 c 2
 499 212 l 1
 499 149 l 1xc42efffffc
 365.016 149 l 1
 363.891 143.969 l 2
 362.859 138.812 354.906 102.016 345.891 61.9531 c 2
 330.094 -16 l 1
 300 -16 l 2
 287.938 -15.9531 280.375 -15.7656 275.797 -14.5312 c 0
 272.5 -13.6406 269 -11.5156 269 -7 c 1
 268.969 -7.3125 269.062 -6.20312 269.062 -6.125 c 0
 269.578 -2.625 275.625 24.0469 286.109 73.0469 c 0
 292.828 104.406 299.375 136.859 301.406 148.312 c 1
 294.203 148.891 275.875 149 222 149 c 2
 141.016 149 l 1
 123.891 70.9688 l 1
 106.078 -16 l 1
 76 -16 l 2
 63.7656 -15.9531 56.0625 -15.8281 51.4375 -14.5156 c 0
 46.6719 -13.1406 45 -10 45 -7 c 1
 44.9688 -7.26562 45.0469 -6.29688 45.0469 -6.23438 c 0
 45.4844 -2.76562 52.7031 32.7969 62.125 75.0781 c 0
 68.9375 105.688 74.7031 136.547 77.0469 149 c 1xc80efffffc
 -3 149 l 1
 -3 211.891 l 1
 47.9375 213 l 1
 90.9531 213 l 1
 106.109 284.016 l 1
 119.906 353 l 1
 63.9531 353 l 1
 -3 354.078 l 1
 -3 417 l 1
 132.938 417 l 1
 149.109 494.062 l 2
 159.453 539.578 165.438 568.641 168.016 576.062 c 0
 168.266 576.766 168.609 577.5 169.188 578.219 c 0xc41efffffc
343.266 352.5 m 1
 331.219 353.797 293.984 353.984 264 354 c 2
 183.078 354 l 1
 168.891 284.953 l 2
 160.375 247.125 155.672 223.578 153.203 213.438 c 1xc12e7ffffc
 163.188 212.375 184.641 212.609 188.062 212.609 c 0
 199.719 212.609 214.484 212.734 232.969 213 c 2
 314.922 213 l 1
 329.094 282 l 1
 343.266 352.5 l 1
269 259 m 1xc05e7ffffc
 259 259 l 1
 259 359 l 1
 269 359 l 1
 269 259 l 1xc05e7ffffc
184 259 m 1
 174 259 l 1
 174 359 l 1
 184 359 l 1
 184 259 l 1
169 207.875 m 1xc10e7ffffc
 159 207.875 l 1
 159 286 l 1
 169 286 l 1
 169 207.875 l 1xc10e7ffffc
212 413.422 m 1
 202 413.422 l 1
 202 495 l 1
 212 495 l 1
 212 413.422 l 1
436 412.062 m 1
 426 412.062 l 1
 426 495 l 1
 436 495 l 1
 436 412.062 l 1
419 414.203 m 2
 409 414.203 l 2
 409 417 l 2
 419 417 l 2
 419 414.203 l 2
453 259 m 1xc05e7ffffc
 443 259 l 1
 443 359 l 1
 453 359 l 1
 453 259 l 1xc05e7ffffc
377 209.578 m 2
 367 209.578 l 2
 367 212 l 2
 377 212 l 2
 377 209.578 l 2
433 54 m 1xd40e7ffffc
 423 54 l 1
 423 154 l 1
 433 154 l 1
 433 54 l 1xd40e7ffffc
346 -37 m 1
 336 -37 l 1
 336 63 l 1
 346 63 l 1
 346 -37 l 1
331 -111 m 1
 321 -111 l 1
 321 -11 l 1
 331 -11 l 1
 331 -111 l 1
305 -111 m 1
 295 -111 l 1
 295 -11 l 1
 305 -11 l 1
 305 -111 l 1
227 54 m 1
 217 54 l 1
 217 154 l 1
 227 154 l 1
 227 54 l 1
142 54 m 1
 132 54 l 1
 132 154 l 1
 142 154 l 1
 142 54 l 1
124 -28 m 1
 114 -28 l 1
 114 72 l 1
 124 72 l 1
 124 -28 l 1
107 -111 m 1
 97 -111 l 1
 97 -11 l 1
 107 -11 l 1
 107 -111 l 1
81 -111 m 1
 71 -111 l 1
 71 -11 l 1
 81 -11 l 1
 81 -111 l 1
47 54 m 1xd40f7ffffc
 37 54 l 1
 37 154 l 1
 47 154 l 1
 47 54 l 1xd40f7ffffc
69 258 m 1
 59 258 l 1
 59 358 l 1
 69 358 l 1
 69 258 l 1
7 263.922 m 1
 64.0469 263 l 1
 105.672 263 l 1
 105.672 253 l 1
 63.9531 253 l 2
 43.2969 253.328 22.5938 253.672 1.92188 254 c 2xc09e7ffffc
 -3 254.078 l 1
 -3 259 l 2
 -3 359 l 1
 7 359 l 1xc05e7ffffc
 7 263.922 l 1
7 59 m 1xe40e7ffffc
 62.4531 59 l 1
 62.4531 49 l 1
 42 49 l 2
 2 49 l 2
 -3 49 l 1xe40e7ffffc
 -3 54 l 2xd00e7ffffc
 -3 154 l 1
 7 154 l 1
 7 59 l 1xe40e7ffffc
55 -107 m 0xe00efffffc
 54.2188 -104.875 l 0
 58.3125 -106.047 71.5938 -106 76 -106 c 2
 97.9219 -106 l 1
 114.109 -26.9688 l 2
 120.109 0.375 126.109 27.7344 132.109 55.0781 c 2
 132.984 59 l 1
 137 59 l 2xd00efffffc
 222 59 l 0
 253.391 59 274.016 59 287.156 58.7969 c 1
 287 48.7969 l 1
 274.016 49 253.375 49 222 49 c 2
 141.016 49 l 1
 123.891 -29.0312 l 2
 118.219 -56.7031 112.562 -84.3438 106.906 -112 c 2
 106.078 -116 l 1
 102 -116 l 2
 76 -116 l 0
 65.0312 -116 55.9844 -115.812 51.4375 -114.516 c 0
 45.0938 -112.688 45.0156 -108.641 45 -107 c 0
 44.8125 -73.6719 45 -40.3281 45 -7 c 1
 55 -7 l 1
 55 -107 l 0xe00efffffc
279 -107 m 0
 279 -107 277.812 -104.719 278.406 -104.875 c 0
 280.688 -105.5 285.438 -106 300 -106 c 2
 321.906 -106 l 1
 336.109 -35.9531 l 2
 344.844 2.875 352.688 39.0625 354 45.5 c 1
 354 145 l 1
 364 145 l 1
 364 45 l 2
 364 44.5 l 1
 363.906 44.0156 l 2
 362.875 38.875 354.578 2.07812 345.891 -38.0469 c 0
 340.562 -62.6406 335.906 -87.3281 330.906 -112 c 2
 330.094 -116 l 1
 326 -116 l 2
 300 -116 l 0
 289.625 -116 280.438 -115.781 275.797 -114.531 c 0
 269.219 -112.75 269.016 -108.688 269 -107 c 0
 268.766 -73.6719 269 -40.3281 269 -7 c 1
 279 -7 l 1
 279 -107 l 0
366 59 m 1xe40e7ffffc
 489 59 l 1xe40e7ffffc
 489 154 l 1
 499 154 l 1
 499 54 l 2xd40e7ffffc
 499 49 l 1
 428 49 l 0
 361 49 l 2
 356 49 l 1xe00e7ffffc
 356 54 l 2xd00e7ffffc
 356 154 l 1
 366 154 l 1
 366 59 l 1xe40e7ffffc
395 247.516 m 1
 395 347 l 1
 405 347 l 1
 405 247 l 2
 405 246.484 l 1
 396.625 206.125 l 1
 386.828 208.156 l 1
 395 247.516 l 1
407 264 m 1xc09e7ffffc
 489 264 l 1xc09e7ffffc
 489 359 l 1
 499 359 l 1
 499 259 l 2xc05e7ffffc
 499 254 l 1
 494 254 l 2
 448 254 l 0
 402 254 l 2
 397 254 l 1xc08e7ffffc
 397 259 l 2xc04e7ffffc
 397 359 l 1
 407 359 l 1
 407 264 l 1xc09e7ffffc
442 473 m 0
 442 573 l 1
 452 573 l 1
 452 473 l 0
 452 472.656 451.969 472.328 451.953 472.172 c 0
 451.281 466.453 447.891 453.453 439.281 411.047 c 1
 429.484 413.031 l 1
 438 455.031 441.578 469.625 442.016 473.328 c 0
 442 473 l 0
219 474 m 0
 219 574 l 1
 229 574 l 1
 229 474 l 0
 229 473.719 228.984 473.453 228.922 473.078 c 0
 228.219 468.406 225.078 455.047 215.812 412.188 c 1
 206.031 414.297 l 1
 215.219 456.781 218.547 471.297 219.031 474.578 c 0
 219 474 l 0
163.578 208.781 m 1
 174.922 264 l 1
 179 264 l 2xc04e7ffffc
 264 264 l 0
 295.625 264 316.344 263.781 329.516 263.328 c 1
 329.172 253.344 l 1
 316.234 253.781 295.562 254 264 254 c 2
 183.078 254 l 1
 173.375 206.766 l 1
 163.578 208.781 l 1
EndSplineSet
EndChar

StartChar: uni0024
Encoding: 36 36 5
Width: 458
Flags: HW
HStem: -199 5<232 242> -104 5<196 206 232 242 269 279> -24 17G<190 200 287 297>
VStem: 39 10<-46.9062 46.875 274.105 303.406> 61 10<-61 34.5781> 130 10<176 271.438> 169 10<160 260 374.641 470> 190 10<-11.9219 -7> 196 10<-194 -104> 196 4<-113.094 -99 -54 -36.8594> 232 10<-199 -99> 270 9<-194 -112.875 -104 -8 113 218 371 476> 287 10<-104 -4 108 203.812> 335.062 94.891<97.7625 188.309> 382 10<317.188 403.031> 393 10<317.188 403.031> 402 10<-21 79> 419.953 10<14.812 149.656>
LayerCount: 2
Fore
SplineSet
196 557.953 m 1xfe78
 196 588 l 1
 279 588 l 1
 279 568 l 2
 279.016 559.5 279.031 559.203 279.531 557.625 c 0
 280.406 557.375 280.844 557.547 284.641 556.953 c 0
 316.828 551.984 369.594 532.062 390.969 516.016 c 2
 404 506.547 l 1
 404 456 l 2
 404 428.875 403 406.812 403 406.781 c 2xfe79
 398 402 l 1
 396.328 402.531 396.406 402 394.625 403.031 c 0
 392.125 404.469 387.781 408.422 383.531 412.391 c 0
 356.688 437.5 300.625 466.328 279.453 470.484 c 1
 279.078 460.531 279 434.906 279 394.031 c 2
 279.953 315.625 l 1
 288.594 312.734 l 2
 377.281 282.422 429.953 220.234 429.953 149.656 c 0
 429.953 125.797 423.531 101.422 411.484 76.7812 c 0
 389.344 31.5156 350.094 3.32812 293.094 -8.875 c 1
 279.906 -11.9844 l 1
 279 -53.0625 l 1
 279 -104 l 1
 196 -104 l 1xfebc
 196 -54 l 2
 196 -36.8594 195.922 -15.7344 194.875 -12.0469 c 0
 194.312 -11.9531 194.094 -11.9219 194.094 -11.9219 c 1
 148.609 -2.85938 102.219 13.2656 63.6719 34.5781 c 1
 39.0625 46.875 l 1
 38 102.953 l 1
 38 102.953 37.9531 151.688 38.7656 156.906 c 0
 39.4688 161.516 42.9531 162 44 162 c 2
 45.75 162 l 1
 67.125 144.891 l 2
 97.6562 120.484 124.312 103.469 140.031 96.5625 c 0
 153.938 90.4688 182.906 80.2656 194.734 77 c 1
 195.078 82.8594 195.406 94.7031 195.406 116.094 c 0
 195.406 128.312 195.297 143 195 159.953 c 2
 195 245.688 l 1
 172.234 255.328 l 1
 156.844 260.453 139.672 268.281 132.938 271.438 c 0
 71.6562 300.281 40.0156 350.641 40.0156 403.406 c 0
 40.0156 470.094 91.0625 535.812 182.922 554.875 c 1
 196 557.953 l 1xfe78
199 66 m 2
 199.094 66 199.078 66 199 66 c 2
193.859 470.688 m 1
 191.469 470.469 188.453 468.812 179.859 465.359 c 0
 149.406 453.125 133.422 429.766 133.422 407.484 c 0
 133.422 394.844 138.531 382.375 149.5 371.562 c 0
 158.469 362.734 184.484 348.484 194.812 343.656 c 1
 195.578 355.625 195.984 383.281 196 406 c 0
 196 417.047 196.031 426.453 196.031 434.406 c 0
 196.031 460.312 194.812 468.859 193.859 470.688 c 1
335 142.094 m 0
 335 143.219 335.062 144.406 335.062 145.469 c 0xfe3c
 335.062 170.297 324.453 182.406 291.266 203.812 c 0
 286.641 206.797 282.453 209.172 279.375 210.812 c 1
 278.859 195.5 279 157.188 279 145 c 2
 279 78.6875 l 1
 281.062 79.6094 l 1
 320.344 95.1094 334.969 117.141 335 142.094 c 0
299 108 m 1
 289 108 l 1
 289 208 l 1
 299 208 l 1
 299 108 l 1
183 370 m 1
 173 370 l 1
 173 470 l 1
 183 470 l 1
 183 370 l 1
392 316 m 1xfe3a
 382 316 l 1
 382 416 l 1
 392 416 l 1
 392 316 l 1xfe3a
412 -21 m 1xfe3880
 402 -21 l 1
 402 79 l 1
 412 79 l 1
 412 -21 l 1xfe3880
297 -104 m 1
 287 -104 l 1
 287 -4 l 1
 297 -4 l 1
 297 -104 l 1
242 -199 m 1
 232 -199 l 1
 232 -99 l 1
 242 -99 l 1
 242 -199 l 1
71 -61 m 1
 61 -61 l 1
 61 39 l 1
 71 39 l 1
 71 -61 l 1
179 160 m 1
 169 160 l 1
 169 260 l 1
 179 260 l 1
 179 160 l 1
140 176 m 1
 130 176 l 1
 130 276 l 1
 140 276 l 1
 140 176 l 1
50.0156 303.406 m 0
 50.0156 254.25 79.7344 207.5 137.062 180.562 c 0
 144.109 177.25 161.312 169.969 175.766 164.672 c 0
 184.594 161.438 193.281 157.266 201.953 153.609 c 1
 198.047 144.391 l 1
 189.391 148.062 181.078 152.094 172.234 155.328 c 0
 157 160.891 139.672 168.281 132.938 171.438 c 0
 71.6562 200.281 40.0156 250.641 40.0156 303.406 c 0
 40.0156 403.406 l 1
 50.0156 403.406 l 1
 50.0156 303.406 l 0
49 -46.9062 m 1
 68.3281 -56.5781 l 1
 104.094 -76.3438 147.391 -91.7656 190 -100.859 c 1
 190 -7 l 1
 200 -7 l 1xff38
 200 -107 l 2
 200 -113.094 l 1xfe78
 194.016 -111.906 l 2
 148.547 -102.812 102.359 -86.4844 63.6719 -65.4219 c 0
 56.4688 -61.5 49.0938 -58.1406 41.7656 -54.4688 c 2
 39 -53.0938 l 1
 39 -50 l 2
 39 50 l 1
 49 50 l 1
 49 -46.9062 l 1
206 -194 m 1xfeb8
 269 -194 l 1
 269 -99 l 1
 279 -99 l 1
 279 -199 l 2
 279 -204 l 1
 274 -204 l 2
 237 -204 l 0
 196 -204 l 1
 196 -199 l 2
 196 -99 l 1xfe78
 206 -99 l 1
 206 -194 l 1xfeb8
280 -101.688 m 1
 290.906 -99.125 l 1
 344.547 -87.625 381.359 -62.0781 402.516 -18.7812 c 0
 413.938 4.57812 419.953 27.4844 419.953 49.6562 c 0
 419.953 149.656 l 1xfe3840
 429.953 149.656 l 1xfe3c
 429.953 49.6562 l 0xfe3840
 429.953 25.7969 423.531 1.42188 411.484 -23.2188 c 0
 389.344 -68.4844 350.062 -96.5625 293.094 -108.875 c 0
 287.406 -110.109 281.812 -111.531 276.141 -112.875 c 2
 270 -114.312 l 1
 270 -108 l 2
 270 -8 l 1
 280 -8 l 1
 280 -101.688 l 1
280 380.547 m 1
 306.5 376.234 366.188 342.078 390.469 319.609 c 2
 393 317.188 l 1
 393 407 l 1
 403 407 l 1
 403 307 l 2
 403 302 l 1xfe39
 398 302 l 2
 396.656 302 395.516 302.5 394.625 303.031 c 0
 392.125 304.469 388.844 307.438 383.531 312.391 c 0
 354.469 339.531 291.266 371 275 371 c 2
 270 371 l 1
 270 376 l 2
 270 476 l 1
 280 476 l 1
 280 380.547 l 1
176.141 374.641 m 0
 185.797 378.547 188.906 380.328 193.141 380.672 c 0
 193.344 380.688 190.703 380.875 194.125 380.703 c 0
 196.594 380.594 199.438 380.438 202.094 376.469 c 0
 203.625 374.172 204.875 370.844 205.484 362.141 c 1
 195.516 361.422 l 1
 195.219 365.594 194.719 369.375 193.75 370.844 c 0
 194.125 370.703 l 1
 194.203 370.703 193.953 370.703 193.938 370.703 c 0
 191.531 370.5 188.531 368.875 179.859 365.359 c 0
 172.656 362.438 166.234 358.938 160.656 354.953 c 1
 154.828 363.078 l 1
 161.094 367.562 168.234 371.438 176.141 374.641 c 0
280 121.5 m 1
 284.938 119.328 292.188 115.125 296.734 112.188 c 0
 305.25 106.656 312.469 101.75 318.547 96.8594 c 1
 312.281 89.0625 l 1
 306.625 93.625 299.578 98.375 291.266 103.812 c 0
 281.906 109.938 274.875 112.875 274.031 113.109 c 1
 274.141 113.078 275.281 112.938 275 113 c 2
 270 113 l 1
 270 118 l 2
 270 218 l 1
 280 218 l 1
 280 121.5 l 1
EndSplineSet
EndChar

StartChar: uni0025
Encoding: 37 37 6
Width: 570
Flags: HW
HStem: -111 10<66 125.266 394.359 447.37> -106 5<89 99 123 125.266> -11 10<70.125 89 99 123 394.315 447.415> -11 5<56 66 89 99 123 130.734> 53 10<398.392 442.649> 79 12.0781<392.282 443.872> 181.078 10<397.585 442.926> 219.562 10<114.987 184.137> 247.266 10<388.689 453.77> 319.562 10<114.987 183.537> 384.547 10<126.741 172.68> 413 9.78125<124.213 166.824> 512.781 10<123.102 172.924> 562 20G<499 509> 580 10<123.893 175.346 442.734 497.266>
VStem: 16.3906 10<318.503 486.971> 22 10<317 417> 22 4.39062<341.906 417> 84 10<422.877 477> 89 10<-106 -6> 123 10<-106 -6> 167 10<413 513> 207.891 10<430.606 478.115> 270 10<326.562 425 425.097 495.686> 290 10<-8.28125 93 93.073 165.342> 310 10<195 286> 352.062 17.9375<91.5156 152> 360 10<91.5156 152> 360 2.0625<91.5156 130.922> 444 10<79 179> 479.625 10<99.7446 146.877> 499 10<482 582> 541 10<-8.23438 93 93.1057 164.472>
LayerCount: 2
Fore
SplineSet
269.797 327.703 m 2x1ffa0fc780
 437.266 590 l 1
 472.922 590 l 2
 480.453 590.25 486.219 590.406 490.781 590.375 c 0
 498.5 590.328 501.156 590.125 503.625 589.531 c 0
 506.422 588.859 509.484 587 509.484 583.219 c 0
 509.484 583.031 509.141 582.078 508.891 581.109 c 0
 508.766 580.609 508.734 580.188 508.203 579.141 c 0
 502.703 568.562 419.531 439.953 319.203 283.297 c 2
 130.734 -11 l 1
 51.875 -11 l 1
 79.8281 32.75 l 2
 92.6562 51.5156 177.812 184.75 269.797 327.703 c 2x1ffa0fc780
16.3906 453.578 m 0
 16.3906 514.141 59.125 570.984 121.891 584.875 c 0
 131.406 586.984 140.797 588.172 150.094 588.172 c 0
 221.781 588.172 283.516 525.547 283.516 453.75 c 0
 283.516 443.891 282.391 433.828 279.844 423.781 c 0
 262.438 354.938 205.875 319.562 149.609 319.562 c 0
 96.125 319.562 42.375 351.547 22.2344 415.5 c 0
 18.2656 428.094 16.3906 440.922 16.3906 453.578 c 0
172.938 399.562 m 0
 196.484 410.312 207.891 432.531 207.891 454.516 c 0
 207.891 477.594 195.297 499.734 170.375 508.281 c 0
 161.641 511.266 153.469 512.781 145.922 512.781 c 0
 123.062 512.781 104.938 500.141 93.5625 474.969 c 0
 90.3438 467.812 89.0938 460.609 89.0938 453.609 c 0
 89.0938 423.172 116.234 394.547 149.578 394.547 c 0
 157.25 394.547 165.125 395.984 172.938 399.562 c 0
286.281 122.031 m 0
 286.281 180.234 327.672 236 388.672 252.812 c 0
 399.578 255.828 410.469 257.266 421.188 257.266 c 0
 492.578 257.266 554.672 194.484 554.672 122.406 c 0
 554.672 112.312 553.469 102.047 550.844 91.7656 c 0
 533.781 24.9531 477.156 -8.75 420.875 -8.75 c 0
 364.594 -8.75 307.75 24.9375 290.156 91.7344 c 0
 287.531 101.766 286.281 111.938 286.281 122.031 c 0
440.25 66.6875 m 0
 466.234 76.4531 479.625 100.125 479.625 123.5 c 0
 479.625 144.328 468.906 164.234 446.859 174.484 c 0
 437.797 178.703 428.641 181.078 419.75 181.078 c 0
 399.031 181.078 379.953 169.672 369.406 149.656 c 0
 364.5 140.312 362.062 130.922 362.062 121.797 c 0x0ff80fcf80
 362.062 90.6875 388.578 63 420.188 63 c 0
 426.688 63 433.406 64.1094 440.25 66.6875 c 0
454 79 m 1
 444 79 l 1
 444 179 l 1
 454 179 l 1
 454 79 l 1
370 91.5156 m 1x0ff80fe780
 360 91.5156 l 1
 360 152 l 1x0ff80fd780
 370 152 l 1
 370 91.5156 l 1x0ff80fe780
177 413 m 1
 167 413 l 1
 167 513 l 1
 177 513 l 1
 177 413 l 1
94 430.094 m 1x0ff82fc780
 84 430.094 l 1
 84 477 l 1
 94 477 l 1
 94 430.094 l 1x0ff82fc780
280 326.562 m 1
 270 326.562 l 1
 270 425 l 1
 280 425 l 1
 280 326.562 l 1
32 317 m 1x0ff88fc780
 22 317 l 1
 22 417 l 1
 32 417 l 1
 32 317 l 1x0ff88fc780
320 195 m 1
 310 195 l 1
 310 286 l 1
 320 286 l 1
 320 195 l 1
133 -106 m 1x5ff80fc780
 123 -106 l 1
 123 -6 l 1
 133 -6 l 1
 133 -106 l 1x5ff80fc780
99 -106 m 1x5ff81fc780
 89 -106 l 1
 89 -6 l 1
 99 -6 l 1
 99 -106 l 1x5ff81fc780
66 -101 m 1x9ff82fc780
 125.266 -101 l 1
 292.312 159.859 l 1
 300.734 154.469 l 1
 130.734 -111 l 1
 128 -111 l 2
 94 -111 l 0
 56 -111 l 1x9ff82fc780
 56 -106 l 2x4ff82fc780
 56 -6 l 1
 66 -6 l 1
 66 -101 l 1x9ff82fc780
499 482 m 0
 499 582 l 1
 509 582 l 1x0ffc0fc780
 509 482 l 0
 509 480.875 508.625 479.953 508.219 479.188 c 0
 502.594 468.25 416.781 334.516 340.25 215.906 c 1
 331.859 221.328 l 1
 408.125 339.547 494.656 474.688 499.328 483.766 c 0
 499.594 484.281 499 482 499 482 c 0
26.3906 353.578 m 0x0ff90fc780
 26.3906 341.906 28.1094 330.109 31.7656 318.5 c 0
 50.6094 258.656 99.9844 229.562 149.609 229.562 c 0
 175.219 229.562 200.812 237.406 222.125 252.922 c 1
 228.016 244.844 l 1
 204.906 228.016 177.25 219.562 149.609 219.562 c 0
 96.125 219.562 42.375 251.547 22.2344 315.5 c 0
 18.2656 328.094 16.3906 340.922 16.3906 353.578 c 0
 16.3906 453.578 l 1
 26.3906 453.578 l 1
 26.3906 353.578 l 0x0ff90fc780
145.922 422.781 m 0
 154.75 422.781 164 421.062 173.625 417.719 c 0
 180.656 415.297 186.891 411.984 192.312 407.875 c 1
 186.266 399.906 l 1
 181.703 403.359 176.391 406.188 170.375 408.281 c 0
 161.656 411.297 153.469 412.781 145.922 412.781 c 0
 132.859 412.781 121.594 408.578 112.031 400.453 c 1
 105.562 408.078 l 1
 117.828 418.516 131.781 422.781 145.922 422.781 c 0
300 -6.34375 m 1
 316.578 -68.1406 368.578 -98.75 420.875 -98.75 c 0
 473.172 -98.75 524.906 -68.1406 541 -6.35938 c 1
 541 93 l 1
 551 93 l 1
 551 -7 l 2
 551 -7.625 l 1
 550.844 -8.23438 l 2
 533.75 -75.0469 477.156 -108.75 420.875 -108.75 c 0
 364.594 -108.75 307.766 -75.0781 290.172 -8.28125 c 2
 290 -7.64062 l 1
 290 -7 l 2
 290 93 l 1
 300 93 l 1
 300 -6.34375 l 1
419.75 91.0781 m 0
 430.219 91.0781 440.812 88.5312 451.141 83.5156 c 0
 455.547 81.375 459.609 79.1562 463.297 76.4531 c 1
 457.406 68.375 l 1
 454.281 70.6719 450.656 72.6406 446.859 74.4844 c 0
 437.875 78.8438 428.641 81.0781 419.75 81.0781 c 0
 406.734 81.0781 394.328 76.6094 384.328 68.3281 c 1
 377.953 76.0312 l 1
 389.734 85.7812 404.422 91.0781 419.75 91.0781 c 0
EndSplineSet
EndChar

StartChar: uni0026
Encoding: 38 38 7
Width: 528
Flags: HW
HStem: -111 10<129.727 211.647> -104 9.8125<418.344 520> -99 4.95312<418.344 421 465 475> -11 10<129.727 211.658> -3.95312 4.95312<413.656 421 465 475 520 525.203> 69.2031 10<149.998 208.291> 137 7.90625<206 209.094> 281 10<419.828 494.781> 293.031 18.9688<149.031 152> 385 13.3906<209.425 266.759> 488.391 10<215.318 263.574> 560.656 10<201.028 276.853>
VStem: 19.5156 10<-6.56137 163.393> 89.2031 10<301.408 468.222> 104.297 10<110.865 150.291> 142 10<293.031 312> 178 10<129.062 225 404.665 463.071> 206 10<137 237> 252 10<101.766 184> 267 10<385 485> 294 10<262 302 407.128 461.402> 329 10<-38 62> 347 10<69.0312 76> 355 10<-36.0781 -27.9531 62.4688 66> 355 2<-26.4375 62.4688> 377.109 10<308.799 472.248> 387 10<-71 29> 411 10<-94.0469 -3.95312> 416 10<122.141 151> 465 10<-100 0> 494 10<177 278> 520 10<-94.1875 1>
LayerCount: 2
Fore
SplineSet
29.5156 28.0156 m 2
 29.5156 -42.5625 87.2812 -101 169 -101 c 0
 221.956 -101 276.225 -79.0958 329 -35.6495 c 1
 329 51.5025 l 1
 276.845 10.2992 222.626 -11 169 -11 c 0
 102.85 -11 50.5315 25.6099 29.5156 76.9019 c 1
 29.5156 28.0156 l 2
297.031 429.5 m 0
 297.188 430.938 297.219 432.344 297.219 433.797 c 0
 297.219 449.547 289.64 465.711 277 475.767 c 1
 277 389.439 l 1
 290.627 405.59 295.957 419.718 297.031 429.5 c 0
208.047 567.906 m 0
 217.938 569.891 228.109 570.656 238.188 570.656 c 0
 286.375 570.656 340.187 549.5 366.219 508.688 c 0
 380.062 486.984 387.109 464.062 387.109 440.656 c 2
 387.109 340.656 l 2
 387.109 303.059 369.149 264.828 334.659 228.194 c 1
 356.25 203.328 l 1
 360.297 207.344 l 1
 368.312 217.156 399.078 263.328 406.625 278.406 c 1
 414.172 291 l 1
 509.219 291 l 1
 504 277.074 l 1
 504 178 l 1
 504 177 l 1
 503.609 176.078 l 2
 493.379 151.935 475.294 119.352 455.64 89.7563 c 1
 470.781 72.2656 l 2
 497.562 41.2969 524.673 10.3493 528.844 4.3125 c 0
 529.233 3.74906 530 2.65625 530 1 c 2
 530 -99 l 1
 525.203 -104 l 2
 525.156 -104 500.062 -105.203 469.953 -105 c 0
 451.953 -104.875 433.906 -104.328 415.906 -104 c 2
 413.656 -103.953 l 1
 412.203 -102.25 l 2
 401.797 -90.125 396.25 -83.5781 388.219 -74.2656 c 0
 375.25 -59.2344 361 -42.0625 356.469 -37.5312 c 2
 355 -36.0781 l 1
 355 -34 l 1
 355 -28.0017 l 1
 347.243 -34.0319 342.972 -37.0636 337.141 -41.8906 c 0
 282.344 -87.25 225.422 -111 169 -111 c 0
 82.4062 -111 19.5156 -48.2656 19.5156 28.0156 c 2
 19.5156 128.016 l 2
 19.5156 144.156 22.4531 160.812 28.2812 177.641 c 0
 38.1468 206.12 67.6712 241.089 104.546 270.097 c 1
 94.5499 292.775 89.2031 315.331 89.2031 336.266 c 2
 89.2031 436.266 l 2
 89.2031 443.359 89.7687 450.312 91.0938 456.953 c 0
 103.404 518.651 141.953 554.625 208.047 567.906 c 0
206.442 134.686 m 1
 203.213 133.273 193.442 126.365 185.906 120.938 c 0
 169.339 108.992 155.721 97.4198 144.957 86.4214 c 1
 154.518 81.59 165.433 79.2031 177.422 79.2031 c 0
 196.248 79.2031 217.646 85.2631 239.622 97.1899 c 1
 220.737 119.725 208.658 132.551 208.219 132.844 c 2
 207.578 133.266 l 1
 207.094 133.875 l 1
 206.442 134.686 l 1
339 -27.7813 m 1
 347 -21.5625 l 1
 347 65.7839 l 1
 339 59.5567 l 1
 339 -27.7813 l 1
397 -69.1557 m 1
 411 -85.4826 l 1
 411 -0.853079 l 1
 397 15.486 l 1
 397 -69.1557 l 1
387 -57.491 m 1
 387 27.1429 l 1
 365 52.9005 l 1
 365 -31.9844 l 1
 369.687 -36.9783 378.04 -46.9589 387 -57.491 c 1
421 -94.0958 m 1
 465 -94.907 l 1
 465 -4.9079 l 1
 421 -4.08969 l 1
 421 -94.0958 l 1
475 -94.9908 m 1
 492.369 -94.9271 509.182 -94.5443 520 -94.1875 c 1
 520 -4.18199 l 1
 511.81 -4.448 494.79 -4.9193 475 -4.9908 c 1
 475 -94.9908 l 1
267 392.73 m 1
 267 481.921 l 1
 257.135 486.616 247.355 488.391 238.297 488.391 c 0
 208.375 488.391 185.375 466.641 185.375 436.203 c 0
 185.375 429.719 186.672 422.766 188.781 415.438 c 0
 191.277 406.81 196.102 396.85 201.643 387.332 c 1
 211.95 394.395 224.609 398.391 238.297 398.391 c 0
 247.505 398.391 257.244 396.602 267 392.73 c 1
188 134.706 m 1
 199.013 142.496 202.171 144.266 205.719 144.797 c 0
 205.786 144.807 205.882 144.831 206 144.857 c 2
 206 234.483 l 1
 202.744 232.875 194.825 227.357 188 222.448 c 1
 188 134.706 l 1
178 127.551 m 1
 178 215.083 l 1
 125.151 175.032 114.297 147.307 114.297 129.938 c 0
 114.297 118.016 119.334 107.131 130.438 96.6406 c 0
 132.291 94.8899 134.225 93.2725 136.238 91.7879 c 1
 147.316 103.346 161.197 115.34 178 127.551 c 1
216 139.183 m 1
 222.789 132.454 240.092 112.174 248.419 102.261 c 1
 252 104.496 l 1
 252 182.236 l 1
 236.432 201.277 223.657 215.941 216 224.472 c 1
 216 139.183 l 1
262 111.267 m 1
 269.247 116.46 276.484 122.274 283.641 128.703 c 2
 292.016 136.391 l 1
 262 170.706 l 1
 262 111.267 l 1
269.127 380.851 m 1
 258.442 386.155 248.007 388.391 238.297 388.391 c 0
 226.348 388.391 215.559 384.878 206.872 378.786 c 1
 216.045 364.486 225.769 352.621 229.75 350.109 c 1
 246.517 360.601 259.37 371.005 269.127 380.851 c 1
99.2031 383.478 m 1
 99.2031 336.266 l 2
 99.2031 313.111 106.296 291.431 112.732 276.348 c 1
 121.343 282.729 130.288 288.756 139.422 294.281 c 2
 142 295.845 l 1
 142 310.206 l 1
 122.622 333.922 108.07 358.954 99.2031 383.478 c 1
448.841 97.6102 m 1
 467.365 125.727 484.492 156.463 494 179 c 1
 494 255.271 l 1
 476.819 220.945 449.993 178.477 426 149.209 c 1
 426 123.996 l 1
 448.841 97.6102 l 1
416 135.547 m 1
 416 136.75 l 1
 415.5 136.125 l 1
 416 135.547 l 1
328.068 235.783 m 1
 360.949 270.948 377.109 306.601 377.109 340.656 c 2
 377.109 391.601 l 1
 364.423 360.322 339.8 329.266 304 299.645 c 1
 304 263.858 l 1
 326.781 237.266 l 1
 328.068 235.783 l 1
294 275.395 m 1
 294 291.906 l 1
 285.25 285.234 l 1
 287.672 282.391 l 2
 288.805 281.253 291.038 278.771 294 275.395 c 1
EndSplineSet
EndChar

StartChar: uni0027
Encoding: 39 39 8
Width: 161
Flags: HW
HStem: 290 5<74 81.2188> 295 0.6875<100 100.078> 385 5<74 84> 600 10<43 118>
VStem: 33 10<365.099 600> 49 10<295 296.047> 74 10<290 390> 100 10<295 296.031 385.922 395> 118 10<375.265 600>
LayerCount: 2
Fore
SplineSet
33 551 m 2
 33 610 l 1
 128 610 l 1
 128 555 l 2
 128 505.594 121.984 449.328 109.891 393.969 c 0
 109.078 390.266 107.828 387.219 102.547 385.922 c 0
 98.0625 384.828 88.5938 385 79 385 c 0
 70.1094 385 61.0469 384.875 56.7812 385.828 c 0
 51.3438 387.031 49.9531 390.234 49.1094 393.953 c 0
 39.0781 438.484 33 497.625 33 551 c 2
110 295 m 1
 100 295 l 1
 100 395 l 1
 110 395 l 1
 110 295 l 1
84 290 m 1
 74 290 l 1
 74 390 l 1
 84 390 l 1
 84 290 l 1
59 295 m 1
 49 295 l 1
 49 395 l 1
 59 395 l 1
 59 295 l 1
43 451 m 0
 43 398.375 49 339.531 58.8906 296.047 c 0
 59.0938 295.156 58.8125 295.609 58.9531 295.578 c 0
 60.9062 295.141 65.1406 295 79 295 c 0
 81.2188 295 96.0312 294.703 100.031 295.688 c 0
 100.078 295.688 99.9062 295.094 100.109 296.031 c 0
 112.016 350.672 118 406.406 118 455 c 0
 118 555 l 1
 128 555 l 1
 128 455 l 0
 128 405.594 121.906 349.344 109.891 293.969 c 0
 109.094 290.312 107.828 287.219 102.547 285.922 c 0
 98.0625 284.828 88.4219 285 79 285 c 0
 69.7969 285 61.0469 284.875 56.7812 285.828 c 0
 51.3438 287.031 49.9688 290.172 49.1094 293.953 c 0
 39 338.469 33 397.625 33 451 c 0
 33 551 l 1
 43 551 l 1
 43 451 l 0
EndSplineSet
EndChar

StartChar: uni0028
Encoding: 40 40 9
Width: 274
Flags: W
HStem: -293 5<216.406 219 234 244> -198 5<211.594 219 234 244>
VStem: 49 10<23.7472 194> 139 10<174.344 216> 185 10<-263 -166.125> 209 10<-288 -198> 234 10<-293 -193> 243 10<458 460.938 476.594 558> 254 10<473.328 558 572.172 575>
LayerCount: 2
Fore
SplineSet
189 558 m 2xfc80
 211.5 588 l 1
 273.016 588 l 1
 263.125 572.172 l 2
 260.672 568.922 255.422 560.109 252.031 555.062 c 0
 183.047 452 153.047 353.172 149 215.828 c 0
 148.797 209.125 148.609 202.328 148.609 195.484 c 0
 148.609 69.4219 191.359 -75.0625 251.109 -164.141 c 0
 259.938 -177.328 265.438 -185.344 266.359 -187.359 c 0
 266.625 -187.953 266.812 -188.656 266.969 -189.453 c 0
 267.141 -190.234 267.453 -190.922 267.406 -191.047 c 0
 266.719 -193.266 266.891 -196.25 261.125 -197.328 c 0
 256.828 -198.141 245.656 -198 239 -198 c 2
 211.594 -198 l 1
 186.094 -166.125 l 2
 92.7188 -49.3906 49.5156 63.8906 49 193.984 c 0
 48.5 321.078 88.8438 424.469 189 558 c 2xfc80
253 458 m 1xfd80
 243 458 l 1
 243 558 l 1
 253 558 l 1
 253 458 l 1xfd80
149 174.344 m 1
 139 174.344 l 1
 139 216 l 1
 149 216 l 1
 149 174.344 l 1
244 -293 m 1xfe80
 234 -293 l 1
 234 -193 l 1
 244 -193 l 1
 244 -293 l 1xfe80
219 -293 m 1
 209 -293 l 1
 209 -193 l 1
 219 -193 l 1
 219 -293 l 1
195 -263 m 1
 185 -263 l 1
 185 -163 l 1
 195 -163 l 1
 195 -263 l 1
59 94.0156 m 0
 59.7812 -33.8906 101.406 -144.5 193.906 -259.875 c 2
 216.406 -288 l 1
 239 -288 l 2
 253.203 -288 255.75 -288.078 259.203 -287.438 c 0
 257.406 -291.047 l 1
 257.406 -191.047 l 1
 267.406 -191.047 l 1
 267.406 -291.047 l 0
 267.406 -292.297 266.891 -296.25 261.125 -297.328 c 0
 256.828 -298.141 245.656 -298 239 -298 c 0
 214 -298 l 2
 211.594 -298 l 1
 210.094 -296.125 l 2
 202.094 -286.125 194.109 -276.125 186.094 -266.125 c 0
 92.5938 -149.484 49.7969 -36.1094 49 93.9844 c 0
 48.7969 127.312 49 160.672 49 194 c 1
 59 194 l 1
 59 150.672 58.7969 127.359 59 94.0156 c 0
243.969 460.938 m 0
 246.781 465.156 250.766 471.875 254 476.594 c 1
 254 575 l 1
 264 575 l 1
 264 475 l 2
 264 473.328 l 1
 263 472 l 2
 260.562 468.75 255.422 460.109 252.031 455.062 c 0
 188.547 360.297 158.172 269.094 150.484 148.234 c 1
 140.5 148.875 l 1
 148.281 271.094 179.75 364.938 243.969 460.938 c 0
EndSplineSet
Substitution2: "'rtla' Right to Left Alternates lookup 0 subtable" uni0029
EndChar

StartChar: uni0029
Encoding: 41 41 10
Width: 273
Flags: HW
HStem: -293 5<29 39 54 56.4375> -198 5<29 39 54 61.5625> 578 10<18.0469 55.625>
VStem: 5 10<-290.438 -192 569 577.875> 13 10<469 482 566.156 569> 13 2<482 566.156> 29 10<-293 -193> 54 10<-293 -193> 80 10<-257 -157> 213.578 10<29.3545 256.841>
LayerCount: 2
Fore
SplineSet
5 582 m 0xf3c0
 7.5625 584.953 5.46875 586.578 10.2969 587.406 c 0
 14.5469 588.125 25.6875 588 34 588 c 2
 60.375 588 l 1
 83.875 559.172 l 2
 134.719 496.766 158.422 458.219 182.625 398.891 c 0
 207.25 338.547 223.578 255.969 223.578 194.047 c 0
 223.578 187.328 223.375 180.859 222.984 174.688 c 0
 214.938 45.9062 180.938 -38.7656 89.0156 -159.969 c 1
 61.5625 -198 l 1
 34 -198 l 2
 19.1875 -198 13.3906 -197.922 10.2969 -197.406 c 0
 5.46875 -196.578 4.85938 -193.062 5 -192 c 0
 5.15625 -190.766 4.96875 -190.922 5.54688 -189.562 c 0
 7.0625 -185.906 14.8281 -172.828 20.75 -163.359 c 0
 57.5625 -104.516 78.5156 -61.9844 91.2344 -22.4688 c 0
 113.812 47.625 124.609 121.422 124.609 194.359 c 0
 124.609 331.031 86.1406 464.781 13.8906 566.156 c 0
 12.9531 567.453 6.6875 576.719 5.51562 579.594 c 0
 5.15625 580.484 4.53125 581.453 5 582 c 0xf3c0
23 469 m 1xebc0
 13 469 l 1
 13 569 l 1
 23 569 l 1
 23 469 l 1xebc0
90 -257 m 1
 80 -257 l 1
 80 -157 l 1
 90 -157 l 1
 90 -257 l 1
64 -293 m 1
 54 -293 l 1
 54 -193 l 1
 64 -193 l 1
 64 -293 l 1
39 -293 m 1
 29 -293 l 1
 29 -193 l 1
 39 -193 l 1
 39 -293 l 1
15 -292 m 0xe7c0
 15 -292.078 11.1406 -287.406 11.9688 -287.547 c 0
 13.9688 -287.875 21.4375 -288 34 -288 c 2
 56.4375 -288 l 1
 80.9844 -254.031 l 1
 171.078 -135.219 205.047 -52.0781 213 75.1562 c 1
 213 175 l 1
 223 175 l 1
 223 74.8438 l 1
 214.953 -53.9219 180.688 -138.578 89.0156 -259.969 c 0
 80.0938 -271.781 71.7188 -283.922 63.0469 -295.922 c 2
 61.5625 -298 l 1
 59 -298 l 2
 34 -298 l 0
 25.6875 -298 14.5469 -298.125 10.2969 -297.406 c 0
 5.46875 -296.578 7.9375 -294.594 5 -292 c 1
 5 -192 l 1
 15 -192 l 1xf3c0
 15 -225.328 14.9375 -258.672 15 -292 c 0xe7c0
15 482 m 1xe7c0
 14.8281 482.594 14.6719 483.609 14.7656 483.391 c 0
 15.2812 482.156 18.9219 476.328 22.1094 471.844 c 0
 86.7656 380.922 124.656 265.375 132.906 144.688 c 1
 122.922 144 l 1
 114.797 263.062 77.3594 377.094 13.8906 466.156 c 0
 12.9531 467.453 6.6875 476.719 5.51562 479.594 c 0
 5.42188 479.812 5 481.281 5 482 c 0
 4.8125 515.328 5 548.672 5 582 c 1xf3c0
 15 582 l 1
 15 482 l 1xe7c0
EndSplineSet
Substitution2: "'rtla' Right to Left Alternates lookup 0 subtable" uni0028
EndChar

StartChar: uni002A
Encoding: 42 42 11
Width: 352
Flags: HW
HStem: 126.641 10<167.776 191.122> 132 4.64062<176.938 178> 207.391 10<292.229 323.838> 213 4.875<40 42.8906> 226.641 5.35938<178.341 194.609> 307.391 10<28.1684 43.1875 304.109 323.841> 391.797 3.20312<197.562 198> 418.844 5.15625<203 213> 450.266 4.95312<156.484 157.453> 530.625 10<31.9857 57.8955 295.82 323.319> 558.312 20G<143.016 153.016> 608.5 10<168.75 191.723>
VStem: 9.3125 10<225.974 354.844 494.407 516.376> 27 10<378.894 479> 40 10<213 217.875 217.969 313> 89 10<404.719 452> 114 10<266 366> 142.641 10<146.25 298.456 418.031 429.928 461.914 596.057> 150 10<324.5 335.016 387.281 388.281 393.75 399 450.266 453.875 514.031 515> 168 10<132 226.641 227.047 232> 190 10<352.594 388.25 390.594 395 452.031 457.672 458.984 505> 198.547 10<144.959 321.581 418.844 426.482 525.177 600.828> 229 10<266 366> 258 10<394.031 452> 294 10<214 314> 332.906 10<226.981 356.38 389.292 490 490.133 520.728>
LayerCount: 2
Fore
SplineSet
165.594 615.812 m 0x0fffd7c0
 170.516 617.203 175.031 618.5 179.469 618.5 c 0
 187.719 618.5 198.453 615.453 206.391 600.375 c 0
 210.219 593.125 211.031 585.781 211.031 579.531 c 0
 211.031 564.922 207.344 543.109 199.906 504.031 c 2
 190.719 458.984 l 1
 193.812 457.672 l 2
 197.297 456.562 198.969 455.875 199.828 455.453 c 0
 203.234 457.953 211.422 465.047 223.562 476.641 c 0
 274.984 525.75 290.969 540 311 540 c 0
 330.031 540 342.578 523.469 342.578 505.578 c 0
 342.578 499.734 341.344 493.578 338.5 487.812 c 0
 330.844 472.312 328.188 470.188 264.672 447.297 c 0
 264.094 447.078 221.406 432.516 215.156 428.219 c 0
 213.688 427.203 213.391 426.812 213.141 424.859 c 0
 213.078 424.453 213.031 423.984 212.969 423.453 c 0
 212.812 422 212.734 421.359 212.75 420.844 c 0
 212.781 419.672 213.266 419.531 214.641 418.672 c 0
 218.688 416.141 225.938 413.422 251.766 403.688 c 0
 294.469 387.578 321.844 376.188 329.25 369.797 c 0
 338.641 361.703 342.906 351.109 342.906 341.203 c 0
 342.906 323.531 329.219 307.391 309.375 307.391 c 0
 305.594 307.391 301.531 307.906 297.484 309.234 c 0
 281.156 314.578 268.641 324.672 230.484 362.438 c 0
 211.562 381.188 203.938 388.438 199.031 391.234 c 0
 198.109 391.75 198.469 391.828 197.734 391.797 c 0
 197.562 391.797 197.547 391.75 197.391 391.688 c 0
 197 391.516 196.484 391.234 195.359 390.594 c 2
 190.688 388.25 l 1
 199.906 343.969 l 2
 205.578 313.516 208.547 290.031 208.547 272.281 c 0
 208.547 240.922 198.719 226.641 178.422 226.641 c 0
 176.469 226.641 174.406 226.75 172.344 227.047 c 0
 151.375 230 142.641 243.844 142.641 269.031 c 0
 142.641 285.094 146.094 306.312 152.109 335.016 c 0
 156.297 355.016 161.844 383.188 163.172 387.281 c 0
 163.094 387.547 162.797 387.859 162.562 388.281 c 0
 161.078 390.984 158.266 393.047 156.234 393.75 c 1
 150.266 388.734 128.938 368.281 122.391 362.328 c 0
 84.0938 327.5 62.125 310.344 45.5625 308.031 c 0
 44.4688 307.875 43.1875 307.875 42.1094 307.875 c 0
 23.2969 307.875 9.3125 322.312 9.3125 339.672 c 0
 9.3125 344.672 10.5312 350.312 13.5469 356.281 c 0
 22.875 374.703 41.5156 383.812 101.375 404.719 c 0
 105.875 406.297 132.859 414.906 139.797 419.031 c 0
 141.656 420.141 141.969 419.859 142 423.094 c 0
 142 424 l 1
 142 424.766 l 0
 141.984 428.062 141.625 427.656 139.828 428.812 c 0
 135.219 431.734 126.484 434.672 92.2656 447.312 c 0
 64.0625 457.719 36.8125 468.938 28.9219 475.062 c 0
 17.7188 483.75 11.0781 493.891 11.0781 505.172 c 0
 11.0781 514.047 15.0469 522.906 22.4062 530.484 c 0
 31.625 539.953 39.3281 540.625 43.5312 540.625 c 0
 59.125 540.625 78.0312 526.844 121.422 485.641 c 0
 142.609 465.531 151.156 458.109 156.125 455.641 c 0
 156.938 455.234 156.484 455.188 157.281 455.219 c 0
 157.453 455.219 157.484 455.266 157.641 455.344 c 0
 158.031 455.5 158.312 455.672 159.438 456.297 c 0
 161.438 457.406 162.438 457.828 162.75 458.031 c 0
 162.844 458.516 162.922 458.047 162.922 459.25 c 0
 162.922 464.188 161.094 473.375 153.094 514.031 c 0
 146.828 545.859 143.016 565.453 143.016 578.312 c 0
 143.016 587.969 144.703 594.312 149.734 602.609 c 0
 153.609 608.984 158.766 613.875 165.594 615.812 c 0x0fffd7c0
200 452.031 m 1x0fff9bc0
 190 452.031 l 1
 190 505 l 1
 200 505 l 1
 200 452.031 l 1x0fff9bc0
268 394.031 m 1
 258 394.031 l 1
 258 452 l 1
 268 452 l 1
 268 394.031 l 1
213 418.844 m 1
 203 418.844 l 1
 203 424 l 1
 213 424 l 1
 213 418.844 l 1
304 214 m 1
 294 214 l 1
 294 314 l 1
 304 314 l 1
 304 214 l 1
239 266 m 1
 229 266 l 1
 229 366 l 1
 239 366 l 1
 239 266 l 1
198 352.594 m 1
 188 352.594 l 1
 188 395 l 1
 198 395 l 1
 198 352.594 l 1
178 132 m 1x4fff93c0
 168 132 l 1
 168 232 l 1
 178 232 l 1
 178 132 l 1x4fff93c0
160 324.5 m 1x0fffb3c0
 150 324.5 l 1
 150 399 l 1
 160 399 l 1
 160 324.5 l 1x0fffb3c0
124 266 m 1
 114 266 l 1
 114 366 l 1
 124 366 l 1
 124 266 l 1
50 213 m 1x1fff93c0
 40 213 l 1
 40 313 l 1
 50 313 l 1
 50 213 l 1x1fff93c0
99 396.828 m 1
 89 396.828 l 1
 89 452 l 1
 99 452 l 1
 99 396.828 l 1
163 450.266 m 1
 153 450.266 l 1
 153 515 l 1
 163 515 l 1
 163 450.266 l 1
153.016 478.312 m 0
 153.016 472.609 153.891 464.938 155.766 453.875 c 1
 145.906 452.203 l 1
 144 463.5 143.016 471.609 143.016 478.312 c 0
 143.016 578.312 l 1
 153.016 578.312 l 1
 153.016 478.312 l 0
37 381.562 m 1
 38.1875 380.812 39.7812 379.922 41.9062 378.844 c 1
 37.3906 369.922 l 1
 32.9062 372.203 30.3281 373.891 28.7969 375.156 c 2
 27 376.656 l 1
 27 379 l 2
 27 479 l 1
 37 479 l 1
 37 381.562 l 1
19.3125 239.672 m 0
 19.3125 227.719 28.4844 217.875 42.1094 217.875 c 0
 42.8906 217.875 43.6094 217.844 44.4375 217.969 c 0
 55.75 219.547 71.8281 230.172 115.625 269.688 c 1
 146.328 298.359 l 1
 153.156 291.062 l 1
 122.375 262.312 l 2
 83.9531 227.641 62.125 210.344 45.5625 208.031 c 0
 44.4844 207.875 43.1562 207.875 42.1094 207.875 c 0
 23.2969 207.875 9.3125 222.312 9.3125 239.672 c 0
 9.3125 339.672 l 1
 19.3125 339.672 l 1
 19.3125 239.672 l 0
152.641 169.031 m 0x8fffd7c0
 152.641 147.891 158.516 139.094 173.656 136.953 c 0
 175.375 136.719 176.938 136.641 178.422 136.641 c 0
 190.5 136.641 198.547 143.766 198.547 172.281 c 0
 198.547 272.281 l 1
 208.547 272.281 l 1
 208.547 172.281 l 0
 208.547 140.922 198.75 126.641 178.422 126.641 c 0
 176.469 126.641 174.406 126.75 172.344 127.047 c 0
 151.375 130 142.641 143.844 142.641 169.031 c 0
 142.641 269.031 l 1
 152.641 269.031 l 1
 152.641 169.031 l 0x8fffd7c0
237.516 269.562 m 0
 275.719 231.672 286.797 223.266 300.516 218.766 c 0
 303.688 217.719 306.625 217.391 309.375 217.391 c 0
 323.484 217.391 332.906 228.516 332.906 241.203 c 0
 332.906 341.203 l 1
 342.906 341.203 l 1
 342.906 241.203 l 0
 342.906 223.531 329.219 207.391 309.375 207.391 c 0x2fff93c0
 305.594 207.391 301.531 207.906 297.484 209.234 c 0
 281.156 214.578 268.641 224.688 230.484 262.438 c 0
 209.453 283.25 203.531 288.406 199.562 290.906 c 1
 204.906 299.375 l 1
 210.922 295.562 222.406 284.547 237.516 269.562 c 0
329 391.188 m 1
 329 490 l 1
 339 490 l 1
 339 390 l 2
 339 388.812 l 1
 338.469 387.766 l 2
 334.797 380.422 332.406 374.984 317.531 367.766 c 1
 313.156 376.766 l 1
 324.109 382.078 326.391 385.984 329 391.188 c 1
EndSplineSet
EndChar

StartChar: uni002B
Encoding: 43 43 12
Width: 494
Flags: HW
HStem: -3 5<243 253> 92 10<217 280> 92 5<207 217 243 253 280 290> 157 10<52 212 371 443> 257 10<52 207 290 443> 257 5<42 52 125 135 361 371 443 453> 330 10<52 207 290 443> 493 10<217 280>
VStem: 42 10<167 257 267 330> 125 10<162 262> 207 10<2 92 102 257 340 493> 243 10<-3 97> 280 10<2 97 102 257 340 493> 361 10<167 262> 443 10<167 262 267 330>
LayerCount: 2
Fore
SplineSet
207 340 m 1
 207 503 l 1
 290 503 l 1
 290 340 l 1
 453 340 l 1
 453 257 l 1x97fe
 290 257 l 1
 290 92 l 1
 207 92 l 1
 207 257 l 1xbbfe
 42 257 l 1x97fe
 42 340 l 1
 207 340 l 1
253 -3 m 1
 243 -3 l 1
 243 97 l 1
 253 97 l 1xb3fe
 253 -3 l 1
135 162 m 1
 125 162 l 1
 125 262 l 1
 135 262 l 1x97fe
 135 162 l 1
52 167 m 1
 212 167 l 1
 212 157 l 1
 130 157 l 2
 47 157 l 2
 42 157 l 1
 42 162 l 2
 42 262 l 1
 52 262 l 1
 52 167 l 1
217 2 m 1
 280 2 l 1
 280 97 l 1
 290 97 l 1
 290 -3 l 2
 290 -8 l 1
 285 -8 l 2
 248 -8 l 0
 207 -8 l 1
 207 -3 l 2
 207 97 l 1
 217 97 l 1xb3fe
 217 2 l 1
290 162 m 1
 280 162 l 1
 280 262 l 1
 290 262 l 1x97fe
 290 162 l 1
371 167 m 1
 443 167 l 1
 443 262 l 1
 453 262 l 1
 453 162 l 2
 453 157 l 1
 448 157 l 2
 366 157 l 2
 361 157 l 1
 361 162 l 2
 361 262 l 1
 371 262 l 1
 371 167 l 1
EndSplineSet
EndChar

StartChar: uni002C
Encoding: 44 44 13
Width: 184
Flags: HW
HStem: -106 5<35.8281 45> 104.75 10<62.4532 101.777>
VStem: 27.0938 10<-67.5964 78.5737> 35 10<-194.672 -106> 62 10<-41.125 2> 68.625 3.375<-8.01562 -3.84375> 100 10<-161 -61> 134.938 10<-107.302 61.4915>
LayerCount: 2
Fore
SplineSet
27.0938 55.4844 m 0xe7
 27.0938 80.5312 41.0312 106.016 68.7969 112.844 c 0
 73.8594 114.094 78.75 114.75 83.4688 114.75 c 0
 120.344 114.75 144.938 76.1719 144.938 27.9062 c 0
 144.938 -4.29688 133.812 -39.25 108.531 -64.5312 c 0
 92.6875 -80.375 53.7031 -106 40 -106 c 0
 35.8281 -106 33.0312 -102.688 33.0312 -97.7188 c 0
 33.0312 -89.8438 39.5625 -75.1875 46.0312 -66.9531 c 0
 59.4375 -49.9219 62.2188 -44.0312 66.0781 -23.1094 c 0
 68.1562 -11.8906 68.7031 -8.01562 68.625 -5.40625 c 0
 68.5781 -3.84375 68.5312 -4.28125 68.4375 -4.01562 c 0
 68.3125 -3.90625 67.7812 -3.625 65.25 -2.6875 c 0
 39.5938 6.9375 27.0938 31.6719 27.0938 55.4844 c 0xe7
72 -41.125 m 1xcb
 62 -41.125 l 1
 62 2 l 1
 72 2 l 1
 72 -41.125 l 1xcb
110 -161 m 1
 100 -161 l 1
 100 -61 l 1
 110 -61 l 1
 110 -161 l 1
45 -194.672 m 1xd3
 57.2812 -190 85.2969 -173.641 101.469 -157.469 c 0
 124.453 -134.469 134.938 -102.062 134.938 -72.0938 c 0
 134.938 27.9062 l 1
 144.938 27.9062 l 1
 144.938 -72.0938 l 0
 144.938 -104.297 133.812 -139.25 108.531 -164.531 c 0
 92.6875 -180.375 53.7031 -206 40 -206 c 2
 35 -206 l 1
 35 -201 l 2
 35 -101 l 1
 45 -101 l 1
 45 -194.672 l 1xd3
37.0938 -44.5156 m 0xe3
 37.0938 -56.3125 40.6562 -68.1719 47.6406 -77.5156 c 1
 39.6406 -83.5 l 1
 31.1875 -72.2188 27.0938 -58.2812 27.0938 -44.5156 c 0
 27.0938 55.4844 l 1
 37.0938 55.4844 l 1
 37.0938 -44.5156 l 0xe3
EndSplineSet
EndChar

StartChar: uni002D
Encoding: 45 45 14
Width: 274
Flags: HW
HStem: 46 5<132 142> 141 10<39 236> 141 5<29 39 132 142 236 246> 224 10<39 236>
VStem: 29 10<51 141 151 224> 132 10<46 146> 236 10<51 146 151 224>
LayerCount: 2
Fore
SplineSet
29 141 m 1xbe
 29 234 l 1
 246 234 l 1
 246 141 l 1
 29 141 l 1xbe
142 46 m 1
 132 46 l 1
 132 146 l 1
 142 146 l 1
 142 46 l 1
39 51 m 1
 236 51 l 1
 236 146 l 1
 246 146 l 1
 246 46 l 2
 246 41 l 1
 241 41 l 2
 137 41 l 0
 34 41 l 2
 29 41 l 1
 29 46 l 2
 29 146 l 1
 39 146 l 1
 39 51 l 1
EndSplineSet
EndChar

StartChar: uni002E
Encoding: 46 46 15
Width: 187
Flags: HW
HStem: -111.406 10<71.1564 114.108> -11.4062 10<71.0346 114.236> 88.1094 10<72.6372 111.549>
VStem: 40 10<-74.4531 27 27.099 67.4125> 135 10<-76.9688 24 25.1009 67.9581>
LayerCount: 2
Fore
SplineSet
37.6406 42.875 m 0
 37.6406 65.7188 51.3281 86.0938 73.2188 94.6719 c 0
 79.5312 97.1562 86.0938 98.1094 92.3281 98.1094 c 0
 122.984 98.1094 148.938 72.4375 148.938 42.6094 c 0
 148.938 35.8281 147.453 28.9531 144.609 22.0625 c 0
 135.359 -0.40625 113.828 -11.4062 92.7656 -11.4062 c 0
 70.4375 -11.4062 47.6094 1 40.2031 25.5625 c 0
 38.4531 31.375 37.6406 37.2188 37.6406 42.875 c 0
50 -72.2344 m 1
 56.1719 -91.5 74.0938 -101.406 92.7656 -101.406 c 0
 110.281 -101.406 127.422 -92.6562 135 -75 c 1
 135 24 l 1
 145 24 l 1
 145 -76 l 2
 145 -76.9688 l 1
 144.641 -77.875 l 2
 135.516 -100.406 113.828 -111.406 92.7656 -111.406 c 0
 70.4375 -111.406 47.6406 -99 40.2188 -74.4531 c 2
 40 -73.7344 l 1
 40 -73 l 2
 40 27 l 1
 50 27 l 1
 50 -72.2344 l 1
EndSplineSet
EndChar

StartChar: uni002F
Encoding: 47 47 16
Width: 237
Flags: HW
LayerCount: 2
Fore
SplineSet
160.172 579.312 m 0
 160.422 580.172 160.984 582.984 162.25 585.047 c 0
 162.891 586.094 163.828 587.125 164.922 587.906 c 0
 169.594 591.234 178.156 591.016 198 591 c 0
 209.5 590.984 221.281 591 226.766 589.656 c 0
 232.859 588.156 233.156 584.203 233.156 582.828 c 0
 233.156 582.578 232.859 580.859 232.781 580.547 c 0
 226.25 556.672 71.4062 1.92188 68.875 -8.07812 c 0
 68.8438 -8.23438 69 -7 69 -7 c 1
 66.4219 -9.34375 68.6406 -11.4375 64.0312 -12.2969 c 0
 59.3438 -13.1719 44.625 -13 33 -13 c 0
 11.4531 -13 7.26562 -12.9062 3.29688 -11.9062 c 0
 0.265625 -11.1562 -3.09375 -9.14062 -3 -5 c 0
 -2.98438 -4.07812 -3.01562 -4.42188 -2.8125 -3.60938 c 0
 0.421875 9.96875 155.172 562.172 160.172 579.312 c 0
69 -107 m 1
 59 -107 l 1
 59 -7 l 1
 69 -7 l 1
 69 -107 l 1
38 -108 m 1
 28 -108 l 1
 28 -8 l 1
 38 -8 l 1
 38 -108 l 1
7 -105 m 0
 7 -105 4.8125 -101.938 5.75 -102.172 c 0
 7.96875 -102.734 14.2031 -103 33 -103 c 0
 48.7188 -103 58.8281 -103.047 62.1875 -102.422 c 0
 62.4219 -102.375 59 -107 59 -107 c 0
 59.1094 -106.422 58.9844 -106.453 59.1875 -105.641 c 0
 61.8125 -95.2031 214.688 452.391 223 482.672 c 1
 223 582 l 1
 233 582 l 1
 233 482 l 2
 233 481.328 l 1
 232.828 480.688 l 2
 226.875 458.891 71.375 -98.1719 68.875 -108.078 c 0
 68.8438 -108.25 69 -107 69 -107 c 0
 69 -108.062 68.6406 -111.438 64.0312 -112.297 c 0
 61.0469 -112.844 52.0156 -113 33 -113 c 0
 19.5 -113 8.5 -113.219 3.29688 -111.906 c 0
 -2.75 -110.406 -2.98438 -106.594 -3 -105 c 0
 -3.28125 -71.6719 -3 -38.3281 -3 -5 c 1
 7 -5 l 1
 7 -105 l 0
EndSplineSet
EndChar

StartChar: uni0030
Encoding: 48 48 17
Width: 421
Flags: HW
LayerCount: 2
Fore
SplineSet
191.359 586.953 m 0
 197.984 587.812 204.531 588.219 210.969 588.219 c 0
 322.625 588.219 400.984 464 401 291.016 c 0
 401 289.594 401.016 288.203 401.016 286.781 c 0
 401.016 139.031 348.719 32.1875 255.766 -2.67188 c 0
 241.906 -7.875 227.328 -10.4688 212.5 -10.4688 c 0
 154.312 -10.4688 93.0312 27.4219 63.5312 85.75 c 0
 34.875 142.406 20.875 214.734 20.875 286.703 c 0
 20.875 358.031 34.9844 428.875 62.5312 484.219 c 0
 88.1875 535.797 142.906 580.656 191.359 586.953 c 0
301.047 357.328 m 0
 291.078 431.812 269.156 475.734 235.734 492.547 c 0
 227.516 496.672 219.609 498.172 212.703 498.172 c 0
 190.391 498.172 166.375 483.328 149.219 456.312 c 0
 132 429.188 114.906 371.156 114.906 287.594 c 0
 114.906 245.719 119.266 202.969 128.844 166.25 c 0
 143.875 108.578 177.125 77.6094 209.688 77.6094 c 0
 225.469 77.6094 241.906 84.6094 257.422 100.5 c 0
 287.219 130.969 306.094 199.547 306.094 282.672 c 0
 306.094 306.891 304.438 332.031 301.047 357.328 c 0
311 258 m 1
 301 258 l 1
 301 358 l 1
 311 358 l 1
 311 258 l 1
243 397 m 1
 233 397 l 1
 233 497 l 1
 243 497 l 1
 243 397 l 1
150 359 m 1
 140 359 l 1
 140 459 l 1
 150 459 l 1
 150 359 l 1
259 -98 m 1
 249 -98 l 1
 249 2 l 1
 259 2 l 1
 259 -98 l 1
73 -12 m 1
 63 -12 l 1
 63 88 l 1
 73 88 l 1
 73 -12 l 1
30.875 186.703 m 0
 30.875 116.047 44.75 45.0469 72.4688 -9.75 c 0
 99.2969 -62.7969 156.484 -100.469 212.5 -100.469 c 0
 226.219 -100.469 239.609 -98.0625 252.234 -93.3281 c 0
 339.469 -60.6094 391.016 40.9844 391.016 186.781 c 0
 391.016 286.781 l 1
 401.016 286.781 l 1
 401.016 186.781 l 0
 401.016 39.0312 348.719 -67.8125 255.766 -102.672 c 0
 241.906 -107.875 227.328 -110.469 212.5 -110.469 c 0
 154.312 -110.469 93.0312 -72.5781 63.5312 -14.25 c 0
 34.875 42.4062 20.875 114.734 20.875 186.703 c 0
 20.875 286.703 l 1
 30.875 286.703 l 1
 30.875 186.703 l 0
140.781 361.688 m 0
 159.266 390.781 185.891 408.172 212.703 408.172 c 0
 222.141 408.172 231.438 405.891 240.266 401.453 c 0
 285.703 378.625 303.172 316.922 310.953 258.672 c 0
 312.062 250.391 313 242.156 313.75 233.938 c 1
 303.797 233.031 l 1
 303.062 241.094 302.125 249.203 301.047 257.328 c 0
 291.094 331.812 269.156 375.734 235.734 392.547 c 0
 227.516 396.672 219.609 398.172 212.703 398.172 c 0
 190.391 398.172 166.359 383.344 149.219 356.312 c 0
 136.594 336.406 122.5 297.984 117.062 237 c 1
 107.094 237.891 l 1
 108.25 250.844 114.5 320.328 140.781 361.688 c 0
EndSplineSet
EndChar

StartChar: uni0031
Encoding: 49 49 18
Width: 428
Flags: HW
LayerCount: 2
Fore
SplineSet
168 -5 m 1
 168 582 l 1
 262 582 l 1
 262 -5 l 1
 168 -5 l 1
220 -100 m 1
 210 -100 l 1
 210 0 l 1
 220 0 l 1
 220 -100 l 1
178 -95 m 1
 252 -95 l 1
 252 0 l 1
 262 0 l 1
 262 -100 l 2
 262 -105 l 1
 215 -105 l 0
 168 -105 l 1
 168 -100 l 2
 168 0 l 1
 178 0 l 1
 178 -95 l 1
EndSplineSet
EndChar

StartChar: uni0032
Encoding: 50 50 19
Width: 423
Flags: HW
LayerCount: 2
Fore
SplineSet
144.953 584.891 m 0
 155.953 587.156 167.203 588.516 178.672 588.516 c 0
 234.578 588.516 293.672 561.062 323.125 517.812 c 0
 347 482.781 359.453 446.031 359.453 405.969 c 0
 359.453 324.656 308.594 230.234 205.812 106.781 c 1
 188.875 87 l 1
 399 87 l 1
 399 -5 l 1
 212 -5 l 2
 122.672 -5 43.6719 -5.21875 30.3906 -2.3125 c 0
 24.4531 -1 23.9062 2.75 24 4 c 0
 24.0625 4.90625 23.9688 5.3125 24.7188 6.9375 c 0
 27.7188 13.4844 44.7656 33.3438 47.1875 36.2344 c 0
 129.922 134.859 223.969 267.266 247.453 319.062 c 0
 257.062 340.281 264 371.016 264 392 c 0
 264 457.766 222.203 494.609 171.141 494.609 c 0
 134.297 494.609 92 475.891 57.9375 433.906 c 0
 51.3906 425.844 45.625 419.562 45.5312 419.469 c 2
 42 418 l 1
 39.4375 420.703 37.6406 418.344 36.7656 422.906 c 0
 35.625 428.734 35 455.141 35 476 c 2
 35 532.719 l 1
 54.25 545.172 l 2
 84.6562 565.438 114.234 578.531 144.953 584.891 c 0
207 82 m 1
 197 82 l 1
 197 110 l 1
 207 110 l 1
 207 82 l 1
217 -100 m 1
 207 -100 l 1
 207 0 l 1
 217 0 l 1
 217 -100 l 1
59 337 m 1
 49 337 l 1
 49 437 l 1
 59 437 l 1
 59 337 l 1
47 336.156 m 1
 50.0625 340.094 l 1
 86.0312 383.75 130.828 404.609 171.141 404.609 c 0
 212.391 404.609 249 382.438 265.125 341.844 c 1
 255.828 338.156 l 1
 241.203 375 208.891 394.609 171.141 394.609 c 0
 134.297 394.609 92 375.891 57.9375 333.906 c 0
 51.3906 325.844 45.625 319.562 45.5312 319.469 c 2
 41.2656 316.234 l 1
 37 323 l 1
 37 423 l 1
 47 423 l 1
 47 336.156 l 1
34 -96 m 0
 32.5312 -92.5312 l 0
 39.5312 -94.0781 59.2031 -95 212 -95 c 2
 389 -95 l 1
 389 0 l 1
 399 0 l 1
 399 -100 l 2
 399 -105 l 1
 394 -105 l 2
 212 -105 l 0
 94.0156 -105 40.7344 -104.578 30.3906 -102.312 c 0
 26.7656 -101.516 24.0312 -100.078 24 -96 c 0
 23.7031 -62.6719 24 -29.3281 24 4 c 1
 34 4 l 1
 34 -96 l 0
349.453 305.969 m 0
 349.453 405.969 l 1
 359.453 405.969 l 1
 359.453 305.969 l 0
 359.453 241.234 327.5 168.625 262.406 79.0625 c 1
 254.312 84.9375 l 1
 318.859 173.75 349.453 244.672 349.453 305.969 c 0
EndSplineSet
EndChar

StartChar: uni0033
Encoding: 51 51 20
Width: 422
Flags: HW
LayerCount: 2
Fore
SplineSet
150.469 587.969 m 0
 159.062 588.828 167.672 589.5 176.406 589.5 c 0
 228.188 589.5 280.688 572.047 310.516 542.562 c 0
 339.469 513.938 355.078 468.234 355.078 424.25 c 0
 355.078 400.234 350.438 376.688 340.469 356.766 c 0
 334.688 345.188 310.203 318.344 293.656 307.766 c 0
 292.266 306.875 290.156 305.609 288.531 304.516 c 1
 291.828 302.547 297.312 299.953 298.266 299.453 c 0
 342.344 276.672 363.359 225.516 363.359 172.5 c 0
 363.359 114.031 337.828 53.8906 289.781 21.8438 c 0
 257.141 0.078125 215.312 -11.125 172.344 -11.125 c 0
 134.672 -11.125 96.1562 -2.64062 62.6562 14.5781 c 2
 49 22.0312 l 1
 49 125.094 l 1
 78.25 110.469 l 2
 115.625 91.7812 150.875 82.3125 180.266 82.3125 c 0
 212.312 82.3125 236.891 93.0938 250.859 113.797 c 0
 261.031 128.891 265.984 146.594 265.984 164.125 c 0
 265.984 190.516 255 216.453 234.031 231.969 c 0
 220.594 241.922 217.469 243.016 179.188 249.062 c 2
 146 254.781 l 1
 146 340.5 l 1
 169.562 342.984 l 1
 222.734 346.781 250.484 365.234 259.109 406.062 c 0
 260.266 411.531 260.969 417.016 260.969 422.422 c 0
 260.969 449.578 245.953 475.453 221.625 488.594 c 0
 206.188 496.938 188.688 500.891 169.094 500.891 c 0
 145.406 500.891 118.625 494.875 88.9844 482.406 c 0
 85.3438 480.875 74.4531 476.141 70.6562 475.219 c 0
 70 475.062 69.3438 474.641 69 475 c 0
 65.5781 478.656 64.5938 475.359 63.6562 480.125 c 0
 62.8281 484.297 62.5938 495.141 62.5938 501.609 c 0
 62.5938 507.109 62.7031 513.297 63 520.109 c 2
 63 563.391 l 1
 81.0625 570.609 l 2
 99.7812 578.938 127.828 585.734 150.469 587.969 c 0
341 259 m 1
 331 259 l 1
 331 359 l 1
 341 359 l 1
 341 259 l 1
296 297.516 m 1
 286 297.516 l 1
 286 312 l 1
 296 312 l 1
 296 297.516 l 1
292 -74 m 1
 282 -74 l 1
 282 26 l 1
 292 26 l 1
 292 -74 l 1
70 -81 m 1
 60 -81 l 1
 60 19 l 1
 70 19 l 1
 70 -81 l 1
242 136 m 1
 232 136 l 1
 232 236 l 1
 242 236 l 1
 242 136 l 1
185 154 m 1
 175 154 l 1
 175 254 l 1
 185 254 l 1
 185 154 l 1
229 393 m 1
 219 393 l 1
 219 493 l 1
 229 493 l 1
 229 393 l 1
92 387 m 1
 82 387 l 1
 82 487 l 1
 92 487 l 1
 92 387 l 1
74 386.969 m 1
 76.7969 388.062 80.5156 389.688 85.0156 391.594 c 0
 115.547 404.453 143.672 410.891 169.094 410.891 c 0
 190.078 410.891 209.375 406.516 226.375 397.406 c 0
 237.125 391.641 246.234 383.516 253.375 374.141 c 1
 245.422 368.078 l 1
 239.094 376.375 231.125 383.516 221.625 388.594 c 0
 206.156 396.875 188.688 400.891 169.094 400.891 c 0
 145.406 400.891 118.609 394.938 88.9844 382.406 c 0
 82.3125 379.594 73.6719 375.953 70.6562 375.219 c 1
 70.8281 375.266 69.4844 375.078 69 375 c 2
 64 375 l 1
 64 380 l 2
 64 480 l 1
 74 480 l 1
 74 386.969 l 1
156 163.219 m 1
 180.812 158.938 l 2
 218.531 152.984 225.688 150.453 239.969 140.031 c 0
 248.625 133.703 255.672 125.578 261.219 116.719 c 1
 252.734 111.406 l 1
 247.797 119.297 241.688 126.391 234.031 131.969 c 0
 220.531 141.828 217.453 142.906 179.188 149.062 c 0
 169.5 150.625 159.812 152.406 150.156 154.078 c 2
 146 154.781 l 1
 146 159 l 2
 146 259 l 1
 156 259 l 1
 156 163.219 l 1
59 -72.0312 m 1
 67.3438 -76.5781 l 2
 99.25 -92.9844 136.156 -101.125 172.344 -101.125 c 0
 213.625 -101.125 253.656 -90.2188 284.219 -69.8438 c 0
 329.5 -39.6562 353.359 17.2656 353.359 72.5 c 0
 353.359 172.5 l 1
 363.359 172.5 l 1
 363.359 72.5 l 0
 363.359 14.0312 337.828 -46.1094 289.781 -78.1562 c 0
 257.141 -99.9219 215.312 -111.125 172.344 -111.125 c 0
 134.672 -111.125 96.1094 -102.719 62.6562 -85.4219 c 0
 58.9531 -83.5 55.2656 -81.3906 51.6094 -79.3906 c 2
 49 -77.9688 l 1
 49 -75 l 2
 49 25 l 1
 59 25 l 1
 59 -72.0312 l 1
331.547 261.281 m 2
 340.656 279.484 345.078 301.516 345.078 324.25 c 0
 345.078 424.25 l 1
 355.078 424.25 l 1
 355.078 324.25 l 0
 355.078 300.234 350.422 276.656 340.453 256.719 c 2
 340 255.844 l 1
 331.125 260.469 l 1
 331.547 261.281 l 2
EndSplineSet
EndChar

StartChar: uni0034
Encoding: 52 52 21
Width: 423
Flags: HW
LayerCount: 2
Fore
SplineSet
276.156 565.203 m 1
 295.703 588 l 1
 340 588 l 1
 340 267 l 1
 404 267 l 1
 404 185 l 1
 340 185 l 1
 340 -5 l 1
 247 -5 l 1
 247 185 l 1
 5 185 l 1
 5 229.766 l 1
 276.156 565.203 l 1
187.078 268 m 2
 204.531 267.5 220.312 267.25 231.75 267.25 c 0
 236.594 267.25 242.328 267.297 246 267.453 c 1
 246 342.969 l 1
 245.188 407.797 l 1
 190.922 338.891 l 1
 134.375 268 l 1
 187.078 268 l 2
192 263 m 1
 182 263 l 1
 182 342 l 1
 192 342 l 1
 192 263 l 1
298 -100 m 1
 288 -100 l 1
 288 0 l 1
 298 0 l 1
 298 -100 l 1
136 90 m 1
 126 90 l 1
 126 190 l 1
 136 190 l 1
 136 90 l 1
15 95 m 1
 252 95 l 1
 252 85 l 1
 131 85 l 2
 10 85 l 2
 5 85 l 1
 5 90 l 2
 5 190 l 1
 15 190 l 1
 15 95 l 1
257 -95 m 1
 330 -95 l 1
 330 0 l 1
 340 0 l 1
 340 -100 l 2
 340 -105 l 1
 293 -105 l 0
 252 -105 l 2
 247 -105 l 1
 247 -100 l 2
 247 0 l 1
 257 0 l 1
 257 -95 l 1
340 90 m 1
 330 90 l 1
 330 190 l 1
 340 190 l 1
 340 90 l 1
372 95 m 1
 394 95 l 1
 394 190 l 1
 404 190 l 1
 404 90 l 2
 404 85 l 1
 399 85 l 2
 367 85 l 2
 362 85 l 1
 362 90 l 2
 362 190 l 1
 372 190 l 1
 372 95 l 1
245 323.734 m 1
 245 422 l 1
 255 422 l 1
 255 322 l 2
 255 320.266 l 1
 207.141 259.5 l 1
 199.297 265.688 l 1
 245 323.734 l 1
EndSplineSet
EndChar

StartChar: uni0035
Encoding: 53 53 22
Width: 424
Flags: W
HStem: -110.328 10<125.115 224.438> -10.3281 90.6719<79.9937 239.103> 179 8.85938<107.408 185.799> 397 10<163 339> 402 5<248 258> 497 5<248 258 339 349>
VStem: 37 10<-69.7344 23.7344> 53 10<-80 20> 81 10<180.404 326> 163 5<397 407> 186 10<179 279> 248 10<402 502> 280.703 95.7969<120.283 232.914> 339 10<407 502> 366.5 10<34.7994 176.172>
LayerCount: 2
Fore
SplineSet
89.9531 270.859 m 0xe7f8
 85.1562 271.062 83.6719 274.469 82.9531 277.75 c 0
 80.75 287.812 81 332.156 81 426 c 2
 81 582 l 1
 349 582 l 1
 349 497 l 1xe7f4
 168 497 l 1
 168 364 l 1
 176 364 l 2
 234.594 364 302.703 337.203 332.875 300.156 c 0
 362.031 264.359 376.5 220.219 376.5 176.172 c 0
 376.5 138.781 365.75 101.312 344.188 68.2656 c 0
 310.688 16.9062 246.219 -10.3281 175.516 -10.3281 c 0
 136.328 -10.3281 95.2344 -1.75 55.9844 15.4219 c 2
 37 23.7344 l 1
 37 71 l 2
 37 105.969 38.4219 110.422 39.0469 114.719 c 2
 39.6719 119 l 1
 44 119 l 2
 45.5938 118.656 45.6875 118.75 45.8594 118.688 c 0
 49.2812 117.609 59.9375 111.766 68.3281 107.422 c 0
 90.75 95.8281 128.156 80.3438 168.094 80.3438 c 0
 200.188 80.3438 227.891 90.375 249.594 110.656 c 0
 271.047 130.703 280.703 154.094 280.703 176.969 c 0
 280.703 218.609 248.219 259.766 189.812 274.141 c 0
 179.766 276.625 164.875 277.859 149.328 277.859 c 0
 128.609 277.859 106.469 275.531 92.4688 271.219 c 2
 92.2344 271.141 l 1
 91.9844 271.094 l 2
 92.2812 271.156 90.2188 270.859 89.9531 270.859 c 0xe7f8
196 179 m 1
 186 179 l 1
 186 279 l 1
 196 279 l 1
 196 179 l 1
258 402 m 1xeff0
 248 402 l 1
 248 502 l 1
 258 502 l 1
 258 402 l 1xeff0
63 -80 m 1
 53 -80 l 1
 53 20 l 1
 63 20 l 1
 63 -80 l 1
47 -69.7344 m 1
 60.0156 -75.4219 l 2
 97.875 -92.25 137.734 -100.328 175.516 -100.328 c 0
 243.781 -100.328 304.75 -73.875 335.812 -26.2656 c 0
 356.297 5.125 366.5 40.6719 366.5 76.1719 c 0
 366.5 176.172 l 1xe7f2
 376.5 176.172 l 1xe7f8
 376.5 76.1719 l 0xe7f2
 376.5 38.7812 365.75 1.3125 344.188 -31.7344 c 0
 310.688 -83.0938 246.219 -110.328 175.516 -110.328 c 0
 136.328 -110.328 95.1406 -101.953 55.9844 -84.5781 c 0
 50.6562 -82.2188 45.3281 -79.9062 40 -77.5781 c 2
 37 -76.2656 l 1
 37 -73 l 2
 37 27 l 1
 47 27 l 1
 47 -69.7344 l 1
163 407 m 1xf7f4
 339 407 l 1xf7f4
 339 502 l 1
 349 502 l 1
 349 402 l 2xeff4
 349 397 l 1
 344 397 l 2
 253 397 l 0
 163 397 l 1
 163 407 l 1xf7f4
91 326 m 0
 91 225.359 90.6562 189.484 92.75 179.938 c 0
 92.7656 179.859 89.9531 180.859 89.9531 180.859 c 0
 90.2812 180.859 89.4062 180.734 89.7812 180.844 c 0
 105.5 185.641 127.844 187.859 149.328 187.859 c 0
 153.641 187.859 175.641 187.906 192.188 183.859 c 0
 229.656 174.672 257.859 154.656 274.297 129.828 c 1
 265.969 124.312 l 1
 251.078 146.797 225.188 165.453 189.812 174.141 c 0
 179.766 176.609 164.875 177.859 149.328 177.859 c 0
 128.609 177.859 106.469 175.531 92.4688 171.219 c 2
 92.2344 171.141 l 1
 91.9844 171.094 l 2
 92.2812 171.156 90.2188 170.859 89.9531 170.859 c 0
 88.5469 170.859 84.3594 171.312 82.9531 177.75 c 0
 80.0938 190.781 81 283.109 81 326 c 0
 81 426 l 1
 91 426 l 1
 91 326 l 0
EndSplineSet
EndChar

StartChar: uni0036
Encoding: 54 54 23
Width: 423
Flags: HW
LayerCount: 2
Fore
SplineSet
247.016 576.016 m 0
 252.391 579.969 261.828 586.156 265.922 587.609 c 0
 266.906 587.953 267.578 588 268 588 c 2
 268.812 588 l 1
 269.578 587.75 l 2
 270.594 587.156 270.703 587.375 271.938 586.297 c 0
 277.938 581.047 318.938 530.109 323.047 523.109 c 0
 323.531 522.281 324.391 521.188 324 520 c 0
 322.922 516.734 323.844 517.5 321.859 515.531 c 0
 319.141 512.828 311.828 508.281 306.734 504.812 c 0
 243.188 461.422 195.109 407.891 165.5 346.812 c 0
 159.312 334.062 155.344 326.422 153.484 321.734 c 1
 157.344 322.906 163.344 325.031 168.391 326.734 c 0
 190.641 334.281 212.688 337.906 233.781 337.906 c 0
 295.938 337.906 350 305.812 378.484 248.219 c 0
 392.562 219.75 399 191.328 399 164.281 c 0
 399 67.2812 317.141 -11.0625 219.844 -11.0625 c 0
 188.875 -11.0625 156.453 -2.95312 124.578 14.625 c 0
 65.0156 47.4844 33.3125 124.828 33.3125 201.844 c 0
 33.3125 212.312 33.9062 222.891 35.0312 233.531 c 0
 50.25 377.859 129.391 489.219 247.016 576.016 c 0
304 162 m 0
 304 204.625 288.016 229 248.234 244.328 c 0
 237.219 248.562 225.578 250.422 213.562 250.422 c 0
 194.562 250.422 174.531 245.344 154.344 234.594 c 0
 128.484 220.797 129.969 224.031 127.984 200.531 c 0
 127.531 195.25 127.141 189.953 127.141 184.781 c 0
 127.141 145.391 143.156 110.453 168.797 93.1406 c 0
 186 81.5312 204.219 76.375 221.516 76.375 c 0
 265.625 76.375 304 110.031 304 162 c 0
255 149 m 1
 245 149 l 1
 245 249 l 1
 255 249 l 1
 255 149 l 1
157 139 m 1
 147 139 l 1
 147 239 l 1
 157 239 l 1
 157 139 l 1
128 168.766 m 1
 118 168.766 l 1
 118 201 l 1
 128 201 l 1
 128 168.766 l 1
309 409 m 1
 299 409 l 1
 299 509 l 1
 309 509 l 1
 309 409 l 1
166 318.859 m 1
 156 318.859 l 1
 156 349 l 1
 166 349 l 1
 166 318.859 l 1
132 -81 m 1
 122 -81 l 1
 122 19 l 1
 132 19 l 1
 132 -81 l 1
43.3125 101.844 m 0
 43.3125 28.9531 72.9219 -45.4531 129.422 -76.625 c 0
 159.875 -93.4219 190.594 -101.062 219.844 -101.062 c 0
 311.766 -101.062 389 -26.9219 389 64.2812 c 0
 389 164.281 l 1
 399 164.281 l 1
 399 64.2812 l 0
 399 -32.7188 317.141 -111.062 219.844 -111.062 c 0
 188.875 -111.062 156.453 -102.953 124.578 -85.375 c 0
 65.0156 -52.5156 33.3125 24.8281 33.3125 101.844 c 0
 33.3125 201.844 l 1
 43.3125 201.844 l 1
 43.3125 101.844 l 0
301.266 413.188 m 0
 303.969 415.031 312.516 420.359 314.812 422.641 c 0
 315.078 422.906 314 420 314 420 c 0
 314 520 l 1
 324 520 l 1
 324 420 l 0
 324 418.219 323.188 416.844 321.859 415.531 c 0
 319.25 412.938 312.906 409 306.734 404.812 c 0
 273.453 382.234 244.641 356.625 220.266 328.781 c 1
 212.734 335.375 l 1
 237.719 363.906 267.422 390.062 301.266 413.188 c 0
149.656 143.406 m 0
 171.078 154.797 192.734 160.422 213.562 160.422 c 0
 226.719 160.422 239.656 158.297 251.766 153.672 c 0
 274.141 145.125 290.469 133.047 300.734 116.531 c 1
 292.25 111.25 l 1
 283.391 125.5 269.344 136.25 248.234 144.328 c 0
 237.219 148.531 225.578 150.422 213.562 150.422 c 0
 194.562 150.422 174.547 145.312 154.344 134.594 c 0
 144.031 129.109 140.078 127.047 136.406 124.656 c 1
 130.938 133.031 l 1
 135.375 135.922 141.203 138.922 149.656 143.406 c 0
EndSplineSet
EndChar

StartChar: uni0037
Encoding: 55 55 24
Width: 423
Flags: HW
LayerCount: 2
Fore
SplineSet
36 490 m 1
 36 582 l 1
 228 582 l 2
 312.359 581.984 403.719 581.406 414.875 580.125 c 0
 419.391 579.609 420.078 576.594 420 575 c 0
 419.953 573.875 420.016 574.094 419.594 572.891 c 0
 413.125 553.906 169.344 12.2031 157.672 -8 c 0
 156.891 -9.35938 155.844 -10.3281 154.391 -10.7969 c 0
 154.125 -10.8906 153.047 -11.0469 152.75 -11.0312 c 0
 143.266 -10.1875 86.1719 15.0625 78.0156 20.9531 c 0
 75.8594 22.5156 74.8438 23.9844 75 26 c 0
 75.0938 27.2656 74.9688 26.9062 75.4219 28.0781 c 0
 78.0469 34.875 124.719 138.219 180.438 263.031 c 2
 281.312 489.062 l 1
 164.984 490 l 1
 36 490 l 1
158 -106 m 1
 148 -106 l 1
 148 -6 l 1
 158 -6 l 1
 158 -106 l 1
170 395 m 1
 160 395 l 1
 160 495 l 1
 170 495 l 1
 170 395 l 1
46 400 m 1
 165.016 400 l 2
 191.531 399.781 218.062 399.578 244.562 399.359 c 1
 244.484 389.359 l 1
 217.969 389.578 191.484 389.922 164.984 390 c 0
 123.641 390.125 82.3281 390 41 390 c 2
 36 390 l 1
 36 395 l 2
 36 495 l 1
 46 495 l 1
 46 400 l 1
85 -74 m 0
 85 -74 82.9219 -70.25 83.8906 -70.9531 c 0
 90.0156 -75.3906 146.047 -100.406 152.969 -101.031 c 0
 153.062 -101.047 146.766 -101.031 152.75 -101.031 c 0
 152.766 -101.031 149.609 -101.703 151.609 -101.203 c 0
 151.609 -101.203 148.688 -103.562 149.016 -103 c 0
 159.109 -85.5312 403.375 456.281 410.125 476.109 c 0
 410.266 476.516 410 475 410 475 c 0
 410 575 l 1
 420 575 l 1
 420 475 l 0
 420 474 419.703 473.219 419.594 472.891 c 0
 413.125 453.906 169.344 -87.7969 157.672 -108 c 0
 156.344 -110.312 155.188 -110.328 154.391 -110.797 c 0
 154.141 -110.938 153.047 -111.031 152.75 -111.031 c 1
 153.156 -111.031 152.109 -111 152.062 -111 c 0
 144.641 -110.312 87.6719 -86.0312 78.0156 -79.0469 c 0
 74.5156 -76.5156 75 -74.625 75 -74 c 0
 74.75 -40.6719 75 -7.32812 75 26 c 1
 85 26 l 1
 85 -74 l 0
EndSplineSet
EndChar

StartChar: uni0038
Encoding: 56 56 25
Width: 421
Flags: HW
LayerCount: 2
Fore
SplineSet
330 290.702 m 1
 330 297.927 l 1
 325.75 293.672 l 1
 330 290.702 l 1
364.119 257.562 m 1
 375.227 279.197 380.781 302.233 380.781 325.141 c 2
 380.781 370.886 l 1
 372.36 348.451 358.684 327.047 340 307.955 c 1
 340 282.806 l 1
 349.059 275.066 357.106 266.595 364.119 257.562 c 1
51.0658 249.704 m 1
 46.4322 258.266 43.0294 267.229 40.1719 277.688 c 0
 36.1562 292.422 34.3281 307.156 34.3281 321.469 c 2
 34.3281 421.469 l 2
 34.3281 497.031 87.375 562.438 170.766 583.844 c 0
 183.562 587.125 197.062 588.578 210.719 588.578 c 0
 258.812 588.578 309.625 570.031 342.516 537.562 c 0
 374.844 505.625 390.781 465.406 390.781 425.141 c 2
 390.781 325.141 l 2
 390.781 299.017 384.02 272.806 370.651 248.549 c 1
 386 214 399.062 188.531 399.062 156.219 c 2
 399.062 56.2188 l 2
 399.062 15.1562 383.715 -26.3707 351.531 -58.5312 c 0
 316.23 -93.8078 263.969 -110.875 212.062 -110.875 c 0
 159.781 -110.875 107.408 -93.2173 71.4844 -57.5469 c 0
 38.5795 -24.8736 22.2344 16.9531 22.2344 58.4844 c 2
 22.2344 158.484 l 2
 22.2344 190.622 31.9775 222.552 51.0658 249.704 c 1
90 302.059 m 1
 90 288.695 l 1
 97.4531 293.859 l 1
 90 302.059 l 1
287.369 110.507 m 1
 275.202 126.002 257.18 137.769 234.844 143.141 c 0
 225.625 145.344 216.688 146.344 208.094 146.344 c 0
 176.725 146.344 150.198 132.721 133.985 112.109 c 1
 150.97 90.0465 180.034 79.0938 209.922 79.0938 c 0
 239.895 79.0938 269.575 90.0831 287.369 110.507 c 1
50 279.685 m 1
 52.2011 271.709 54.6631 264.934 57.7584 258.551 c 1
 64.2896 266.589 71.7074 274.123 80 281.019 c 1
 80 312.929 l 1
 66.6496 326.401 57.1505 337.735 50 351.723 c 1
 50 279.685 l 1
353 -42.2301 m 1
 377.468 -13.4855 389.062 21.4871 389.062 56.2188 c 2
 389.062 99.9088 l 1
 381.483 79.3449 369.533 59.894 353 42.9549 c 1
 353 -42.2301 l 1
70 -41.3337 m 1
 70 43.9446 l 1
 52.7064 61.5293 40.1288 81.6804 32.2344 102.962 c 1
 32.2344 58.4844 l 2
 32.2344 23.295 44.7153 -12.1113 70 -41.3337 c 1
80 -51.9057 m 1
 113.553 -84.2778 162.702 -100.875 212.062 -100.875 c 0
 261.048 -100.875 310.034 -84.8882 343 -52.9145 c 1
 343 33.5721 l 1
 308.107 3.64202 259.934 -10.875 212.062 -10.875 c 0
 163.776 -10.875 115.411 4.18732 80 34.5916 c 1
 80 -51.9057 l 1
147.407 370.099 m 1
 163.687 350.581 188.376 339.781 213.703 339.781 c 0
 229.656 339.781 245.828 344.062 260.328 353.219 c 0
 267.487 357.747 273.531 363.056 278.502 368.922 c 1
 269.264 380.255 256.589 389.293 240.531 394.219 c 0
 230.717 397.229 221.094 398.562 211.891 398.562 c 0
 185.595 398.562 162.519 387.392 147.407 370.099 c 1
231 154.18 m 1
 231 243.993 l 1
 223.137 245.603 215.488 246.344 208.094 246.344 c 0
 155.797 246.344 116.953 208.625 116.953 163.297 c 0
 116.953 150.766 119.969 137.562 126.484 124.203 c 0
 127.038 123.069 127.618 121.957 128.225 120.866 c 1
 146.519 142.498 175.104 156.344 208.094 156.344 c 0
 215.525 156.344 223.191 155.655 231 154.18 c 1
237 405.553 m 1
 237 495.234 l 1
 228.41 497.535 219.987 498.562 211.891 498.562 c 0
 165.156 498.562 128.734 463.375 128.734 421.125 c 0
 128.734 410.188 131.031 398.703 136.516 387.125 c 0
 137.97 384.063 139.595 381.135 141.374 378.345 c 1
 158.401 396.852 183.581 408.562 211.891 408.562 c 0
 220.042 408.562 228.462 407.614 237 405.553 c 1
247 402.622 m 1
 262.395 397.228 275.031 388.258 284.598 377.21 c 1
 292.537 389.735 296.344 404.047 296.344 418.406 c 0
 296.344 448.874 279.129 479.122 247 491.94 c 1
 247 402.622 l 1
301.203 135.406 m 0
 303.718 143.813 304.781 152.094 304.781 160.141 c 0
 304.781 197.327 280.266 229.552 241 241.469 c 1
 241 151.867 l 1
 262.694 145.877 280.749 134.166 293.561 118.76 c 1
 296.819 123.854 299.409 129.408 301.203 135.406 c 0
EndSplineSet
EndChar

StartChar: uni0039
Encoding: 57 57 26
Width: 421
Flags: HW
LayerCount: 2
Fore
SplineSet
25.2969 411.906 m 0
 25.2969 492.375 80.8906 565.422 166.953 584.891 c 0
 174.562 586.609 183.438 587.391 194.75 587.391 c 0
 198.891 587.391 203.297 587.141 208.203 587 c 0
 323.078 583.672 393.797 494.328 393.797 373.281 c 0
 393.797 338.516 387.953 301.188 375.766 262.5 c 0
 353.531 191.875 321 136.969 265.688 75.6094 c 1
 232 39.9219 172.219 -8.70312 159.5 -10.875 c 0
 159.031 -10.9531 158.516 -11.1719 158 -11 c 0
 155.75 -10.2656 156.094 -10.9844 154.328 -9.57812 c 0
 148.219 -4.70312 106.656 43.1562 102.922 49.8438 c 0
 102.453 50.6875 101.672 51.7812 102 53 c 0
 102.688 55.5469 102.062 55.1406 103.703 57.0625 c 0
 106.688 60.5625 114.625 65.75 122.234 71.1562 c 0
 170.188 105.234 213.562 150.188 238.781 189.688 c 0
 250.969 208.781 266.781 241.922 272.406 256.781 c 1
 270.281 255.984 267.516 254.875 263.953 253.391 c 0
 240.609 243.688 216.719 239.422 193.797 239.422 c 0
 124.531 239.422 62.3594 280.719 36.3125 350.266 c 0
 28.6562 370.688 25.2969 391.594 25.2969 411.906 c 0
296 391.078 m 1
 296 429.312 285.109 478.391 232.453 495.25 c 0
 222.375 498.469 212.672 500.078 203.438 500.078 c 0
 155.359 500.078 119.203 458.828 119.203 414.375 c 0
 119.203 393.922 126.75 372.844 144.594 354.484 c 0
 161.328 337.234 184.656 328.359 210.891 328.359 c 0
 233.312 328.359 257.844 334.672 281.484 348.312 c 0
 293.453 355.234 294.969 354.75 296 391.078 c 1
239 400 m 1
 229 400 l 1
 229 500 l 1
 239 500 l 1
 239 400 l 1
284 260.797 m 1
 274 260.797 l 1
 274 264 l 1
 284 264 l 1
 284 260.797 l 1
267 221.844 m 1
 257 221.844 l 1
 257 258 l 1
 267 258 l 1
 267 221.844 l 1
46 252 m 1
 36 252 l 1
 36 352 l 1
 46 352 l 1
 46 252 l 1
376 164 m 1
 366 164 l 1
 366 264 l 1
 376 264 l 1
 376 164 l 1
267 -21 m 1
 257 -21 l 1
 257 79 l 1
 267 79 l 1
 267 -21 l 1
163 -106 m 1
 153 -106 l 1
 153 -6 l 1
 163 -6 l 1
 163 -106 l 1
112 -47 m 0
 112 -47 111.531 -45.0625 111.656 -45.2812 c 0
 114.312 -50.0469 153.953 -96.4688 160.578 -101.75 c 0
 158 -101 l 0
 158 -101 157.797 -101.016 157.812 -101.016 c 0
 167.344 -99.3906 229.375 -49.2812 258.312 -17.6094 c 0
 313.406 42.6562 344.391 96.1406 366.234 165.5 c 0
 378.125 203.312 383.797 239.641 383.797 273.281 c 0
 383.797 373.281 l 1
 393.797 373.281 l 1
 393.797 273.281 l 0
 393.797 238.516 387.953 201.188 375.766 162.5 c 0
 353.531 91.875 321.438 36.5781 265.688 -24.3906 c 0
 234.078 -58.9375 172.547 -108.641 159.5 -110.875 c 0
 158.312 -111.062 159.984 -110.906 158 -111 c 0
 157.266 -111.031 156.094 -110.984 154.328 -109.578 c 0
 148.219 -104.703 106.656 -56.8438 102.922 -50.1562 c 0
 101.984 -48.4688 102.016 -48.3906 102 -47 c 0
 101.656 -13.6719 102 19.6719 102 53 c 1
 112 53 l 1
 112 -47 l 0
35.2969 311.906 m 0
 35.2969 292.75 38.4375 273.094 45.6875 253.734 c 0
 70.3438 187.891 128.531 149.422 193.797 149.422 c 0
 199.312 149.422 204.891 149.703 210.5 150.266 c 1
 211.5 140.312 l 1
 205.547 139.719 199.641 139.422 193.797 139.422 c 0
 124.531 139.422 62.3594 180.719 36.3125 250.266 c 0
 28.6562 270.688 25.2969 291.594 25.2969 311.906 c 0
 25.2969 411.906 l 1
 35.2969 411.906 l 1
 35.2969 311.906 l 0
203.438 410.078 m 0
 213.766 410.078 224.5 408.312 235.547 404.75 c 0
 263.531 395.766 283.938 377.422 295.344 350.375 c 1
 286.141 346.484 l 1
 275.906 370.734 257.562 387.172 232.453 395.25 c 0
 222.375 398.484 212.672 400.078 203.438 400.078 c 0
 173.812 400.078 148.797 384.531 133.844 362.078 c 1
 125.531 367.625 l 1
 142.109 392.547 170.203 410.078 203.438 410.078 c 0
EndSplineSet
EndChar

StartChar: uni003A
Encoding: 58 58 27
Width: 186
Flags: HW
LayerCount: 2
Fore
SplineSet
41.2344 335.641 m 0
 41.2344 355.344 50.7969 375.828 70.6719 386.422 c 0
 78.7031 390.703 87.375 392.578 95.7656 392.578 c 0
 122.609 392.578 147.594 372.609 150.969 342.594 c 0
 151.25 340.094 151.438 337.688 151.438 335.266 c 0
 151.438 304 125.516 280.891 95.7188 280.891 c 0
 88.3125 280.891 80.6562 282.312 73.125 285.359 c 0
 51.9375 293.953 41.2344 314.859 41.2344 335.641 c 0
33.8438 42.9219 m 0
 33.8438 67.0312 48.4844 91.5 73.7812 97.8438 c 0
 78.8594 99.125 83.8281 99.75 88.6719 99.75 c 0
 120.969 99.75 145.281 72.6406 145.281 42.5156 c 0
 145.281 31.7188 142.125 20.4844 135.141 10.1875 c 0
 125.5 -4 107.375 -10.9688 89.5 -10.9688 c 0
 75.375 -10.9688 61.0625 -6.5 50.5781 3.35938 c 0
 39.1094 14.1406 33.8438 28.6094 33.8438 42.9219 c 0
136 -87 m 1
 126 -87 l 1
 126 13 l 1
 136 13 l 1
 136 -87 l 1
59 -93 m 1
 49 -93 l 1
 49 7 l 1
 59 7 l 1
 59 -93 l 1
80 190 m 1
 70 190 l 1
 70 290 l 1
 80 290 l 1
 80 190 l 1
51.2344 235.641 m 0
 51.2344 218.094 60.0625 201.453 76.875 194.641 c 0
 83.2188 192.062 89.5781 190.891 95.7188 190.891 c 0
 120.406 190.891 141.438 209.828 141.438 235.266 c 0
 141.438 335.266 l 1
 151.438 335.266 l 1
 151.438 235.266 l 0
 151.438 204 125.516 180.891 95.7188 180.891 c 0
 88.3125 180.891 80.6562 182.312 73.125 185.359 c 0
 51.9375 193.953 41.2344 214.859 41.2344 235.641 c 0
 41.2344 335.641 l 1
 51.2344 335.641 l 1
 51.2344 235.641 l 0
43.8438 -57.0781 m 0
 43.8438 -69.0312 48.1875 -80.6719 57.4219 -89.3594 c 0
 65.5625 -97.0156 77.4375 -100.969 89.5 -100.969 c 0
 104.828 -100.969 119.781 -94.625 126.859 -84.1875 c 0
 132.75 -75.5156 135.281 -66.3438 135.281 -57.4844 c 0
 135.281 42.5156 l 1
 145.281 42.5156 l 1
 145.281 -57.4844 l 0
 145.281 -68.2812 142.125 -79.5156 135.141 -89.8125 c 0
 125.5 -104 107.375 -110.969 89.5 -110.969 c 0
 75.375 -110.969 61.0625 -106.5 50.5781 -96.6406 c 0
 39.1094 -85.8594 33.8438 -71.3906 33.8438 -57.0781 c 0
 33.8438 42.9219 l 1
 43.8438 42.9219 l 1
 43.8438 -57.0781 l 0
EndSplineSet
EndChar

StartChar: uni003B
Encoding: 59 59 28
Width: 192
Flags: HW
LayerCount: 2
Fore
SplineSet
100.922 280.984 m 0
 67.4688 280.984 45.1562 306.875 45.1562 337 c 0
 45.1562 358.188 57.1406 379.781 82.3125 388.703 c 0
 88.5938 390.938 94.875 392.047 101.047 392.047 c 0
 130.531 392.047 156 367.703 156 336 c 0
 156 305.328 131.828 281 102.047 281 c 1
 102.203 281 101.094 280.984 100.922 280.984 c 0
36.9375 54.1562 m 0
 36.9375 79.5312 51.7344 105.344 80.7188 112.828 c 0
 85.2969 114.016 89.75 114.703 94.1719 114.703 c 0
 129.875 114.703 155.391 76.125 155.391 30.1719 c 0
 155.391 22.0312 154.5 13.6562 152.906 5.0625 c 0
 144.734 -39.3281 118.719 -74.3281 75.1719 -95.5 c 0
 62.1094 -101.859 58.6875 -103.484 55.5312 -104.438 c 0
 53.8906 -104.922 52.7812 -105.156 52.125 -105 c 0
 49.4688 -104.359 45.7969 -104.203 45.0938 -98.1719 c 0
 45.0625 -97.9062 44.9688 -97.1719 44.9688 -95.2812 c 0
 44.9688 -94 45 -92.7188 45 -91 c 0
 45 -83.6094 45.7188 -79.5312 52.1562 -71.7969 c 2
 52.375 -71.5312 l 1
 52.625 -71.3125 l 2
 67.2656 -57.9375 78.4688 -30.1562 78.4219 -12.5625 c 0
 78.4219 -11.0312 78.4219 -7.6875 77.2656 -4.9375 c 0
 76.875 -4 76.2188 -3.04688 75.3438 -2.71875 c 0
 49.625 6.70312 36.9375 30.7344 36.9375 54.1562 c 0
82 -41.9844 m 1
 72 -41.9844 l 1
 72 2 l 1
 82 2 l 1
 82 -41.9844 l 1
78 -191 m 1
 68 -191 l 1
 68 -91 l 1
 78 -91 l 1
 78 -191 l 1
107 186 m 1
 97 186 l 1
 97 286 l 1
 107 286 l 1
 107 186 l 1
55.1562 237 m 0
 55.1562 213.766 71.4219 190.984 100.922 190.984 c 0
 101.281 190.984 101.594 191 101.953 191 c 0
 126.172 191 146 210.672 146 236 c 0
 146 336 l 1
 156 336 l 1
 156 236 l 0
 156 205.328 131.828 181 102.047 181 c 1
 102.203 181 101.094 180.984 100.922 180.984 c 0
 67.4688 180.984 45.1562 206.875 45.1562 237 c 0
 45.1562 337 l 1
 55.1562 337 l 1
 55.1562 237 l 0
54.9688 -195.281 m 1
 54.9375 -194.688 54.9531 -196.375 55.0312 -197.016 c 0
 52.125 -195 l 0
 52.6719 -194.953 52.0312 -195.047 52.6719 -194.844 c 0
 54.9375 -194.172 59.0938 -192.203 70.8281 -186.5 c 0
 127.531 -158.906 139.391 -113.125 143 -93.5469 c 1
 143 6 l 1
 153 6 l 1
 153 -94 l 2
 153 -94.4531 l 1
 152.922 -94.8906 l 2
 144.844 -139.312 118.703 -174.312 75.1719 -195.5 c 0
 67.4219 -199.281 59.625 -203.203 55.5312 -204.438 c 0
 53.5625 -205.016 52.8125 -204.984 52.125 -205 c 0
 49.9531 -205.047 45.7969 -204.203 45.0938 -198.172 c 0
 45.0156 -197.531 44.9688 -196.234 44.9688 -195.281 c 0
 44.9219 -161.953 44.9688 -128.609 44.9688 -95.2812 c 1
 54.9688 -95.2812 l 1
 54.9688 -195.281 l 1
46.9375 -45.8438 m 0
 46.9375 -56.875 50.1875 -67.875 56.6094 -76.7344 c 1
 48.5156 -82.5938 l 1
 40.7188 -71.8438 36.9375 -58.8125 36.9375 -45.8438 c 0
 36.9375 54.1562 l 1
 46.9375 54.1562 l 1
 46.9375 -45.8438 l 0
EndSplineSet
EndChar

StartChar: uni003C
Encoding: 60 60 29
Width: 496
Flags: HW
LayerCount: 2
Fore
SplineSet
245.047 424.609 m 2
 245.266 424.703 435.875 505.094 446.094 508.641 c 0
 446.641 508.828 447.234 509 448 509 c 2
 455.5 506.641 l 1
 452.984 504.297 l 2
 453 504.234 454 487.156 454 466 c 2
 454 424.656 l 1
 293.906 358.375 l 2
 217.859 326.891 168.062 306.438 149.219 297.734 c 1
 296.922 236.609 l 1
 452.906 171.359 l 1
 454 130.062 l 2
 453.953 116.469 453.859 102.734 452.203 96.3438 c 0
 451.438 93.4062 449.219 91.9688 449.828 91.3594 c 1
 449.797 91.375 449.75 91.25 449.719 91.2031 c 0
 449.609 91.0469 449.578 91 449.547 90.9219 c 2
 447.391 86.2188 l 1
 442.812 88.5 l 2
 439.734 89.9375 350 127.844 242.031 174.406 c 2
 40.9062 259.734 l 1
 43.0938 338.344 l 1
 245.047 424.609 l 2
297 263 m 1
 287 263 l 1
 287 363 l 1
 297 363 l 1
 297 263 l 1
249 79 m 1
 239 79 l 1
 239 179 l 1
 249 179 l 1
 249 79 l 1
51 166.312 m 1
 245.969 83.5938 l 2
 377.766 26.7812 441.797 0.015625 447.031 -2.4375 c 0
 447.203 -2.5 446.844 -2.32812 447.234 -2.53125 c 2
 442.766 -11.4688 l 2
 442.734 -11.4531 442.844 -11.5156 442.812 -11.5 c 0
 438.375 -9.42188 353.672 26.5625 242.031 74.4062 c 0
 176.141 102.641 110.047 130.391 44.0469 158.391 c 2
 41 159.688 l 1
 41 163 l 2
 41 263 l 1
 51 263 l 1
 51 166.312 l 1
290.094 267.625 m 1
 444 331.344 l 1
 444 428 l 1
 454 428 l 1
 454 328 l 2
 454 324.656 l 1
 450.906 323.375 l 2
 398.578 301.719 346.234 280.047 293.906 258.375 c 2
 257.906 243.578 l 1
 254.094 252.828 l 1
 290.094 267.625 l 1
EndSplineSet
Substitution2: "'rtla' Right to Left Alternates lookup 0 subtable" uni003E
EndChar

StartChar: uni003D
Encoding: 61 61 30
Width: 494
Flags: HW
LayerCount: 2
Fore
SplineSet
42 350 m 1
 42 430 l 1
 453 430 l 1
 453 350 l 1
 42 350 l 1
52 177 m 1
 443 177 l 1
42 167 m 1
 42 247 l 1
 453 247 l 1
 453 167 l 1
 42 167 l 1
252 72 m 1
 242 72 l 1
 242 172 l 1
 252 172 l 1
 252 72 l 1
252 255 m 1
 242 255 l 1
 242 355 l 1
 252 355 l 1
 252 255 l 1
52 260 m 1
 443 260 l 1
 443 355 l 1
 453 355 l 1
 453 255 l 2
 453 250 l 1
 247 250 l 0
 47 250 l 2
 42 250 l 1
 42 255 l 2
 42 355 l 1
 52 355 l 1
 52 260 l 1
52 77 m 1
 443 77 l 1
 443 172 l 1
 453 172 l 1
 453 72 l 2
 453 67 l 1
 247 67 l 0
 47 67 l 2
 42 67 l 1
 42 72 l 2
 42 172 l 1
 52 172 l 1
 52 77 l 1
EndSplineSet
EndChar

StartChar: uni003E
Encoding: 62 62 31
Width: 496
Flags: HW
LayerCount: 2
Fore
SplineSet
43.0938 423.625 m 1
 40.8125 511 l 1
 56.9219 505.625 l 1
 57.2344 505.469 l 2
 66.4375 500.875 426.469 349.391 441.047 343.562 c 1
 454 337.094 l 1
 454 259.703 l 1
 253.953 174.391 l 2
 253.672 174.281 64 94.2031 52.1719 89.5469 c 0
 51.75 89.2656 49.2031 88.4688 48.8906 88.5312 c 0
 47.3906 88.8281 43.7031 88.5 42.6719 95.25 c 0
 41.9062 100.25 42 113.234 42 131 c 2
 42 172.344 l 1
 202.094 238.625 l 1
 346.484 298.828 l 1
 200.109 358.375 l 1
 43.0938 423.625 l 1
207 263 m 1
 197 263 l 1
 197 363 l 1
 207 363 l 1
 207 263 l 1
53 330.344 m 1
 203.891 267.625 l 1
 240.625 252.875 l 1
 236.906 243.594 l 1
 200.109 258.375 l 2
 148.781 279.703 97.4062 301.047 46.0781 322.375 c 2
 43 323.656 l 1
 43 327 l 2
 43 427 l 1
 53 427 l 1
 53 330.344 l 1
257 86.5625 m 1
 444 166.297 l 1
 444 263 l 1
 454 263 l 1
 454 163 l 2
 454 159.703 l 1
 450.969 158.406 l 2
 385.297 130.406 319.625 102.406 253.969 74.4062 c 2
 247 71.4375 l 1
 247 79 l 2
 247 179 l 1
 257 179 l 1
 257 86.5625 l 1
EndSplineSet
Substitution2: "'rtla' Right to Left Alternates lookup 0 subtable" uni003C
EndChar

StartChar: uni003F
Encoding: 63 63 32
Width: 281
Flags: HW
LayerCount: 2
Fore
SplineSet
49.5469 493.5 m 0
 49.5469 493.75 49.5469 494.594 49.9531 495.859 c 0
 51.5781 501.062 66.2656 525.891 77.7031 545.547 c 2
 105.469 591.484 l 1
 120.688 588.953 l 1
 193.938 580.953 223.75 545.219 236.5 519.188 c 0
 244.469 502.906 250.188 482.906 250.188 458.734 c 0
 250.188 416.578 231.969 369.828 196.297 311.438 c 0
 187.797 297.516 176.094 278.469 169.234 267.359 c 0
 139.984 219.906 125.031 183.078 125 162 c 0
 124.984 155.281 124.812 152.984 124.375 150.812 c 0
 123 144.031 118.234 143.547 116.703 143.547 c 2
 116.703 143.547 115.125 143.688 114.906 143.734 c 0
 111.516 144.422 108.078 146.656 99.125 152.906 c 0
 75.6406 169.312 67.3125 182.234 63.0469 212.312 c 0
 62.1719 218.531 61.7344 224.594 61.7344 230.594 c 0
 61.7344 261.562 74.1406 290.609 106.766 342.656 c 0
 140.891 397.094 152.719 429.203 152.719 450.844 c 0
 152.719 456.625 151.828 461.75 150.266 466.391 c 0
 145.016 482 131.141 500.188 102.453 500.188 c 0
 93.5938 500.188 83.8906 498.031 73.7031 494.297 c 0
 62.7812 490.297 58.9219 488.844 56.8125 488.266 c 0
 56.1094 488.078 55.5469 488 55 488 c 0
 54.7188 488 49.5469 493.141 49.5469 493.5 c 0
103.75 5.17188 m 0
 110.422 0.765625 119.156 -1.35938 128.125 -1.35938 c 0
 142.406 -1.35938 156.828 4.4375 164.172 13.2031 c 0
 172.188 22.7969 175.672 33.2031 175.672 43.3594 c 0
 175.672 67.6406 155.797 90 130.953 90 c 0
 126.078 90 120.969 89.1875 115.688 87.2969 c 0
 95.7188 80.1406 84.9844 61 84.9844 41.9219 c 0
 84.9844 27.4844 91.0312 13.5781 103.75 5.17188 c 0
74.9844 41.9219 m 0
 74.9844 64.6094 87.8906 87.9688 112.312 96.7031 c 0
 118.641 98.9688 124.922 100 130.953 100 c 0
 161.953 100 185.672 72.9062 185.672 43.3594 c 0
 185.672 30.9375 181.312 18.125 171.828 6.79688 c 0
 161.812 -5.1875 144.875 -11.3594 128.125 -11.3594 c 0
 117.594 -11.3594 106.938 -8.92188 98.25 -3.17188 c 0
 82.4375 7.28125 74.9844 24.7188 74.9844 41.9219 c 0
173 -90 m 1
 163 -90 l 1
 163 10 l 1
 173 10 l 1
 173 -90 l 1
106 -99 m 1
 96 -99 l 1
 96 1 l 1
 106 1 l 1
 106 -99 l 1
197 214 m 1
 187 214 l 1
 187 314 l 1
 197 314 l 1
 197 214 l 1
170 170 m 1
 160 170 l 1
 160 270 l 1
 170 270 l 1
 170 170 l 1
125 93.75 m 1
 115 93.75 l 1
 115 162 l 1
 125 162 l 1
 125 93.75 l 1
107 85.7812 m 1
 97 85.7812 l 1
 97 157 l 1
 107 157 l 1
 107 85.7812 l 1
160 430.469 m 1
 150 430.469 l 1
 150 468 l 1
 160 468 l 1
 160 430.469 l 1
77 399 m 1
 67 399 l 1
 67 499 l 1
 77 499 l 1
 77 399 l 1
60 400.031 m 1
 63.1562 401.188 67 402.438 70.2969 403.703 c 0
 81.4688 407.953 92.1875 410.188 102.453 410.188 c 0
 118.312 410.188 132.672 405 143.469 395.156 c 1
 136.719 387.766 l 1
 127.906 395.812 116.172 400.188 102.453 400.188 c 0
 93.5938 400.188 83.8906 398.016 73.7031 394.297 c 0
 64.1094 390.812 59.6875 389.047 56.8125 388.266 c 1
 57.0156 388.328 55.5312 388.094 55 388 c 2
 50 388 l 1
 50 393 l 2
 50 493 l 1
 60 493 l 1
 60 400.031 l 1
73 113.359 m 1
 75.4375 96.4531 78.8281 84.1406 90.5312 72.625 c 1
 83.5156 65.5 l 1
 70 78.7969 65.8281 92.8125 63.0469 112.297 c 2
 63 112.641 l 1
 63 113 l 2
 63 213 l 1
 73 213 l 1
 73 113.359 l 1
160.766 172.641 m 0
 167.609 183.703 179.391 202.953 187.703 216.562 c 0
 222.922 274.188 240.188 319.516 240.188 358.734 c 0
 240.188 458.734 l 1
 250.188 458.734 l 1
 250.188 358.734 l 0
 250.188 316.578 231.969 269.828 196.297 211.438 c 0
 187.797 197.516 176.125 178.469 169.234 167.359 c 0
 151.047 137.953 138.688 112.875 131.703 93.1719 c 1
 122.281 96.5156 l 1
 129.625 117.219 142.328 142.859 160.766 172.641 c 0
84.9844 -58.0781 m 0
 84.9844 -72.5156 91.0312 -86.4219 103.75 -94.8281 c 0
 110.422 -99.2344 119.156 -101.359 128.125 -101.359 c 0
 142.406 -101.359 156.828 -95.5625 164.172 -86.7969 c 0
 172.188 -77.2031 175.672 -66.7969 175.672 -56.6406 c 0
 175.672 43.3594 l 1
 185.672 43.3594 l 1
 185.672 -56.6406 l 0
 185.672 -69.0625 181.312 -81.875 171.828 -93.2031 c 0
 161.812 -105.188 144.875 -111.359 128.125 -111.359 c 0
 117.594 -111.359 106.938 -108.922 98.25 -103.172 c 0
 82.4375 -92.7188 74.9844 -75.2812 74.9844 -58.0781 c 0
 74.9844 41.9219 l 1
 84.9844 41.9219 l 1
 84.9844 -58.0781 l 0
EndSplineSet
EndChar

StartChar: uni0040
Encoding: 64 64 33
Width: 848
Flags: HW
LayerCount: 2
Fore
SplineSet
390.234 615.938 m 0
 408.281 618.75 426.906 619.953 445.688 619.953 c 0
 552.75 619.953 668.406 577.609 726.781 510.281 c 0
 782.125 446.438 809.547 369.953 809.547 294.125 c 0
 809.547 211.25 776.781 128.922 711.516 64.4375 c 0
 667.547 21.0156 605.609 -5.10938 553.984 -5.10938 c 0
 538.578 -5.10938 524.078 -2.71875 511.172 2.34375 c 0
 491.188 10.1719 477.234 29.8281 474.062 55.25 c 1
 473.781 56.7188 l 1
 467.5 50.4375 l 2
 430.359 14.5156 390.453 -4.0625 350.828 -4.0625 c 0
 324.266 -4.0625 297.969 4.25 273.219 20.8438 c 0
 226.453 52.2188 197.734 118.047 197.734 185.891 c 0
 197.734 196.812 198.453 207.812 200.047 218.719 c 0
 220.172 356.312 321.672 450.078 417.359 450.078 c 0
 460.688 450.078 502.578 430.516 534.016 387.984 c 0
 535.125 386.484 536.25 385 537.344 383.656 c 1
 538.734 389.766 540.609 399.062 542.094 406.984 c 2
 548.953 439 l 1
 591 439 l 2
 617.047 439 621.531 438.875 625.391 438.078 c 0
 631.797 436.766 632.266 432.281 632.266 430.828 c 0
 632.266 429.797 632.047 428.641 631.875 427.922 c 0
 615.672 360.719 563.281 107.641 562.984 93.375 c 1
 562.984 93.3438 l 1
 563.984 79.7656 570.766 72.8125 583.031 72.8125 c 0
 613.938 72.8125 674.875 115.328 708.594 178.359 c 0
 727.578 213.844 736.672 252.938 736.672 291.844 c 0
 736.672 371.078 699.031 449.203 632.219 493.844 c 0
 577.297 530.547 515.344 549.188 451.234 549.188 c 0
 396.75 549.188 340.719 535.766 286.234 508.531 c 0
 176.141 453.484 112.094 327.328 112.094 200.984 c 0
 112.094 135.906 129.203 71.0312 165.188 15.7344 c 0
 216.406 -62.9688 339.812 -109.734 464.297 -109.734 c 0
 531.094 -109.734 597.594 -96.4375 651.641 -67.5938 c 0
 691.797 -46.1562 729.422 -13.6562 741.75 4.625 c 0
 742.281 5.40625 742.578 6.15625 744.688 7.375 c 0
 752.031 11.625 776.5 12.8281 790.625 12.7812 c 0
 808.312 12.7188 818.031 11.4844 822.406 9.59375 c 0
 825.562 8.21875 827.094 5.875 827.094 3.40625 c 0
 827.094 2.92188 826.812 1.60938 826.641 1.15625 c 0
 821.844 -11.9844 796.25 -42.8281 775.531 -63.5312 c 0
 699.25 -139.828 590.344 -180.016 468.531 -180.016 c 0
 420.266 -180.016 369.891 -173.875 318.766 -160.844 c 0
 196.156 -129.609 129.141 -78.25 79.5312 20.75 c 0
 52.8125 74.0781 40.0312 134.328 40.0312 195.531 c 0
 40.0312 317.391 90.2969 442.969 180.641 524.703 c 0
 235.531 574.359 300.656 601.953 390.234 615.938 c 0
552.984 93.3438 m 1
 552.984 93.3438 l 2
 552.984 93.3125 552.984 93.3438 552.984 93.3438 c 1
484.484 161.141 m 0
 501.75 197.625 509.812 234.516 509.812 267.234 c 0
 509.812 324.562 485.359 368.188 441.922 378.125 c 0
 433.219 380.109 426.344 380.875 419.969 380.875 c 0
 409.219 380.875 399.453 378.531 384.062 371.438 c 0
 328.562 345.922 284 265.328 284 181.984 c 1
 284 182.484 284 180.969 284 180.453 c 0
 284 104.734 322.594 66.2812 367.281 66.2812 c 0
 406.969 66.2812 453.812 96.375 484.484 161.141 c 0
448 283 m 1
 438 283 l 1
 438 383 l 1
 448 383 l 1
 448 283 l 1
387 276 m 1
 377 276 l 1
 377 376 l 1
 387 376 l 1
 387 276 l 1
284 178.922 m 1
 274 178.922 l 1
 274 182 l 1
 284 182 l 1
 284 178.922 l 1
713 -32 m 1
 703 -32 l 1
 703 68 l 1
 713 68 l 1
 713 -32 l 1
518 -93 m 1
 508 -93 l 1
 508 7 l 1
 518 7 l 1
 518 -93 l 1
469 -46 m 1
 459 -46 l 1
 459 54 l 1
 469 54 l 1
 469 -46 l 1
281 -75 m 1
 271 -75 l 1
 271 25 l 1
 281 25 l 1
 281 -75 l 1
640 398 m 1
 630 398 l 1
 630 498 l 1
 640 498 l 1
 640 398 l 1
289 413 m 1
 279 413 l 1
 279 513 l 1
 289 513 l 1
 289 413 l 1
777 -160 m 1
 767 -160 l 1
 767 -60 l 1
 777 -60 l 1
 777 -160 l 1
325 -256 m 1
 315 -256 l 1
 315 -156 l 1
 325 -156 l 1
 325 -256 l 1
89 -77 m 1
 79 -77 l 1
 79 23 l 1
 89 23 l 1
 89 -77 l 1
50.0312 95.5312 m 0
 50.0312 35.7031 62.5469 -23.0156 88.4688 -74.75 c 0
 137.031 -171.672 201.734 -220.703 321.234 -251.156 c 0
 371.609 -263.984 421.125 -270.016 468.531 -270.016 c 0
 588.188 -270.016 694.344 -230.594 768.469 -156.469 c 0
 792.922 -132.016 812.969 -105.625 817 -96.0625 c 1
 817 3 l 1
 827 3 l 1
 827 -97 l 2
 827 -97.875 l 1
 826.703 -98.7031 l 2
 821.922 -111.859 796.25 -142.812 775.531 -163.531 c 0
 699.25 -239.828 590.344 -280.016 468.531 -280.016 c 0
 420.266 -280.016 369.891 -273.875 318.766 -260.844 c 0
 196.156 -229.609 129.141 -178.25 79.5312 -79.25 c 0
 52.8125 -25.9219 40.0312 34.3281 40.0312 95.5312 c 0
 40.0312 195.531 l 1
 50.0312 195.531 l 1
 50.0312 95.5312 l 0
281.766 417.469 m 0
 337.516 445.344 395.109 459.188 451.234 459.188 c 0
 490.766 459.188 529.562 452.328 566.453 438.688 c 1
 562.984 429.312 l 1
 527.203 442.531 489.609 449.188 451.234 449.188 c 0
 396.75 449.188 340.719 435.766 286.234 408.531 c 0
 190.594 360.719 129.688 259.312 115.359 150.609 c 1
 105.453 151.906 l 1
 120.188 263.75 182.859 368.016 281.766 417.469 c 0
637.75 402.172 m 2
 693.062 365.297 729.016 306.656 741.625 243.047 c 1
 731.828 241.109 l 1
 719.688 302.328 685.125 358.578 632.25 393.828 c 2
 624.281 399.016 l 1
 629.719 407.391 l 1
 637.75 402.172 l 2
622 329.594 m 1
 622 429 l 1
 632 429 l 1
 632 329 l 2
 632 328.406 l 1
 631.859 327.828 l 2
 621.234 284 593.656 153.656 576.781 68.8438 c 1
 566.969 70.7969 l 1
 583.797 155.391 611.188 284.844 622 329.594 c 1
207.734 85.8906 m 0
 207.734 20.8125 235.906 -42.0156 278.781 -70.8438 c 0
 282.609 -73.4219 286.469 -75.7344 290.344 -77.8594 c 1
 285.516 -86.625 l 1
 281.391 -84.3594 277.266 -81.875 273.219 -79.1562 c 0
 226.484 -47.7188 197.734 18.0469 197.734 85.8906 c 0
 197.734 185.891 l 1
 207.734 185.891 l 1
 207.734 85.8906 l 0
350.828 -94.0625 m 0
 387.234 -94.0625 424.625 -77.125 460.5 -42.4375 c 2
 472 -30.9219 l 1
 472 67 l 1
 482 67 l 1
 482 -33 l 2
 482 -35.0781 l 1
 480.531 -36.5312 l 2
 476.203 -40.875 471.906 -45.2969 467.5 -49.5625 c 0
 430.438 -85.5469 390.453 -104.062 350.828 -104.062 c 0
 345.766 -104.062 340.719 -103.766 335.688 -103.156 c 1
 336.875 -93.2344 l 1
 341.516 -93.7812 346.172 -94.0625 350.828 -94.0625 c 0
484 -43.6875 m 1
 486.891 -66.1094 498.922 -82.1094 514.828 -88.3438 c 0
 526.312 -92.8438 539.609 -95.1094 553.984 -95.1094 c 0
 575.469 -95.1094 599.344 -90.1562 622.906 -80.9375 c 1
 626.547 -90.25 l 1
 601.984 -99.8594 577 -105.109 553.984 -105.109 c 0
 538.578 -105.109 524.078 -102.719 511.172 -97.6562 c 0
 491.188 -89.8281 477.219 -70.0312 474.031 -44.625 c 2
 474 -44.3125 l 1
 474 -44 l 2
 474 56 l 1
 484 56 l 1
 484 -43.6875 l 1
704.484 -28.4375 m 0
 767.875 34.2969 799.547 113.906 799.547 194.125 c 0
 799.547 294.125 l 1
 809.547 294.125 l 1
 809.547 194.125 l 0
 809.547 111.25 776.719 28.9688 711.516 -35.5625 c 0
 693.297 -53.5938 671.875 -68.5156 649.484 -79.9375 c 1
 644.938 -71.0312 l 1
 666.469 -60.0469 687.062 -45.6875 704.484 -28.4375 c 0
379.938 280.562 m 0
 395.781 287.828 407.406 290.875 419.969 290.875 c 0
 427.359 290.875 435.047 289.938 444.078 287.875 c 0
 479.078 279.906 502.75 252.328 513.297 216 c 1
 503.688 213.219 l 1
 499.766 226.703 485.75 268.094 441.922 278.125 c 0
 433.219 280.109 426.344 280.875 419.969 280.875 c 0
 409.219 280.875 399.469 278.516 384.062 271.438 c 0
 340.156 251.297 302.969 195.938 289.469 132.891 c 1
 279.688 134.984 l 1
 293.703 200.438 331.812 258.453 379.938 280.562 c 0
EndSplineSet
EndChar

StartChar: uni0041
Encoding: 65 65 34
Width: 565
Flags: W
HStem: -25.1083 20.1083G<5 8.3348 48 82 482 516 526 560 570 572.797> 247 3<229 229.375 325.578 326>
LayerCount: 2
Fore
SplineSet
229.375 248.906 m 2
 228.766 247.438 l 1
 238 243.594 l 1
 238.625 245.094 l 1
 276.188 336.312 l 1
 316.422 246 l 2
 316.844 245 317.266 244.047 317.688 243.062 c 1
 326.875 247 l 1
 326.438 247.984 326.01 249.028 325.578 250 c 0
 310.594 283.688 295.562 317.375 280.562 351.031 c 2
 275.812 361.688 l 1
 271.375 350.906 l 2
 257.375 316.906 243.375 282.906 229.375 248.906 c 2
239 247 m 1
 239 347 l 1
 229 347 l 1
 229 247 l 1
 239 247 l 1
281 349 m 1
 281 449 l 1
 271 449 l 1
 271 349 l 1
 281 349 l 1
326 248 m 1
 326 348 l 1
 316 348 l 1
 316 248 l 1
 326 248 l 1
357.641 250.422 m 1
 346.078 250.078 319.25 250 278.031 250 c 2
 199.453 250.906 l 1
 238.625 345.094 l 1
 276.188 436.312 l 1
 316.422 346 l 1
 357.641 250.422 l 1
238.188 573.375 m 2
 235.75 566 182.203 441.344 115.406 284.969 c 0
 51.158 134.561 -1.8125 10.5781 -4.59375 3.03125 c 0
 -5.01562 1.875 -4.76562 2.21875 -5 1 c 2
 -5 -99 l 1
 -2.625 -106.5 l 1
 -0.25 -104 l 2
 -0.203125 -104 19.8594 -105 43 -105 c 2
 87 -105 l 1
 90.3125 -105 l 1
 91.6094 -101.953 l 2
 103.609 -73.625 115.609 -45.2812 127.609 -16.9531 c 2
 162.312 65 l 1
 398.734 65 l 1
 434.438 -16.0312 l 2
 447.094 -44.0312 459.781 -72.0625 472.438 -100.062 c 2
 473.734 -102.922 l 1
 476.891 -103 l 2
 491.547 -103.328 506.219 -103.672 520.891 -104 c 0
 535.547 -104.328 550.219 -104.672 564.891 -105 c 2
 570 -105.109 l 1
 570 -100 l 1
 570 -5.10835 l 1
 572.797 -5.17188 l 1
 543.562 60.0469 l 1
 414.578 349.031 l 1
 311.266 584 l 1
 277 584 l 2
 265.094 584 254.734 584.077 249.469 583.203 c 0
 242.109 581.982 240.453 578.688 238.406 573.969 c 2
 238.25 573.594 l 1
 238.188 573.375 l 2
38 -94.9847 m 1
 25.3829 -94.9091 13.2151 -94.5639 5 -94.2188 c 1
 5 -4.22636 l 1
 11.6696 -4.49031 24.0088 -4.90127 38 -4.98486 c 1
 38 -94.9847 l 1
48 -95 m 1
 48 -5 l 1
 82 -5 l 1
 82 -95 l 1
 48 -95 l 1
92 -75.3698 m 1
 92 -1.0156 l 1
 118 60.3737 l 1
 118 -13.9703 l 1
 92 -75.3698 l 1
128 9.64102 m 1
 128 83.985 l 1
 154 145.374 l 1
 154 71.0299 l 1
 128 9.64102 l 1
164 75 m 1
 164 165 l 1
 275 165 l 1
 275 75 l 1
 164 75 l 1
285 75 m 1
 285 165 l 1
 397 165 l 1
 397 75 l 1
 285 75 l 1
407 71.0573 m 1
 407 146.24 l 1
 434 84.9628 l 1
 434 9.74491 l 1
 407 71.0573 l 1
444 -12.9367 m 1
 444 62.8254 l 1
 472 0.912328 l 1
 472 -74.8117 l 1
 444 -12.9367 l 1
482 -93.1175 m 1
 482 -3.10962 l 1
 516 -3.88186 l 1
 516 -93.8904 l 1
 482 -93.1175 l 1
526 -94.1177 m 1
 526 -4.10899 l 1
 560 -4.88122 l 1
 560 -94.8906 l 1
 526 -94.1177 l 1
EndSplineSet
EndChar

StartChar: uni0042
Encoding: 66 66 35
Width: 477
Flags: HW
HStem: -105 10.0469<69 323.448> -99 5<181 191> -5.04688 5.04688<59 69 181 191> 75 5.07812<155 275.197> 156 5<150 191> 251 5<155 245.807> 300 14<336 337.891> 330 5.125<155 220.808> 401 5<150.219 201> 496 5<155 246.716> 562.047 20G<59 162.047>
VStem: 59 10<-94.9531 -5.04688> 181 10<-99 1 156 256> 191 10<401 501> 249 10<153 253 397 497> 322 10<-94 6> 336 10<300 314> 342 10<122 222> 404.266 10<294.567 429.516> 454 10<18.9652 149>
LayerCount: 2
Fore
SplineSet
59 -5.04688 m 1
 59 582.047 l 1
 162.047 581 l 2
 285.734 580 310.703 575.906 346.75 552.172 c 0
 391.672 522.609 414.266 475.641 414.266 429.516 c 0
 414.266 382.344 390.625 335.844 343.5 309.672 c 1
 337.891 306.312 l 1
 345.531 303.766 l 1
 421.547 280.062 464.266 226.094 464.266 158.094 c 0
 464.266 155 464.172 151.875 464 148.719 c 0
 459.859 74.5 412.516 24.125 328.25 1.15625 c 0
 310.594 -3.65625 302.875 -3 186.047 -4 c 2
 59 -5.04688 l 1
308.469 384.109 m 0
 313.891 395.844 316.531 407.531 316.531 418.734 c 0
 316.531 452 294.266 481.734 254.797 492.141 c 0
 246.531 494.328 228.672 496 195.891 496 c 1
 155 497.781 l 1
 155 335.125 l 1
 191.875 336 l 2
 267.156 338 292.969 350.562 308.469 384.109 c 0
343.547 218.391 m 0
 324.578 236.531 306.156 244.141 253.562 248.016 c 0
 236.922 249.25 206.828 251 186 251 c 2
 155 251 l 1
 155 80.0781 l 1
 215.969 81 l 2
 252.703 81 288.875 82.6406 296.234 83.9375 c 0
 339.984 91.6719 366.391 128.828 366.391 165.422 c 0
 366.391 184.422 359.328 203.281 343.547 218.391 c 0
352 122 m 1x3fff70
 342 122 l 1
 342 222 l 1
 352 222 l 1
 352 122 l 1x3fff70
259 153 m 1
 249 153 l 1
 249 253 l 1
 259 253 l 1
 259 153 l 1
191 156 m 1
 181 156 l 1
 181 256 l 1
 191 256 l 1
 191 156 l 1
261 397 m 1
 251 397 l 1
 251 497 l 1
 261 497 l 1
 261 397 l 1
201 401 m 1
 191 401 l 1
 191 501 l 1
 201 501 l 1
 201 401 l 1
346 300 m 1x3fffb0
 336 300 l 1
 336 314 l 1
 346 314 l 1
 346 300 l 1x3fffb0
332 -94 m 1x7fff30
 322 -94 l 1
 322 6 l 1
 332 6 l 1
 332 -94 l 1x7fff30
191 -99 m 1
 181 -99 l 1
 181 1 l 1
 191 1 l 1
 191 -99 l 1
69 -94.9531 m 1xbfff30
 185.953 -94 l 2x7fff30
 303.125 -93 309.719 -93.5312 325.75 -89.1562 c 0
 405.875 -67.2969 450.125 -20.6406 454 49.1406 c 1
 454 149 l 1
 464 149 l 1
 464 48.8594 l 1
 459.875 -25.3594 412.516 -75.875 328.25 -98.8438 c 0
 310.594 -103.656 302.875 -103.016 186.047 -104 c 0
 145.375 -104.344 104.703 -104.672 64.0469 -105 c 2
 59 -105.047 l 1
 59 -100 l 2
 59 0 l 1
 69 0 l 1
 69 -94.9531 l 1xbfff30
404.266 329.516 m 0
 404.266 429.516 l 1
 414.266 429.516 l 1
 414.266 329.516 l 0
 414.266 309.656 410.078 289.906 401.703 271.734 c 1
 392.625 275.922 l 1
 400.375 292.734 404.266 311.047 404.266 329.516 c 0
196.109 406 m 1
 229.328 406 247.625 404.312 257.203 401.859 c 0
 278.844 396.281 296.266 384.672 308.219 370.016 c 1
 300.469 363.703 l 1
 289.938 376.609 274.641 387.031 254.797 392.141 c 0
 246.516 394.281 228.672 396 195.891 396 c 1
 149.781 398 l 1
 150.219 408 l 1
 196.109 406 l 1
186 161 m 0
 207.172 161 237.016 160.031 254.438 157.984 c 1
 310.797 154.594 330.078 145.078 350.453 125.609 c 0
 353.219 122.984 355.734 120.219 358.031 117.375 c 1
 350.25 111.094 l 1
 348.219 113.609 346 116.047 343.547 118.391 c 0
 324.562 136.5 306.156 144.141 253.562 148.016 c 0
 236.922 149.25 206.828 151 186 151 c 0
 150 151 l 1
 150 161 l 1
 186 161 l 0
EndSplineSet
EndChar

StartChar: uni0043
Encoding: 67 67 36
Width: 597
Flags: W
HStem: -111.219 10<288.193 417.009> -11.2188 88.8126<249.709 472.232> 396.812 10<308.466 411.141> 442 5<549 554.078> 496.812 91.219<255.196 472.292>
VStem: 35.9219 98.4371<191.227 382.022> 35.9219 10<133.562 183.469> 158 10<-53 42.9688> 236 10<378.469 474> 533 10<-63.4062 32 354 454> 548 10<353.844 447> 554 10<-55.7031 41>
LayerCount: 2
Fore
SplineSet
311.453 585.969 m 0xfdd0
 323.828 587.328 336.453 588.031 349.375 588.031 c 0
 403.312 588.031 462.391 576.031 529.719 551.688 c 2
 560 540.484 l 1
 560 492 l 2
 560 487.453 560.109 455.828 558.359 447.141 c 0
 557.391 442.359 554.078 442 553 442 c 0
 549 442 536.672 447.578 532.859 449.484 c 0
 470.203 480.875 412.406 496.812 358.812 496.812 c 0
 318.078 496.812 279.719 487.766 243.234 469.531 c 0
 173.906 434.859 134.359 363.688 134.359 287.469 c 0
 134.359 254.422 141.609 220.406 157.484 188.203 c 0
 193.125 115.922 267.547 77.5938 355.406 77.5938 c 0
 413.25 77.5938 476.844 94.4531 538.547 129.359 c 0
 545.328 133.188 552.047 137.172 555.344 139.234 c 1
 558 140 l 1xfde0
 560.969 136.656 562.578 139.469 563.281 134.734 c 0
 564.125 129.109 564 106.219 564 88 c 2
 564 37.7031 l 1
 539.969 27.4062 l 2
 479.031 1.54688 413.328 -11.2188 351.344 -11.2188 c 0
 277.609 -11.2188 209.094 6.89062 160.031 42.9688 c 0
 79.4375 102.25 35.9219 190.469 35.9219 283.469 c 0
 35.9219 330.938 47.0781 379.703 70.5312 426.25 c 0
 113.297 511.109 209.75 574.766 311.453 585.969 c 0xfdd0
540 354 m 1
 530 354 l 1
 530 454 l 1
 540 454 l 1
 540 354 l 1
246 374 m 1
 236 374 l 1
 236 474 l 1
 246 474 l 1
 246 374 l 1
543 -68 m 1
 533 -68 l 1
 533 32 l 1
 543 32 l 1
 543 -68 l 1
168 -53 m 1
 158 -53 l 1
 158 47 l 1
 168 47 l 1
 168 -53 l 1
45.9219 183.469 m 0xfbc0
 45.9219 93.5781 87.8125 8.48438 165.969 -48.9688 c 0
 212.688 -83.3281 279.219 -101.219 351.344 -101.219 c 0
 411.953 -101.219 476.406 -88.7031 536.031 -63.4062 c 2
 554 -55.7031 l 1
 554 41 l 1
 564 41 l 1
 564 -59 l 2
 564 -62.2969 l 1
 560.969 -63.5938 l 2
 553.969 -66.5938 546.969 -69.625 539.969 -72.5938 c 0
 479.047 -98.4688 413.328 -111.219 351.344 -111.219 c 0
 277.609 -111.219 209.094 -93.1094 160.031 -57.0312 c 0
 79.4375 2.25 35.9219 90.4688 35.9219 183.469 c 0xfbd0
 35.9219 283.469 l 1xfdc0
 45.9219 283.469 l 1
 45.9219 183.469 l 0xfbc0
238.766 378.469 m 0
 276.562 397.375 316.594 406.812 358.812 406.812 c 0
 414.375 406.812 473.5 390.422 537.141 358.516 c 0
 540.641 356.766 544.766 355.172 548 353.844 c 1
 548 447 l 1
 558 447 l 1
 558 347 l 2
 558 342 l 1xf9e0
 553 342 l 2
 553.297 342 552.188 342.047 552.109 342.047 c 0
 548.172 342.5 536.516 347.641 532.859 349.484 c 0
 470.203 380.875 412.406 396.812 358.812 396.812 c 0
 318.078 396.812 279.719 387.766 243.234 369.531 c 0
 188.953 342.391 152.969 292.906 139.859 236.094 c 1
 130.109 238.344 l 1
 143.828 297.797 181.656 349.922 238.766 378.469 c 0
EndSplineSet
EndChar

StartChar: uni0044
Encoding: 68 68 37
Width: 633
Flags: W
HStem: -112 10<77 348.939> -107 5<187 197> -12 85.0625<161 187 192.016 392.528> -12 5<67 77 187 197> 390 10<156 333.767> 395 5<204 214 295 305> 490 84<161 392.48> 490 5<204 214 295 305>
VStem: 67 10<-102 -12> 156 5<390 400> 187 10<-107 -7> 204 10<395 495> 295 10<393 493> 431 10<348 443.969> 451 10<-63.6406 32> 507.953 98.828<189.404 378.096> 596.781 10<132.884 282.297>
LayerCount: 2
Fore
SplineSet
67 -12 m 1x10ff
 67 575.047 l 1
 195.031 574 l 2
 364.938 573 418.641 564.125 474.75 527.172 c 0
 563.234 468.906 606.781 375.297 606.781 282.297 c 0
 606.781 182.734 556.938 83.0312 458.453 27.6406 c 0
 394.906 -8.09375 367.625 -11 192.016 -12 c 2x22ff
 67 -12 l 1x10ff
433.047 443.969 m 0
 391.453 474.406 361.344 485.031 299.766 488 c 0
 278.891 489.016 238.891 490 209 490 c 2
 161 490 l 1
 161 73.0625 l 1
 234.922 74 l 2
 348.031 76 382.891 83.2812 424.062 113.047 c 0
 479.391 153.031 507.953 219.328 507.953 285.109 c 0
 507.953 347.078 482.781 407.578 433.047 443.969 c 0
441 348 m 1
 431 348 l 1
 431 448 l 1
 441 448 l 1
 441 348 l 1
305 393 m 1
 295 393 l 1
 295 493 l 1
 305 493 l 1
 305 393 l 1
214 395 m 1x05fe
 204 395 l 1
 204 495 l 1
 214 495 l 1
 214 395 l 1x05fe
461 -68 m 1
 451 -68 l 1
 451 32 l 1
 461 32 l 1
 461 -68 l 1
197 -107 m 1x50fe
 187 -107 l 1
 187 -7 l 1
 197 -7 l 1
 197 -107 l 1x50fe
77 -102 m 1x90fe80
 191.984 -102 l 1
 372.062 -100.969 393.688 -97.3125 453.547 -63.6406 c 0
 548.781 -10.0781 596.781 86.0156 596.781 182.297 c 0
 596.781 282.297 l 1x90fe80
 606.781 282.297 l 1x90ff
 606.781 182.297 l 0
 606.781 82.7344 556.938 -16.9688 458.453 -72.3594 c 0
 394.922 -108.094 367.625 -111.188 192.016 -112 c 0
 152.016 -112.188 112 -112 72 -112 c 2
 67 -112 l 1x90fe80
 67 -107 l 2x40fe80
 67 -7 l 1
 77 -7 l 1
 77 -102 l 1x90fe80
209 400 m 2x08fe
 239.109 400 279.109 399.016 300.234 398 c 0
 359.953 395.109 394.125 384.875 438.953 352.031 c 0
 477.719 323.641 502.219 281.781 512.422 235.953 c 1
 502.656 233.781 l 1
 492.891 277.609 469.578 317.203 433.047 343.969 c 0
 391.469 374.422 361.416 388 299.766 388 c 0
 272 388 238.891 390 209 390 c 2
 156 390 l 1
 156 400 l 1
 209 400 l 2x08fe
EndSplineSet
EndChar

StartChar: uni0045
Encoding: 69 69 38
Width: 425
Flags: W
HStem: -100 5<227 237> -5 85<153 227 237 396> -5 5<59 69 227 237 396 406> 146 10<148 378> 151 5<260 270> 246 87<153 260 270 378> 246 5<260 270 378 388> 397 10<148 387> 402 5<265 275> 497 5<265 275 387 397>
VStem: 59 10<-95 -5> 148 5<146 156 397 407> 227 10<-100 0> 260 10<151 251> 265 10<402 502> 378 10<156 251> 387 10<407 502> 396 10<-95 0>
LayerCount: 2
Fore
SplineSet
59 -5 m 1xa07940
 59 582 l 1
 397 582 l 1
 397 497 l 1xa07880
 153 497 l 1
 153 333 l 1
 388 333 l 1xa479
 388 246 l 1x8279
 153 246 l 1
 153 80 l 1
 406 80 l 1xc47940
 406 -5 l 1
 59 -5 l 1xa07940
275 402 m 1x80fa
 265 402 l 1
 265 502 l 1
 275 502 l 1
 275 402 l 1x80fa
270 151 m 1x8a7c
 260 151 l 1
 260 251 l 1
 270 251 l 1
 270 151 l 1x8a7c
237 -100 m 1
 227 -100 l 1
 227 0 l 1
 237 0 l 1xa078
 237 -100 l 1
69 -95 m 1
 396 -95 l 1
 396 0 l 1
 406 0 l 1
 406 -100 l 2
 406 -105 l 1xa07840
 401 -105 l 2
 232 -105 l 0
 59 -105 l 1
 59 -100 l 2
 59 0 l 1
 69 0 l 1
 69 -95 l 1
148 156 m 1x907b
 378 156 l 1x907b
 378 251 l 1
 388 251 l 1
 388 151 l 2x8a7b
 388 146 l 1
 383 146 l 2
 265 146 l 0
 148 146 l 1
 148 156 l 1x907b
148 407 m 1x817c80
 387 407 l 1x817c80
 387 502 l 1
 397 502 l 1
 397 402 l 2x80fc80
 397 397 l 1
 392 397 l 2
 270 397 l 2
 148 397 l 1
 148 407 l 1x817c80
EndSplineSet
EndChar

StartChar: uni0046
Encoding: 70 70 39
Width: 397
Flags: W
HStem: -100 5<101 111> -5 5<59 69 101 111 143 153> 162 10<265 367> 262 87<153 255 265 367> 262 5<255 265 367 377> 397 10<148 367> 402 5<255 265> 497 5<255 265 367 377>
VStem: 59 10<-95 -5> 101 10<-100 0> 143 10<-95 0 167 267> 255 10<172 267 402 502> 367 10<172 267 407 502>
LayerCount: 2
Fore
SplineSet
59 -5 m 1xf1f8
 59 582 l 1
 377 582 l 1
 377 497 l 1
 153 497 l 1
 153 349 l 1
 377 349 l 1xf1f8
 377 262 l 1xe9f8
 153 262 l 1
 153 -5 l 1
 59 -5 l 1xf1f8
265 402 m 1xe3f8
 255 402 l 1
 255 502 l 1
 265 502 l 1
 265 402 l 1xe3f8
111 -100 m 1
 101 -100 l 1
 101 0 l 1
 111 0 l 1
 111 -100 l 1
69 -95 m 1
 143 -95 l 1
 143 0 l 1
 153 0 l 1
 153 -100 l 2
 153 -105 l 1
 106 -105 l 0
 59 -105 l 1
 59 -100 l 2
 59 0 l 1
 69 0 l 1
 69 -95 l 1
153 167 m 1
 143 167 l 1
 143 267 l 1
 153 267 l 1xe9f8
 153 167 l 1
265 172 m 1
 367 172 l 1
 367 267 l 1
 377 267 l 1
 377 167 l 2
 377 162 l 1
 372 162 l 2
 260 162 l 2
 255 162 l 1
 255 167 l 2
 255 267 l 1
 265 267 l 1
 265 172 l 1
148 407 m 1xe5f8
 367 407 l 1xe5f8
 367 502 l 1
 377 502 l 1
 377 402 l 2xe3f8
 377 397 l 1
 372 397 l 2
 260 397 l 2
 148 397 l 1
 148 407 l 1xe5f8
EndSplineSet
EndChar

StartChar: uni0047
Encoding: 71 71 40
Width: 626
Flags: W
HStem: -111.109 10<294.06 422.924> -11.1094 84.0625<257.571 478.691> 104 10<379 484> 109 5<424 434> 204 5<369 379 424 434> 405 7.64099<331.608 380.421> 444 5<555.812 558.672>
VStem: 37.9844 98.4376<189.998 381.424> 37.9844 10<136.403 182.828> 139 10<261 286.422 359.312 361> 156 10<-50 45.8438> 318 10<405 505> 369 10<114 204> 424 10<109 209> 479 5<104 114> 534 10<358 453.531> 540 10<-66.2812 29> 552 10<357.094 449> 565 10<-58.4844 38>
LayerCount: 2
Fore
SplineSet
314.422 585.969 m 0xcf7e60
 329.125 587.609 343.578 588.641 358.125 588.641 c 0
 409.844 588.641 462 577.219 524.766 553.672 c 2
 561.922 539.469 l 1
 563 492.062 l 2
 563 475.016 562.906 453.562 562.312 449.406 c 0
 561.625 444.578 558.672 444 557 444 c 2
 555.812 444 l 1
 536.766 453.531 l 2
 474.906 484.453 406.141 502.641 354.609 502.641 c 0
 343.469 502.641 333.125 501.641 323.859 500.078 c 0
 235.859 485.25 176.984 437.875 148.703 359.312 c 0
 140.203 335.703 136.422 310.922 136.422 286.422 c 0
 136.422 218.891 166.531 153.266 217.875 117.094 c 0
 260.531 87.0312 305.203 72.9531 356.438 72.9531 c 0
 387.703 72.9531 421.438 78.2969 458.625 88.8125 c 2
 479 94.75 l 1
 479 204 l 1
 369 204 l 1
 369 289 l 1
 575 289 l 1
 575 34.4844 l 1
 546.672 24.2812 l 2
 479.547 0.71875 415.797 -11.1094 356.75 -11.1094 c 0
 294.547 -11.1094 223.469 1.9375 158.203 45.8438 c 0
 87.9375 93.1406 37.9844 194.312 37.9844 282.828 c 0
 37.9844 290.125 38.2812 297.375 39.0312 304.5 c 0
 47.0938 382.547 79.3906 455.531 127.547 500.609 c 1
 172.625 544.672 249.156 578.688 314.422 585.969 c 0xcf7e60
544 358 m 1xce7f60
 534 358 l 1
 534 458 l 1
 544 458 l 1
 544 358 l 1xce7f60
328 405 m 1
 318 405 l 1
 318 505 l 1
 328 505 l 1
 328 405 l 1
149 261 m 1
 139 261 l 1
 139 361 l 1
 149 361 l 1
 149 261 l 1
434 109 m 1xde7e60
 424 109 l 1
 424 209 l 1
 434 209 l 1
 434 109 l 1xde7e60
550 -71 m 1xce7ee0
 540 -71 l 1
 540 29 l 1
 550 29 l 1
 550 -71 l 1xce7ee0
166 -50 m 1
 156 -50 l 1
 156 50 l 1
 166 50 l 1
 166 -50 l 1
47.9844 182.828 m 0xcefe60
 47.9844 97.2656 96.4844 -0.5625 163.797 -45.8438 c 0
 227.203 -88.5156 296.281 -101.109 356.75 -101.109 c 0
 414.453 -101.109 477.078 -89.5469 543.328 -66.2812 c 2
 565 -58.4844 l 1
 565 38 l 1
 575 38 l 1
 575 -62 l 2
 575 -65.5156 l 1
 571.688 -66.7031 l 2
 563.359 -69.7031 555.031 -72.7656 546.672 -75.7188 c 0
 479.562 -99.3281 415.797 -111.109 356.75 -111.109 c 0
 294.547 -111.109 223.469 -98.0625 158.203 -54.1562 c 0
 87.9375 -6.85938 37.9844 94.3125 37.9844 182.828 c 0xcefe60
 37.9844 282.828 l 1xcf7e60
 47.9844 282.828 l 1
 47.9844 182.828 l 0xcefe60
379 114 m 1xee7e60
 484 114 l 1
 484 104 l 1
 429 104 l 2
 374 104 l 2
 369 104 l 1xee7e60
 369 109 l 2xde7e60
 369 209 l 1
 379 209 l 1
 379 114 l 1xee7e60
139.297 262.688 m 0
 168.766 344.219 230.156 394.422 322.141 409.922 c 0
 332.125 411.609 342.969 412.641 354.609 412.641 c 0
 408.406 412.641 478.125 394.031 541.234 362.469 c 2
 552 357.094 l 1
 552 449 l 1
 562 449 l 1
 562 349 l 2
 562 340.906 l 1
 562 340.906 542.766 350.531 536.766 353.531 c 0
 474.906 384.453 406.141 402.641 354.609 402.641 c 0
 343.469 402.641 333.125 401.641 323.859 400.078 c 0
 235.859 385.25 177.094 337.828 148.703 259.312 c 0
 145.828 251.375 143.609 243.266 141.766 235.109 c 1
 132.016 237.297 l 1
 133.938 245.828 136.281 254.359 139.297 262.688 c 0
EndSplineSet
EndChar

StartChar: uni0048
Encoding: 72 72 41
Width: 615
Flags: W
HStem: -100 5<100 110 505 515> -5 5<58 68 100 110 142 152 463 473 505 515 547 557> 144 10<313 468> 244 5<303 313> 562 20G<58 152 463 557>
VStem: 58 10<-95 -5> 100 10<-100 0> 142 10<-95 0 149 249> 303 10<154 249> 463 10<-95 -5> 463 5<144 154> 505 10<-100 0> 547 10<-95 0>
LayerCount: 2
Fore
SplineSet
58 -5 m 1xffb8
 58 582 l 1
 152 582 l 1
 152 333 l 1
 463 333 l 1
 463 582 l 1xffb8
 557 582 l 1
 557 -5 l 1
 463 -5 l 1xffd8
 463 244 l 1
 152 244 l 1
 152 -5 l 1
 58 -5 l 1xffb8
515 -100 m 1
 505 -100 l 1
 505 0 l 1
 515 0 l 1
 515 -100 l 1
110 -100 m 1
 100 -100 l 1
 100 0 l 1
 110 0 l 1
 110 -100 l 1
68 -95 m 1
 142 -95 l 1
 142 0 l 1
 152 0 l 1
 152 -100 l 2
 152 -105 l 1
 105 -105 l 0
 58 -105 l 1
 58 -100 l 2
 58 0 l 1
 68 0 l 1
 68 -95 l 1
152 149 m 1
 142 149 l 1
 142 249 l 1
 152 249 l 1
 152 149 l 1
313 154 m 1
 468 154 l 1
 468 144 l 1
 303 144 l 1
 303 149 l 2
 303 249 l 1
 313 249 l 1
 313 154 l 1
473 -95 m 1xffd8
 547 -95 l 1
 547 0 l 1
 557 0 l 1
 557 -100 l 2
 557 -105 l 1
 510 -105 l 0
 463 -105 l 1
 463 -100 l 2
 463 0 l 1xffb8
 473 0 l 1
 473 -95 l 1xffd8
EndSplineSet
EndChar

StartChar: uni0049
Encoding: 73 73 42
Width: 214
Flags: W
HStem: -100 5<102 112> -5 5<60 70 102 112 144 154> 562 20G<60 154>
VStem: 60 10<-95 -5> 102 10<-100 0> 144 10<-95 0>
CounterMasks: 1 1c
LayerCount: 2
Fore
SplineSet
60 -5 m 1
 60 582 l 1
 154 582 l 1
 154 -5 l 1
 60 -5 l 1
112 -100 m 1
 102 -100 l 1
 102 0 l 1
 112 0 l 1
 112 -100 l 1
70 -95 m 1
 144 -95 l 1
 144 0 l 1
 154 0 l 1
 154 -100 l 2
 154 -105 l 1
 107 -105 l 0
 60 -105 l 1
 60 -100 l 2
 60 0 l 1
 70 0 l 1
 70 -95 l 1
EndSplineSet
EndChar

StartChar: uni004A
Encoding: 74 74 43
Width: 213
Flags: HW
HStem: -299.578 10<-37.8824 29.9654> -214 21G<-43 -33 -28 -18> -189.578 70.5781<-33.6069 38.8477> -114 5<-51.7528 -7.51562> 577 5<63 148>
VStem: -57 5<-244.317 -229.787 -192.406 -116> -50 3<-216.844 -216 -155.922 -155> -43 10<-288.266 -254.078> -43 3<-255 -193> -28 10<-294 -194> 57 5<105.552 577> 67 76<25.6929 270> 131 10<-196 -194.594> 143 10<-155.734 270> 148 5<-56 577>
LayerCount: 2
Fore
SplineSet
57 268.016 m 2
 58.0156 582 l 1
 153 582 l 1xfee2
 153 270 l 2xfe64
 152 -55.7344 151.828 -59.375 140.797 -97.4062 c 0
 123 -158.766 61.375 -199.578 -8.6875 -199.578 c 0
 -13.5469 -199.578 -18.4219 -199.391 -23.375 -198.984 c 2
 -42.2188 -197.734 l 1
 -49.9062 -155.922 l 2
 -51.3594 -148.047 -56.6406 -120.484 -56.9688 -116.531 c 0
 -56.9844 -116.484 -57.1094 -116.141 -57 -116 c 0
 -55.5469 -114.047 -56.8906 -111.734 -51.8594 -110.25 c 0
 -49.6094 -109.578 -45.9219 -109 -40 -109 c 0
 7.40625 -109 33.9844 -97.3906 45.5469 -74.7344 c 0
 55.9219 -54.4062 55.9375 -62.4375 57 268.016 c 2
141 -196 m 1xfe68
 131 -196 l 1
 131 -96 l 1
 141 -96 l 1
 141 -196 l 1xfe68
-18 -294 m 1
 -28 -294 l 1
 -28 -194 l 1
 -18 -194 l 1
 -18 -294 l 1
-33 -293 m 1xff60
 -43 -293 l 1
 -43 -193 l 1xfee0
 -33 -193 l 1
 -33 -293 l 1xff60
-40 -255 m 1
 -50 -255 l 1
 -50 -155 l 1
 -40 -155 l 1
 -40 -255 l 1
-47 -216 m 0
 -47 -216.844 -47.2812 -216.328 -40.0938 -254.078 c 2
 -33.7812 -288.266 l 1
 -22.625 -289.016 l 2
 -17.9531 -289.391 -13.2812 -289.578 -8.6875 -289.578 c 0
 57.625 -289.578 114.859 -250.906 131.203 -194.594 c 0
 141.688 -158.484 142.094 -156.266 143 170 c 0
 143.094 203.344 143 236.672 143 270 c 1
 153 270 l 1
 153 236.672 153.094 203.328 153 170 c 0xfe74
 152.094 -155.734 151.828 -159.375 140.797 -197.406 c 0
 123 -258.766 61.375 -299.578 -8.6875 -299.578 c 0
 -13.5469 -299.578 -18.4219 -299.344 -23.375 -298.984 c 0
 -28.3594 -298.625 -33.3281 -298.328 -38.3281 -297.984 c 2
 -42.2188 -297.734 l 1
 -42.9219 -293.906 l 2
 -45.25 -281.234 -47.5312 -268.578 -49.9062 -255.922 c 0
 -53.2188 -238.344 -57 -218.953 -57 -216 c 0
 -57 -116 l 1
 -47 -116 l 1
 -47 -216 l 0
EndSplineSet
EndChar

StartChar: uni004B
Encoding: 75 75 44
Width: 558
Flags: W
HStem: -100 5<103 113 443.016 446 495 505> -5 5<60 70 103 113 146 156 438.984 446 495 505 554 564> 562 20G<60 156 370.349 460.523>
VStem: 60 10<-95 -5> 103 10<-100 0> 147 9<-95 0 177.891 280> 291 10<40 136.406> 365 10<338 438> 436 10<-95 -5> 490 10<475.984 574> 495 10<-100 0> 554 10<-95 0>
LayerCount: 2
Fore
SplineSet
60 -5 m 1xff90
 60 582 l 1
 156 582 l 1
 156 447.016 l 1
 156.906 329.766 l 1
 267.312 450.391 l 1
 388.812 582 l 1
 443 582 l 2
 478.047 581.953 491.547 580.781 494.781 579.922 c 0
 497.312 579.25 500.047 577.625 500.047 574.172 c 0
 500.047 573.688 499.688 572.188 499.469 571.766 c 2
 499.109 571.031 l 1
 498.531 570.469 l 2
 497.938 569.875 454.047 522.078 373.688 434.625 c 2
 253.906 303.156 l 1
 268.453 288.625 l 2
 279.672 278.422 344.438 215.641 413.484 147.578 c 1
 551.5 14.5625 l 1
 571.078 -5 l 1
 438.984 -5 l 1
 292.516 136.406 l 1
 156.922 268.25 l 1
 156 139.984 l 1
 156 -5 l 1
 60 -5 l 1xff90
375 338 m 1
 365 338 l 1
 365 438 l 1
 375 438 l 1
 375 338 l 1
505 -100 m 1xffb0
 495 -100 l 1
 495 0 l 1
 505 0 l 1
 505 -100 l 1xffb0
446 -100 m 1
 436 -100 l 1
 436 0 l 1
 446 0 l 1
 446 -100 l 1
301 40 m 1
 291 40 l 1
 291 140 l 1
 301 140 l 1
 301 40 l 1
113 -100 m 1
 103 -100 l 1
 103 0 l 1
 113 0 l 1
 113 -100 l 1
70 -95 m 1
 146 -95 l 1
 146 0 l 1
 156 0 l 1
 156 -100 l 2
 156 -105 l 1
 151 -105 l 2
 108 -105 l 0
 65 -105 l 2
 60 -105 l 1
 60 -100 l 2
 60 0 l 1
 70 0 l 1
 70 -95 l 1
157 182.109 m 1
 299.484 43.5938 l 1
 443.016 -95 l 1
 554 -95 l 1
 554 0 l 1
 564 0 l 1
 564 -100 l 2
 564 -105 l 1
 559 -105 l 2
 500 -105 l 0xffd0
 441 -105 l 2
 438.984 -105 l 1
 437.531 -103.594 l 2
 389.188 -56.9375 340.781 -10.3438 292.516 36.4062 c 0
 244.438 83 196.516 129.75 148.516 176.422 c 2
 147 177.891 l 1
 147 180 l 2
 147 280 l 1
 157 280 l 1
 157 182.109 l 1
366.312 341.375 m 1
 490 475.984 l 1
 490 574 l 1
 500 574 l 1
 500 474 l 2
 500 471.922 l 1
 498.531 470.469 l 2
 498.547 470.469 498.578 470.5 498.578 470.5 c 0
 496.328 468.188 443.734 410.859 373.688 334.625 c 2
 299.016 252.672 l 1
 291.625 259.406 l 1
 366.312 341.375 l 1
EndSplineSet
EndChar

StartChar: uni004C
Encoding: 76 76 45
Width: 415
Flags: W
HStem: -100 5<230 240> -5 87<155 230 240 402> -5 5<59 69 230 240 402 412> 562 20G<59 155>
VStem: 59 96<82 582> 59 10<-95 -5> 230 10<-100 0> 402 10<-95 0>
LayerCount: 2
Fore
SplineSet
59 -5 m 1xb7
 59 582 l 1
 155 582 l 1
 155 82 l 1
 412 82 l 1xdb
 412 -5 l 1
 59 -5 l 1xb7
240 -100 m 1
 230 -100 l 1
 230 0 l 1
 240 0 l 1xb3
 240 -100 l 1
69 -95 m 1xb7
 402 -95 l 1
 402 0 l 1
 412 0 l 1
 412 -100 l 2
 412 -105 l 1
 407 -105 l 2
 235 -105 l 0
 59 -105 l 1
 59 -100 l 2
 59 0 l 1
 69 0 l 1
 69 -95 l 1xb7
EndSplineSet
EndChar

StartChar: uni004D
Encoding: 77 77 46
Width: 661
Flags: W
HStem: -105 10<67 99 109 141 520 553 563 596> 562.125 19.875G<57 102.062 502.509 606>
VStem: 57 10<-95 -5> 99 10<-95 -5> 141 10<-95 -5> 230 10<248.137 319.84> 327 10<132.256 222.897> 422 10<248.283 319.686> 510 10<-95 -5> 553 10<-95 -5> 596 10<-95 -5>
LayerCount: 2
Fore
SplineSet
109 -95 m 1
 141 -95 l 1
 141 -5 l 1
 109 -5 l 1
 109 -95 l 1
99 -95 m 1
 99 -5 l 1
 67 -5 l 1
 67 -95 l 1
 99 -95 l 1
240 235.751 m 1
 297.866 164.075 318.684 138.144 327 131.709 c 1
 327 220.523 l 1
 325.888 220.836 324.76 221.306 323.578 221.984 c 0
 314.02 227.474 293.029 254.08 240 319.84 c 1
 240 235.751 l 1
230 248.137 m 1
 230 332.233 l 1
 152 428.844 l 1
 152 344.75 l 1
 230 248.137 l 1
337 132.256 m 1
 343.172 137.566 356.905 154.209 422 235.755 c 1
 422 319.686 l 1
 385.676 274.067 350.071 228.934 340.812 222.578 c 0
 339.4 221.614 338.135 221.01 337 220.631 c 1
 337 132.256 l 1
432 248.283 m 1
 509 344.75 l 1
 509 428.719 l 1
 432 332.23 l 1
 432 248.283 l 1
563 -95 m 1
 596 -95 l 1
 596 -5 l 1
 563 -5 l 1
 563 -95 l 1
553 -95 m 1
 553 -5 l 1
 520 -5 l 1
 520 -95 l 1
 553 -95 l 1
57 -5 m 1
 57 0 l 1
 57 582.125 l 1
 102.062 581 l 1
 144.375 581 l 1
 236.891 467.141 l 2
 285.828 406.453 323.578 360.141 331.031 350.328 c 1
 335.328 354.141 347.203 369.109 422.109 462.125 c 2
 518.609 582 l 1
 606 582 l 1
 606 0 l 1
 606 -5 l 1
 606 -100 l 1
 606 -105 l 1
 601 -105 l 1
 558 -105 l 1
 515 -105 l 1
 510 -105 l 1
 510 -100 l 1
 510 -5 l 1
 510 0 l 1
 510 221.984 l 1
 509.513 329.344 l 1
 430.906 230.859 l 2
 373.938 159.5 350.094 128.953 340.812 122.578 c 0
 337.219 120.125 334.578 120 332.609 120 c 0
 332.406 120 332.422 120 332 120 c 0
 331.516 120 330.984 120 330.406 120 c 0
 328.141 120.094 325.969 120.595 323.578 121.969 c 0
 313.049 128.02 277.97 172.814 231.109 230.859 c 2
 151.487 329.483 l 1
 151 221.984 l 1
 151 0 l 1
 151 -5 l 1
 151 -100 l 1
 151 -105 l 1
 104 -105 l 1
 57 -105 l 1
 57 -100 l 1
 57 -5 l 1
EndSplineSet
EndChar

StartChar: uni004E
Encoding: 78 78 47
Width: 660
Flags: W
HStem: -100 5<101 111 528.281 531 558 568> -5 5<61 71 101 111 140 149.984 523.719 531 558 568 596 606> 562 20G<61 153.657 514 606>
VStem: 61 10<-95 -5> 101 10<-100 0> 141 10<-95 0 338 438> 514 92<148.312 582> 521 10<-95 -5> 558 10<-100 0> 596 10<-95 0>
LayerCount: 2
Fore
SplineSet
61 -5 m 1xfc40
 61 582 l 1
 136.281 582 l 1
 513.062 148.312 l 1
 514 356.016 l 1
 514 582 l 1
 606 582 l 1xfe
 606 -5 l 1
 523.719 -5 l 1
 151 424.609 l 1
 151 218.984 l 1
 149.984 -5 l 1
 61 -5 l 1xfc40
568 -100 m 1xfc80
 558 -100 l 1
 558 0 l 1
 568 0 l 1
 568 -100 l 1xfc80
531 -100 m 1xfd
 521 -100 l 1
 521 0 l 1
 531 0 l 1
 531 -100 l 1xfd
111 -100 m 1
 101 -100 l 1
 101 0 l 1
 111 0 l 1
 111 -100 l 1
71 -95 m 1
 140 -95 l 1
 140 0 l 1
 150 0 l 1
 150 -100 l 2
 150 -105 l 1
 106 -105 l 0
 66 -105 l 2
 61 -105 l 1
 61 -100 l 2
 61 0 l 1
 71 0 l 1
 71 -95 l 1
151 338 m 1
 141 338 l 1
 141 438 l 1
 151 438 l 1
 151 338 l 1
341 120.859 m 1
 528.281 -95 l 1
 596 -95 l 1
 596 0 l 1
 606 0 l 1
 606 -100 l 2
 606 -105 l 1xfc40
 601 -105 l 2
 563 -105 l 0
 526 -105 l 2
 523.719 -105 l 1
 522.219 -103.281 l 2
 458.891 -30.2812 395.562 42.7188 332.219 115.719 c 2
 331 117.141 l 1
 331 119 l 2
 331 219 l 1
 341 219 l 1
 341 120.859 l 1
EndSplineSet
EndChar

StartChar: uni004F
Encoding: 79 79 48
Width: 693
Flags: W
HStem: -107.412 9.9999<282.995 397.802> -7.41211 87.1406<245.87 443.673> 398.416 6.38602<395.875 397.983> 398.416 3.82901<402.172 405.875> 400.619 10<299.803 390.497> 491.854 6.56198<395.875 405.875> 500.619 90.985<246.507 417.663>
VStem: 29.4062 98.1718<261.462 384.089> 29.4062 10<138.671 190.525> 161.875 10.534<323.416 325.025 338.376 414.194> 648.031 10<134.131 186.057>
LayerCount: 2
Fore
SplineSet
180.875 30.346 m 1xc6e0
 180.875 -58.3362 l 1
 90.0956 -9.17109 39.4062 88.9028 39.4062 190.525 c 2
 39.4062 211.843 l 1
 59.1988 135.494 107.866 68.0082 180.875 30.346 c 1xc6e0
190.299 25.9124 m 1
 237.443 5.2688 289.549 -1.1326 341.312 -7.41211 c 1
 430.406 -7.41211 518.594 24.1973 577.438 83.9004 c 0
 612.249 119.228 635.775 162.349 648.031 208.585 c 1
 648.031 186.057 l 2
 648.031 113.963 622.092 43.4804 570.312 -9.06836 c 0
 513.748 -66.4726 428.078 -97.4121 341.312 -97.4121 c 1
 291.422 -102.737 240.5 -94.9749 190.757 -63.7883 c 1
 189.465 -33.0604 188.276 -3.94678 190.299 25.9124 c 1
578.875 -12.584 m 1
 578.875 87.416 l 1
 568.875 87.416 l 1
 568.875 -12.584 l 1
 578.875 -12.584 l 1
569.875 262.791 m 1
 569.875 318.416 l 1
 559.875 318.416 l 1
 559.875 262.791 l 1
 569.875 262.791 l 1
171.875 323.416 m 1
 171.992 328.492 172.185 333.453 172.409 338.376 c 1
 168.996 334.493 165.791 330.479 162.812 326.338 c 2
 161.875 325.025 l 1
 161.875 323.416 l 1
 171.875 323.416 l 1
405.875 398.416 m 1xd660
 405.875 402.245 l 1xd660
 402.172 403.244 l 2
 400.082 403.793 397.983 404.313 395.875 404.802 c 1
 395.875 398.416 l 1xe660
 405.875 398.416 l 1xd660
161.875 325.025 m 1
 147.611 304.91 136.746 283.339 129.347 261.034 c 1
 128.167 270.168 127.578 279.364 127.578 288.572 c 0
 127.578 329.302 139.078 370.227 161.875 406.95 c 1
 161.875 325.025 l 1
555.038 240.038 m 1
 543.995 198.353 520.623 157.727 489.625 131.213 c 0
 448.609 96.1348 396.078 79.7285 344.156 79.7285 c 0
 269.422 79.7285 196.084 114.326 158.172 177.979 c 0
 146.687 197.262 138.443 217.736 133.427 238.769 c 1
 140.152 267.359 152.69 295.132 170.938 320.494 c 0
 205.93 369.129 276.781 400.619 345.375 400.619 c 0xce60
 363.875 400.619 382.172 398.166 399.578 393.588 c 0
 481.935 371.918 534.073 320.525 555.038 240.038 c 1
555.038 240.038 m 1
 555.359 238.769 l 1
 565.047 241.275 l 1
 563.373 247.824 561.498 254.196 559.424 260.39 c 1
 558.301 253.615 556.832 246.813 555.038 240.038 c 1
129.347 261.034 m 1
 127.025 254.033 125.044 246.961 123.406 239.838 c 1
 133.156 237.604 l 1
 133.427 238.769 l 1
 131.672 246.131 130.312 253.562 129.347 261.034 c 1
161.875 406.95 m 1
 164.72 411.533 167.741 416.051 170.938 420.494 c 2
 172.025 421.984 l 1
 171.875 423.416 l 1
 161.875 423.416 l 1
 161.875 406.95 l 1
395.875 494.529 m 1
 399.578 493.588 l 1
 405.875 491.854 l 1
 405.875 498.416 l 1
 395.875 498.416 l 1
 395.875 494.529 l 1
314.422 590.4 m 0
 222.047 582.229 133.832 535.929 87.8281 472.354 c 0
 48.0503 417.382 29.4062 353.307 29.4062 290.525 c 2xc760
 29.4062 190.525 l 2xc6e0
 29.4062 82.9004 84.5 -21.3496 183.625 -71.0527 c 0
 232.5 -95.5527 287.094 -107.412 341.312 -107.412 c 0
 430.406 -107.412 518.594 -75.8027 577.438 -16.0996 c 0
 631.188 38.4473 658.031 111.572 658.031 186.057 c 2
 658.031 286.057 l 2
 658.031 357.322 633.062 429.744 583.734 489.604 c 0
 533.719 550.275 431.734 591.604 340.875 591.604 c 0
 331.938 591.604 323.125 591.166 314.422 590.4 c 0
172.409 338.376 m 1
 173.559 363.694 175.509 388.016 172.025 421.984 c 1
 207.378 469.774 277.484 500.619 345.375 500.619 c 0
 362.568 500.619 379.585 498.513 395.875 494.529 c 1
 395.875 404.802 l 1xe660
 379.448 408.619 362.491 410.619 345.375 410.619 c 0xce60
 279.51 410.619 211.976 383.381 172.409 338.376 c 1
405.875 402.245 m 1xd660
 405.875 491.854 l 1
 466.147 474.539 539.424 432.551 559.953 317.557 c 0
 561.438 309.197 562.078 300.479 562.078 291.541 c 0
 562.078 281.365 561.168 270.911 559.424 260.39 c 1
 535.225 332.654 483.84 380.672 405.875 402.245 c 1xd660
EndSplineSet
EndChar

StartChar: uni0050
Encoding: 80 80 49
Width: 432
Flags: W
HStem: -100 5<97 107> -5 5<54 64 97 107 140 150> 144 10.016<193 274.646> 244 84.094<150 183 188 303.764> 244 5<183 193> 402 5<145 200> 497 85<150 299.384> 497 5<190 200>
VStem: 54 10<-95 -5> 97 10<-100 0> 140 10<-95 0 149 249> 183 10<154.016 249> 190 10<402 502> 255 10<399 499> 324 105.031<376.203 447> 331.016 2.98401<400.016 428.891> 380 10<205 305> 419.031 10<270.862 411.062>
LayerCount: 2
Fore
SplineSet
54 -5 m 1xf6e6
 54 582 l 1
 161 582 l 2
 286.672 582 309.453 578.641 351.422 555.375 c 0
 401.906 527.391 429.031 469 429.031 411.062 c 0
 429.031 371.156 416.375 331 388.641 301.578 c 0
 347.641 258.094 297.156 244 188 244 c 2
 150 244 l 1
 150 -5 l 1
 54 -5 l 1xf6e6
324.516 444.781 m 0
 312.125 470.891 289.906 487.5 258.969 494.109 c 0
 246.578 496.75 220.609 497 195 497 c 2
 150 497 l 1
 150 328.094 l 1
 200.891 329 l 2
 283.828 330.953 305.438 338.922 323.5 376.172 c 0
 328.391 386.266 331.016 400.016 331.016 413.234 c 0xf6e5
 331.016 428.891 327.172 439.219 324.516 444.781 c 0
334 376.203 m 1
 324 376.203 l 1
 324 447 l 1xe4e6
 334 447 l 1
 334 376.203 l 1
265 399 m 1
 255 399 l 1
 255 499 l 1
 265 499 l 1
 265 399 l 1
200 402 m 1xe5ec
 190 402 l 1
 190 502 l 1
 200 502 l 1
 200 402 l 1xe5ec
390 205 m 1xe4e480
 380 205 l 1
 380 305 l 1
 390 305 l 1
 390 205 l 1xe4e480
107 -100 m 1
 97 -100 l 1
 97 0 l 1
 107 0 l 1
 107 -100 l 1
64 -95 m 1
 140 -95 l 1
 140 0 l 1
 150 0 l 1
 150 -100 l 2
 150 -105 l 1
 145 -105 l 2
 102 -105 l 0
 59 -105 l 2
 54 -105 l 1
 54 -100 l 2
 54 0 l 1
 64 0 l 1
 64 -95 l 1
150 149 m 1
 140 149 l 1
 140 249 l 1
 150 249 l 1xece4
 150 149 l 1
193 154.016 m 1xecf440
 298.25 154.438 343.375 168.141 381.359 208.422 c 0
 407.047 235.672 419.031 273.266 419.031 311.062 c 0
 419.031 411.062 l 1xecf440
 429.031 411.062 l 1xece6
 429.031 311.062 l 0
 429.031 271.156 416.375 231 388.641 201.578 c 0
 347.641 158.094 297.156 144 188 144 c 2
 183 144 l 1
 183 149 l 2
 183 249 l 1
 193 249 l 1
 193 154.016 l 1xecf440
195 407 m 2
 231.125 407 250.234 406.188 261.031 403.891 c 0
 285.375 398.703 309 386.734 324.938 364.031 c 1
 316.766 358.281 l 1
 302.375 378.766 281.016 389.438 258.969 394.109 c 0
 246.578 396.734 220.609 397 195 397 c 2
 145 397 l 1
 145 407 l 1
 195 407 l 2
EndSplineSet
EndChar

StartChar: uni0051
Encoding: 81 81 50
Width: 692
Flags: W
HStem: -221 5<544.719 550 558 562.719> -6.95312 12.9531<437 438.219> 0.5 0.5<420 430> 399 9.56201<305.729 390.936> 498.562 91.672<249.191 444.762>
VStem: 31.8594 97.5626<185.86 389.576> 31.8594 10<136.964 188.844> 82 10<22 119.297> 194 10<352 452> 257 10<-97 3> 303 10<-121 -25.1562> 391 10<399 494.125> 437 10<-6.95312 6> 540 10<-215 -115> 558 10<-216 -116> 564 96.609<188.435 391.664> 569 5<148.844 393.109> 598 10<-173.406 -77 15 115> 650.609 10<137.877 290.312>
LayerCount: 2
Fore
SplineSet
569 287 m 0x98fc80
 569 392 502 474 396 499 c 1
 331 513 248 494 199 452 c 0
 146 407 115 324 127 256 c 0
 142 170 188 114 268 85 c 0
 414 33 569 137 569 287 c 0x98fc80
318.609 587.984 m 0
 323.891 588.391 342.125 589.859 344.75 589.984 c 0
 347.156 590.109 349.344 590.234 350.547 590.234 c 0
 375.453 590.234 427.641 580.641 457.547 570.75 c 0
 536.625 544.609 585.469 503.828 624.375 433.406 c 0
 648.891 389.062 660.609 339.656 660.609 290.312 c 0
 660.609 227.969 641.531 165.453 604.094 112.125 c 0
 570.172 63.8281 500.641 16.1875 443.25 1.15625 c 2
 438.219 -0.1875 l 1
 454.484 -6.6875 485.953 -17.5 512.406 -25.2031 c 0
 547.297 -35.375 568.016 -40.0469 586.312 -40.0469 c 0
 598.375 -40.0469 609.656 -37.7969 623.781 -34.1562 c 0
 631.391 -32.1875 640.703 -31 643 -31 c 2
 645.078 -31 l 1
 646.531 -32.4688 l 2
 647.047 -32.9844 648.156 -35.3906 648.047 -36.1094 c 0
 647.797 -37.6406 648.016 -37.9219 646.766 -39.7969 c 0
 643.031 -45.3438 622.844 -64.6406 606.469 -80.5938 c 2
 564.922 -121.109 l 1
 544.719 -120 l 2
 475.422 -115.922 394.672 -84.5312 305.234 -25.1562 c 0
 281.234 -9.23438 272 -4.6875 260.781 -1.84375 c 0
 188.516 16.4375 118.562 63.8281 82.7969 119.297 c 0
 48.7969 172.016 31.8594 230.422 31.8594 288.844 c 0x9cfd
 31.8594 349.406 50.1406 410.078 86.8438 464.781 c 0
 130.969 530.547 225.812 580.891 318.609 587.984 c 0
345.812 66.4375 m 0
 319.641 66.4375 292.766 70.75 266.312 80.2969 c 0
 184.875 109.688 137.531 166.594 122.078 255.141 c 0
 120.297 265.281 119.422 275.719 119.422 286.281 c 0
 119.422 348.797 149.172 416.078 195.75 455.797 c 0
 235.297 489.516 295.094 508.562 351.156 508.562 c 0
 366.922 508.562 382.5 507.281 397.094 503.875 c 0
 505.766 478.516 574 394.219 574 287 c 0x98fc80
 574 160.688 466.766 66.4375 345.812 66.4375 c 0
564 287 m 0x98fd
 564 389.781 498.375 469.969 394.906 494.125 c 0
 381.078 497.344 366.281 498.562 351.156 498.562 c 0
 297.344 498.562 239.375 479.859 202.25 448.203 c 0
 158.328 410.75 129.422 345.641 129.422 286.281 c 0
 129.422 276.25 130.266 266.391 131.922 256.859 c 0
 146.5 173.359 191.047 118.094 269.688 89.7031 c 0
 295.078 80.5469 320.766 76.4375 345.812 76.4375 c 0
 461.672 76.4375 564 166.656 564 287 c 0x98fd
401 399 m 1
 391 399 l 1
 391 499 l 1
 401 499 l 1
 401 399 l 1
204 352 m 1
 194 352 l 1
 194 452 l 1
 204 452 l 1
 204 352 l 1
605 15 m 1
 595 15 l 1
 595 115 l 1
 605 115 l 1
 605 15 l 1
447 -6.95312 m 1xd8fc
 437 -6.95312 l 1
 437 6 l 1
 447 6 l 1
 447 -6.95312 l 1xd8fc
430 0.5 m 2xb8fc
 420 0.5 l 2
 420 1 l 2
 430 1 l 2
 430 0.5 l 2xb8fc
608 -177 m 1x98fc40
 598 -177 l 1
 598 -77 l 1
 608 -77 l 1
 608 -177 l 1x98fc40
568 -216 m 1x98fe
 558 -216 l 1
 558 -116 l 1
 568 -116 l 1
 568 -216 l 1x98fe
550 -215 m 1
 540 -215 l 1
 540 -115 l 1
 550 -115 l 1
 550 -215 l 1
313 -121 m 1
 303 -121 l 1
 303 -21 l 1
 313 -21 l 1
 313 -121 l 1
267 -97 m 1
 257 -97 l 1
 257 3 l 1
 267 3 l 1
 267 -97 l 1
92 22 m 1x99fc
 82 22 l 1
 82 122 l 1
 92 122 l 1
 92 22 l 1x99fc
41.8594 188.844 m 0x9afc
 41.8594 132.375 58.1875 75.9062 91.2031 24.7031 c 0
 125.188 -27.9844 193.469 -74.5 263.219 -92.1562 c 0
 275.984 -95.375 286.703 -100.859 310.766 -116.844 c 0
 399.266 -175.578 478.578 -206.078 545.281 -210 c 2
 561.078 -210.891 l 1
 599.531 -173.406 l 2
 615.469 -158.125 635.469 -138.625 638.453 -134.203 c 0
 638.703 -133.828 638.047 -136.109 638.047 -136.109 c 0
 638.047 -36.1094 l 1
 648.047 -36.1094 l 1
 648.047 -136.109 l 0
 648.047 -137.578 647.391 -138.844 646.766 -139.797 c 0
 643.672 -144.391 622.969 -164.672 606.469 -180.594 c 0
 593.078 -193.531 579.828 -206.578 566.484 -219.578 c 2
 564.922 -221.109 l 1
 562.719 -221 l 2
 556.719 -220.656 550.719 -220.344 544.719 -220 c 0
 475.422 -215.938 394.672 -184.531 305.234 -125.156 c 0
 281.234 -109.234 272 -104.688 260.781 -101.844 c 0
 188.516 -83.5625 118.562 -36.1719 82.7969 19.2969 c 0
 48.7969 72.0156 31.8594 130.422 31.8594 188.844 c 0
 31.8594 288.844 l 1x9cfc
 41.8594 288.844 l 1
 41.8594 188.844 l 0x9afc
595.906 17.875 m 0
 632.156 69.5 650.609 130 650.609 190.312 c 0
 650.609 290.312 l 1x98fc20
 660.609 290.312 l 1
 660.609 190.312 l 0x98fd
 660.609 127.969 641.531 65.4531 604.094 12.125 c 0
 590.469 -7.28125 571.25 -26.4375 549.375 -43.4844 c 1
 543.234 -35.5938 l 1
 564.469 -19.0469 583.047 -0.453125 595.906 17.875 c 0
195.75 355.797 m 0
 235.281 389.531 295.094 408.562 351.156 408.562 c 0
 366.922 408.562 382.5 407.281 397.094 403.875 c 0
 486.766 382.984 549.594 321.172 568.234 239.391 c 1
 558.484 237.172 l 1
 540.703 315.188 481.391 373.969 394.906 394.125 c 0
 381.078 397.344 366.281 398.562 351.156 398.562 c 0
 297.344 398.562 239.359 379.875 202.25 348.203 c 0
 170.484 321.094 146.438 279.594 135.703 236.156 c 1
 126 238.547 l 1
 137.203 283.891 162.047 327.031 195.75 355.797 c 0
EndSplineSet
EndChar

StartChar: uni0052
Encoding: 82 82 51
Width: 510
Flags: W
HStem: -105 10<71 145 412.641 505> -100 5<103 113 412.641 415 455 465> -5 5<61 71 103 113 145 155 407.359 415 455 465 505 510.219> 144 9.938<177 207.513> 244 86.234<155 167 172 242.56> 244 5<167 177> 265.25 14.75<313 315.688> 404 5<150 184> 499 83<155 279.452> 499 5<174 184>
VStem: 61 10<-95 -5> 103 10<-100 0> 145 10<-95 0 149 249> 167 10<153.938 249> 174 10<404 504> 226 10<401 501> 285 10<375 471.438> 313 10<265.25 280> 334 10<10 107.359> 384 10<-69 28.2344> 396.141 10<278.349 416.422> 405 10<-94.0469 -3.95312> 455 10<-100 0> 505 10<-94.2031 1>
LayerCount: 2
Fore
SplineSet
61 -5 m 1x39b9fb
 61 582 l 1
 146 582 l 2
 245.906 582 273.453 578.062 315.984 559.594 c 0
 375.984 533.516 406.141 474.688 406.141 416.422 c 0
 406.141 359.906 377.672 303.547 320.344 275.578 c 0
 318 274.438 316.578 273.688 315.688 273.156 c 2
 319.969 270.016 l 2
 349.031 248.312 383.312 205.047 423.234 141.672 c 0
 463.453 77.7969 478.359 54.8906 496.031 30.9531 c 0
 503.844 20.3594 513.031 6.46875 514.391 3.54688 c 0
 514.703 2.84375 515 2.01562 515 1 c 2
 512.609 -6.5 l 1
 510.219 -4 l 2
 510.188 -4 488.062 -5 459.953 -5 c 2
 407.359 -3.95312 l 1
 384.844 28.2344 l 1
 334.75 107.359 l 1
 268.766 214.719 233.828 244 172 244 c 2
 155 244 l 1
 155 -5 l 1
 61 -5 l 1x39b9fb
286.5 471.438 m 0
 270.219 487.469 250.828 493.031 230.266 496.062 c 0
 217.812 497.891 194.766 499 179 499 c 2
 155 499 l 1
 155 330.234 l 1
 192.844 332 l 1
 252.062 332.969 264.922 336.688 286.453 358.531 c 0
 300.984 373.25 309 393.922 309 415 c 0
 309 436.078 301.234 456.922 286.5 471.438 c 0
295 375 m 1
 285 375 l 1
 285 475 l 1
 295 475 l 1
 295 375 l 1
236 401 m 1
 226 401 l 1
 226 501 l 1
 236 501 l 1
 236 401 l 1
184 404 m 1x317bf3
 174 404 l 1
 174 504 l 1
 184 504 l 1
 184 404 l 1x317bf3
323 265.25 m 1x3339f3
 313 265.25 l 1
 313 280 l 1
 323 280 l 1
 323 265.25 l 1x3339f3
465 -100 m 1x7139f3
 455 -100 l 1
 455 0 l 1
 465 0 l 1
 465 -100 l 1x7139f3
415 -99 m 1x3139f7
 405 -99 l 1
 405 1 l 1
 415 1 l 1
 415 -99 l 1x3139f7
394 -69 m 1
 384 -69 l 1
 384 31 l 1
 394 31 l 1
 394 -69 l 1
344 10 m 1
 334 10 l 1
 334 110 l 1
 344 110 l 1
 344 10 l 1
113 -100 m 1x7139f3
 103 -100 l 1
 103 0 l 1
 113 0 l 1
 113 -100 l 1x7139f3
71 -95 m 1xb139f3
 145 -95 l 1xb139f3
 145 0 l 1
 155 0 l 1
 155 -100 l 2x7139f3
 155 -105 l 1
 108 -105 l 0
 61 -105 l 1xb139f3
 61 -100 l 2x7139f3
 61 0 l 1
 71 0 l 1
 71 -95 l 1xb139f3
155 149 m 1
 145 149 l 1
 145 249 l 1
 155 249 l 1x3539f3
 155 149 l 1
177 153.938 m 1xb53df3
 240.109 152.344 277.188 119.5 343.25 12.6406 c 0
 359.625 -13.8594 376.5 -39.8906 393.156 -66.2344 c 1
 412.641 -94.0469 l 1
 460.047 -95 l 2
 477.156 -95 494.219 -94.5938 505 -94.2031 c 1
 505 1 l 1
 515 1 l 1
 515 -99 l 1
 510.219 -104 l 2
 510.188 -104 488.062 -105.203 459.953 -105 c 0
 443.281 -104.875 426.562 -104.328 409.906 -104 c 2
 407.359 -103.953 l 1
 405.906 -101.875 l 2
 398.906 -91.875 391.5 -82 384.844 -71.7656 c 0
 367.828 -45.6562 351.141 -19.1562 334.75 7.35938 c 0
 268.484 114.547 233.828 144 172 144 c 2
 167 144 l 1
 167 149 l 2
 167 249 l 1
 177 249 l 1
 177 153.938 l 1xb53df3
396.141 316.422 m 0x3139fb
 396.141 416.422 l 1
 406.141 416.422 l 1
 406.141 316.422 l 0
 406.141 279.203 393.891 241.906 369.031 212.828 c 1
 361.422 219.328 l 1
 384.578 246.406 396.141 281.375 396.141 316.422 c 0x3139fb
179 409 m 2
 195.234 409 218.172 407.938 231.734 405.938 c 0
 254.375 402.625 275.609 396.375 293.5 378.562 c 0
 296.875 375.219 299.953 371.719 302.672 367.906 c 1
 294.531 362.094 l 1
 292.156 365.422 289.406 368.531 286.5 371.438 c 0
 270.297 387.547 250.828 393.031 230.266 396.062 c 0
 217.812 397.891 194.766 399 179 399 c 2
 150 399 l 1
 150 409 l 1
 179 409 l 2
EndSplineSet
EndChar

StartChar: uni0053
Encoding: 83 83 52
Width: 387
Flags: W
HStem: -111.344 10<145.011 235.991> -11.3438 84.4219<118.628 257.686> 401.719 10<166.743 237.594> 444 5<337 338.062> 501.719 86.343<137.016 280.722>
VStem: 29.5312 88.1718<394.853 482.256> 32 10<-52.2344 42.2344 284.303 325.516> 48 10<-65 30.7656> 164 10<163 258.719> 265 10<391 491> 276.141 89.14<95.3391 189.237> 321 10<358.609 444.672> 332 10<358.609 444.672 449 449> 343 10<-13 -11.1562 85.1562 87> 355.281 10<9.05945 148.328>
LayerCount: 2
Fore
SplineSet
159.859 583.875 m 0xfce0
 172.094 586.719 185.812 588.062 200.281 588.062 c 0
 243.672 588.062 293.641 576.25 328.484 555.344 c 1
 341.938 548 l 1
 343 497.047 l 2xfcc4
 343 477.953 342.953 453.906 342.281 449.266 c 0
 341.578 444.531 338.062 444 337 444 c 2
 337 444 334.516 444.562 334.266 444.672 c 0
 331.766 445.891 326.25 450.438 322.891 453.078 c 0
 309.328 463.781 284.078 479.422 268.016 486.406 c 0
 244.25 496.75 221.547 501.719 201.234 501.719 c 0
 151.516 501.719 117.703 474.609 117.703 441.891 c 0
 117.703 425.25 126.312 406.125 147.391 386.672 c 0
 161.938 373.25 182.328 358.828 233.562 328.297 c 0
 319.781 276.891 365.281 216 365.281 148.328 c 0
 365.281 127.656 361.203 106.469 352.641 85.1562 c 0
 327.438 22.3438 263.266 -11.3438 191.219 -11.3438 c 0
 145.281 -11.3438 95.8906 2.29688 50.3438 30.7656 c 2
 32 42.2344 l 1
 32 164.672 l 1xfae0
 61.4531 136.609 l 2
 105.5 94.6719 154.578 73.0781 194.891 73.0781 c 0
 239.703 73.0781 260.828 98.3125 269.547 115.281 c 0
 274.094 124.094 276.141 132.766 276.141 141.484 c 0
 276.141 174.844 243.75 212.188 166.422 258.719 c 0
 67.0469 318.516 29.5312 361.953 29.5312 425.516 c 0
 29.5312 429.719 29.7188 433.984 30.0156 438.344 c 0
 35.1719 514.281 80.375 565.281 159.859 583.875 c 0xfce0
331 357 m 1xf8d0
 321 357 l 1
 321 457 l 1
 331 457 l 1
 331 357 l 1xf8d0
275 391 m 1
 265 391 l 1
 265 491 l 1
 275 491 l 1
 275 391 l 1
353 -13 m 1xf8c4
 343 -13 l 1
 343 87 l 1
 353 87 l 1
 353 -13 l 1xf8c4
58 -65 m 1xf9c0
 48 -65 l 1
 48 35 l 1
 58 35 l 1
 58 -65 l 1xf9c0
174 163 m 1
 164 163 l 1
 164 263 l 1
 174 263 l 1
 174 163 l 1
39.5312 325.516 m 0
 39.5312 266.906 74.1562 225.859 171.578 167.281 c 0
 214.016 141.766 244.156 118.344 263 95.7812 c 1
 255.328 89.375 l 1
 237.688 110.484 208.344 133.516 166.422 158.719 c 0
 67.0312 218.484 29.5312 261.953 29.5312 325.516 c 0
 29.5312 425.516 l 1xfcc0
 39.5312 425.516 l 1
 39.5312 325.516 l 0
42 -52.2344 m 1xfac2
 55.6562 -60.7656 l 2
 99.625 -88.2812 147.266 -101.344 191.219 -101.344 c 0
 260.344 -101.344 319.969 -69.4219 343.359 -11.1562 c 0
 351.5 9.15625 355.281 29.0312 355.281 48.3281 c 0
 355.281 148.328 l 1xfac2
 365.281 148.328 l 1xf8e0
 365.281 48.3281 l 0
 365.281 27.6562 361.203 6.46875 352.641 -14.8438 c 0
 327.438 -77.6562 263.266 -111.344 191.219 -111.344 c 0
 145.281 -111.344 95.875 -97.7344 50.3438 -69.2344 c 0
 45.0156 -65.9062 39.6875 -62.5781 34.3438 -59.2344 c 2
 32 -57.7656 l 1
 32 -55 l 2
 32 45 l 1
 42 45 l 1
 42 -52.2344 l 1xfac2
201.234 411.719 m 0
 223.062 411.719 246.984 406.453 271.984 395.594 c 0
 289.641 387.906 314.688 372.25 329.109 360.922 c 2
 332 358.609 l 1
 332 449 l 1
 342 449 l 1
 342 349 l 2
 342 344 l 1xf8c8
 337 344 l 2
 335.906 344 335.016 344.312 334.266 344.672 c 0
 331.766 345.891 326.25 350.438 322.891 353.078 c 0
 309.328 363.781 284.078 379.422 268.016 386.406 c 0
 244.25 396.75 221.547 401.719 201.234 401.719 c 0
 176.812 401.719 155.938 395.031 141.281 384.406 c 1
 135.406 392.5 l 1
 152.094 404.609 175 411.719 201.234 411.719 c 0
EndSplineSet
EndChar

StartChar: uni0054
Encoding: 84 84 53
Width: 513
Flags: W
HStem: -100 5<250 260> -5 5<208 218 250 260 293 303> 397 10<20 213 403 494> 497 5<10 20 109 119 393 403 494 504>
VStem: 10 10<407 497> 109 10<402 502> 208 10<-95 -5> 208 5<397 407> 250 10<-100 0> 293 10<-95 0 402 502> 393 10<407 502> 494 10<407 502>
LayerCount: 2
Fore
SplineSet
10 497 m 1xfdf0
 10 582 l 1
 504 582 l 1
 504 497 l 1
 303 497 l 1
 303 -5 l 1
 208 -5 l 1xfef0
 208 497 l 1
 10 497 l 1xfdf0
260 -100 m 1
 250 -100 l 1
 250 0 l 1
 260 0 l 1
 260 -100 l 1
119 402 m 1
 109 402 l 1
 109 502 l 1
 119 502 l 1
 119 402 l 1
20 407 m 1
 213 407 l 1
 213 397 l 1xfdf0
 15 397 l 2
 10 397 l 1
 10 402 l 2
 10 502 l 1
 20 502 l 1
 20 407 l 1
218 -95 m 1xfef0
 293 -95 l 1
 293 0 l 1
 303 0 l 1
 303 -100 l 2
 303 -105 l 1
 298 -105 l 2
 255 -105 l 0
 208 -105 l 1
 208 -100 l 2
 208 0 l 1xfdf0
 218 0 l 1
 218 -95 l 1xfef0
303 402 m 1
 293 402 l 1
 293 502 l 1
 303 502 l 1
 303 402 l 1
403 407 m 1
 494 407 l 1
 494 502 l 1
 504 502 l 1
 504 402 l 2
 504 397 l 1
 499 397 l 2
 398 397 l 2
 393 397 l 1
 393 402 l 2
 393 502 l 1
 403 502 l 1
 403 407 l 1
EndSplineSet
EndChar

StartChar: uni0055
Encoding: 85 85 54
Width: 599
Flags: W
HStem: -111 184.078<221.367 386.422> -106 5<297.969 307.969> -11 5<297.969 307.969> 362 20G<543.969 553.969> 562 20G<46.9375 142.969 460.892 555>
VStem: 47.9688 95<139.493 582> 67.9688 10<14.9688 114.016> 297.969 10<-106 -6> 459.969 94<136.232 582> 532.969 10<42 43.4062 140.594 142> 543.969 10<107.392 382>
LayerCount: 2
Fore
SplineSet
47.9688 385.969 m 2x3d80
 46.9375 582 l 1
 142.969 582 l 1
 142.969 400 l 2
 142.969 166.297 144.985 154.875 174.672 121.359 c 1
 204.391 89.3125 252.047 73.0781 300.11 73.0781 c 0x9d80
 351.344 73.0781 402.812 91.2188 432.094 127.156 c 0
 458.422 159.484 458.969 165.297 459.969 391.031 c 2
 461 582 l 1
 555 582 l 1
 553.969 381.969 l 2
 552.969 180.25 552.11 172.281 542.766 140.594 c 0
 515.141 46.9844 421.5 -11 302.969 -11 c 0
 190.688 -11 102.36 35.6094 68.375 114.016 c 0
 48.9688 158.812 48.9688 165.453 47.9688 385.969 c 2x3d80
542.969 42 m 1x1940
 532.969 42 l 1
 532.969 142 l 1
 542.969 142 l 1
 542.969 42 l 1x1940
307.969 -106 m 1x79
 297.969 -106 l 1
 297.969 -6 l 1
 307.969 -6 l 1
 307.969 -106 l 1x79
77.9688 17.0469 m 1x9b80
 110.235 -56.0156 193.719 -101 302.969 -101 c 0
 418.438 -101 507.062 -45.0625 533.172 43.4062 c 0
 542.094 73.6406 543.11 79.75 543.969 282.016 c 0
 544.11 315.344 543.969 348.672 543.969 382 c 1x5b20
 553.969 382 l 1
 553.969 348.672 554.11 315.312 553.969 281.984 c 0
 553.11 80.25 552.11 72.2812 542.766 40.5938 c 0
 515.141 -53.0156 421.5 -111 302.969 -111 c 0
 190.688 -111 102.422 -64.375 68.375 14.0156 c 2
 67.9688 14.9688 l 1
 67.9688 16 l 2
 67.9688 116 l 1
 77.9688 116 l 1
 77.9688 17.0469 l 1x9b80
EndSplineSet
EndChar

StartChar: uni0056
Encoding: 86 86 55
Width: 509
Flags: HW
LayerCount: 2
Fore
SplineSet
-4.5 570.828 m 2
 -4.71875 571.25 l 1
 -4.84375 571.781 l 2
 -4.9375 572.156 -5.1875 573.703 -5.15625 574 c 0
 -5 575.547 -4.67188 579.703 1.64062 581.016 c 0
 7.25 582.156 21.1406 582 41 582 c 2
 87.2969 582 l 1
 174.594 377.969 l 2
 223.625 263.359 247.438 208.141 256.578 190.547 c 1
 339.406 383.953 l 1
 423.688 582 l 1
 468 582 l 2
 472.25 581.984 501.875 581.984 510 580.312 c 0
 514.672 579.344 515.109 576.062 515 575 c 0
 514.875 573.781 515.016 574.141 514.609 573 c 0
 511.875 565.406 458.578 438.578 393.609 285.047 c 0
 315.078 99.5156 277.125 6.17188 272.656 -2.90625 c 0
 272.484 -3.25 272.281 -3.59375 272.031 -3.95312 c 0
 271.5 -4.76562 270.562 -6.0625 268.578 -7.09375 c 0
 265.422 -8.73438 260.625 -8.98438 256.75 -8.98438 c 2
 246.5 -7.96875 l 1
 243.562 -7.6875 l 1
 119.406 281.031 l 2
 63.6875 411.594 -2.40625 566.328 -4.5 570.828 c 2
394 187 m 1
 384 187 l 1
 384 287 l 1
 394 287 l 1
 394 187 l 1
273 -101 m 1
 263 -101 l 1
 263 -1 l 1
 273 -1 l 1
 273 -101 l 1
262 -104 m 1
 252 -104 l 1
 252 -4 l 1
 262 -4 l 1
 262 -104 l 1
252 -103 m 1
 242 -103 l 1
 242 -3 l 1
 252 -3 l 1
 252 -103 l 1
129 184.031 m 1
 250.438 -98.3125 l 1
 257.25 -99.0156 l 2
 260.766 -98.9219 262.766 -98.8125 263.922 -98.2188 c 0
 264 -98.1719 263.531 -98.7656 263.531 -98.7656 c 2
 263.891 -98.0312 l 1
 264.469 -97.4688 l 2
 264.469 -97.4688 263.547 -98.7656 263.688 -98.4844 c 0
 266.828 -92.0938 319.656 36.125 384.391 188.953 c 0
 450.828 345.781 502.328 468.453 505.203 476.391 c 0
 505.328 476.766 505 475 505 475 c 0
 505 575 l 1
 515 575 l 1
 515 475 l 0
 515 474.203 514.812 473.562 514.609 473 c 0
 511.359 463.984 447.969 313.484 393.609 185.047 c 0
 328.766 31.8594 276.453 -95.1875 272.656 -102.906 c 0
 272.516 -103.203 272.391 -103.391 272.312 -103.547 c 0
 271.75 -104.516 270.656 -106.016 268.578 -107.094 c 0
 264.625 -109.156 257.953 -109.062 256.75 -108.984 c 0
 253.406 -108.766 249.844 -108.312 246.5 -107.969 c 2
 243.562 -107.688 l 1
 242.406 -104.969 l 2
 201.406 -9.64062 160.406 85.6875 119.406 181.031 c 2
 119 181.969 l 1
 119 183 l 2
 119 283 l 1
 129 283 l 1
 129 184.031 l 1
EndSplineSet
EndChar

StartChar: uni0057
Encoding: 87 87 56
Width: 823
Flags: W
HStem: -101 5<233.375 246.625 629.375 641.625> -6 5<226.625 253.375 622.625 648.375> 560.219 19.781G<-4.64062 -0.265625 29.9297 94.3701 387.606 490.437 783.658 828>
VStem: -5 10<474.969 572.141> 110 10<186 284.141> 225 30<-101 -1> 337 10<127 227> 432 10<360 460> 527 10<132 230.141> 621 29<-101 -1> 640 1<-101 -1> 729 10<119 219> 818 10<339.969 439>
LayerCount: 2
Fore
SplineSet
-4.64062 572.141 m 1xff98
 -4.3125 580.219 l 1
 -0.265625 579 l 2
 -0.21875 579 18.8594 580 41 580 c 2
 86.3906 580 l 1
 166.641 378.859 l 2
 206.844 278.391 230.234 221.297 241.75 195.5 c 1
 395.609 580 l 1
 482.375 580 l 1
 562.641 380.875 l 1
 637.922 195.312 l 1
 642.859 206.609 653.5 231.703 679.344 296.844 c 2
 757.359 493.844 l 1
 791.609 580 l 1
 828 580 l 1
 828 438.031 l 1
 648.375 -6 l 1
 622.625 -6 l 1
 527.359 230.141 l 2
 474.812 360.375 447.875 428.531 437.938 449.703 c 1
 346.625 225.125 l 1
 253.375 -6 l 1
 226.625 -6 l 1
 110.359 284.141 l 1
 -4.64062 572.141 l 1xff98
246.578 181 m 1
 246.578 181 l 1
739 119 m 1
 729 119 l 1
 729 219 l 1
 739 219 l 1
 739 119 l 1
650 -101 m 1xffd8
 640 -101 l 1
 640 -1 l 1xffb8
 650 -1 l 1
 650 -101 l 1xffd8
641 -101 m 1
 631 -101 l 1
 631 -1 l 1
 641 -1 l 1
 641 -101 l 1
631 -101 m 1
 621 -101 l 1
 621 -1 l 1xffd8
 631 -1 l 1
 631 -101 l 1
537 132 m 1
 527 132 l 1
 527 232 l 1
 537 232 l 1
 537 132 l 1
442 360 m 1
 432 360 l 1
 432 460 l 1
 442 460 l 1
 442 360 l 1
347 127 m 1
 337 127 l 1
 337 227 l 1
 347 227 l 1
 347 127 l 1
255 -101 m 1
 245 -101 l 1
 245 -1 l 1
 255 -1 l 1
 255 -101 l 1
245 -101 m 1
 235 -101 l 1
 235 -1 l 1
 245 -1 l 1
 245 -101 l 1
235 -101 m 1
 225 -101 l 1
 225 -1 l 1
 235 -1 l 1
 235 -101 l 1
120 186 m 1
 110 186 l 1
 110 286 l 1
 120 286 l 1
 120 186 l 1
5 474.969 m 1
 119.641 187.859 l 1
 233.375 -96 l 1
 246.625 -96 l 1
 337.375 128.875 l 2
 411.016 309.422 429.641 356.766 432.453 362.125 c 0
 432.547 362.297 432.531 362.25 432.688 362.5 c 0
 432.781 362.688 437.219 365.297 437.359 365.281 c 0
 439.078 365.125 440.812 364.766 442.828 361.844 c 0
 449.594 351.953 478.203 279.953 536.641 133.859 c 2
 629.375 -96 l 1
 641.625 -96 l 1
 818 339.969 l 1
 818 439 l 1
 828 439 l 1
 828 339 l 2
 828 338.031 l 1
 827.641 337.125 l 2
 797.969 263.797 768.297 190.453 738.641 117.125 c 0
 708.969 43.7969 679.297 -29.5469 649.641 -102.875 c 2
 648.375 -106 l 1
 636 -106 l 0
 626 -106 l 2
 622.625 -106 l 1
 621.359 -102.875 l 2
 590.031 -25.2031 558.531 52.4062 527.359 130.141 c 0
 451.219 320 439.062 349.625 434.578 356.172 c 0
 433.859 357.219 437.359 355.281 437.359 355.281 c 0
 437.219 355.281 441.562 357.953 441.469 357.766 c 2
 441.328 357.484 l 1
 441.156 357.219 l 2
 441.312 357.453 l 0
 438.016 351.219 398.031 251.625 346.625 125.125 c 0
 315.781 49.1875 285.297 -26.875 254.641 -102.875 c 2
 253.375 -106 l 1
 250 -106 l 2
 240 -106 l 0
 230 -106 l 2
 226.625 -106 l 1
 225.359 -102.859 l 2
 187.031 -7.1875 148.625 88.4531 110.359 184.141 c 0
 71.9688 280.125 33.6875 376.141 -4.64062 472.141 c 2
 -5 473.031 l 1
 -5 474 l 2
 -5 574 l 1
 5 574 l 1
 5 474.969 l 1
EndSplineSet
EndChar

StartChar: uni0058
Encoding: 88 88 57
Width: 740
Flags: W
HStem: -104 9.8125<148 243.656 635.812 733> -99 5<189 199 241 243.656 639.031 642 684 694> -4 5<142.781 148 189 199 241 248.344 635.812 642 684 694 733 743> 297.141 5.85901<380 390> 562 20G<-3 32.0703 199.914 281.706 601.329 681.023>
VStem: -1 10<341.117 446 446.062 456.724> 50 10<473 573> 138 10<-94.1875 -4> 189 10<-100 0> 241 10<-100 0> 267 10<341.797 436.812> 339 10<18 118> 437 10<136 236> 452 10<118 214.812> 548 10<1 97.8125> 603 10<336 436> 632 10<-94 -4> 684 10<-99 1> 716 0.640991<475.002 477.438> 733 10<-93.0938 2>
LayerCount: 2
Fore
SplineSet
156 574.734 m 0x3ffff0
 156 574.875 155.906 575 155.969 575.078 c 0
 158.297 577.781 156.375 579.516 161.141 580.391 c 0
 166.688 581.422 188.828 582 211 582 c 2
 265.375 582 l 1
 355.859 471.188 l 1
 442.031 367.766 l 1
 528.125 472.156 l 1
 617.625 582 l 1
 671 582 l 2
 691.047 581.969 716.328 581.219 721.125 580.25 c 0
 725.688 579.328 726.203 576.031 726 575 c 0
 725.594 572.984 726 573.391 724.875 571.766 c 0
 720.562 565.5 671.766 505.828 611.859 432.828 c 0
 565.578 376.422 511.766 310.734 501.906 297.078 c 1
 510.375 285.516 551.094 235.734 620.859 151.188 c 2
 748.469 -2.78125 l 1
 689.047 -4 l 1
 635.812 -4 l 1
 634.766 -3.46875 l 2
 634.266 -3.15625 634.016 -3.10938 633.156 -2.3125 c 0
 628.531 2.04688 599.453 37.4375 549.141 97.8125 c 2
 453.141 214.812 l 1
 442 228.188 l 1
 248.344 -5 l 1
 194 -5 l 2
 165.891 -5 142.828 -4 142.781 -4 c 2
 138 1 l 1
 138.422 2.34375 137.812 2.375 139.188 4.32812 c 0
 143.922 11.0781 196.953 75.25 262.172 153.203 c 0
 361.328 271.766 378.938 294.25 380.875 300.109 c 1
 374.594 307.328 315.359 379.844 268.156 436.812 c 0
 218.531 496.672 162.234 564.344 157.125 571.75 c 0
 156.766 572.266 156.109 573.25 156 574.734 c 0x3ffff0
3.85938 440.781 m 0
 -0.046875 444.031 -0.671875 441.297 -1.40625 446.062 c 0
 -2.39062 452.406 -3 482.781 -3 508 c 2
 -3 580 l 1
 28 580 l 2
 36.1406 579.953 50.0938 579.688 55.2969 578.328 c 0
 57.5781 577.75 60.0938 576.203 60 573 c 0
 59.9688 572.203 60.0156 572.266 59.7188 571.25 c 0
 57.5938 563.875 25.2656 485.375 8.6875 444.266 c 0
 8.3125 443.344 4.60938 440.156 3.85938 440.781 c 0
390 297.141 m 1
 380 297.141 l 1
 380 303 l 1
 390 303 l 1
 390 297.141 l 1
613 336 m 1
 603 336 l 1
 603 436 l 1
 613 436 l 1
 613 336 l 1
694 -99 m 1x7ffff0
 684 -99 l 1
 684 1 l 1
 694 1 l 1
 694 -99 l 1x7ffff0
642 -99 m 1
 632 -99 l 1
 632 1 l 1
 642 1 l 1
 642 -99 l 1
558 1 m 1
 548 1 l 1
 548 101 l 1
 558 101 l 1
 558 1 l 1
462 118 m 1
 452 118 l 1
 452 218 l 1
 462 218 l 1
 462 118 l 1
447 136 m 1
 437 136 l 1
 437 236 l 1
 447 236 l 1
 447 136 l 1
349 18 m 1
 339 18 l 1
 339 118 l 1
 349 118 l 1
 349 18 l 1
251 -100 m 1
 241 -100 l 1
 241 0 l 1
 251 0 l 1
 251 -100 l 1
199 -100 m 1
 189 -100 l 1
 189 0 l 1
 199 0 l 1
 199 -100 l 1
148 -94.1875 m 1xbffff0
 159 -94.5938 176.5 -95 194 -95 c 2
 243.656 -95 l 1
 340.156 21.1875 l 2
 372.812 60.5312 405.484 99.8594 438.156 139.188 c 2
 442 143.812 l 1
 445.844 139.203 l 2
 450.844 133.203 455.891 127.219 460.859 121.188 c 0
 492.891 82.2188 524.703 43.0625 556.859 4.1875 c 0
 591.859 -38.1406 631.156 -85.5312 639.031 -94 c 1
 688.953 -94 l 1x7ffff0
 733 -93.0938 l 1
 733 2 l 1
 743 2 l 1
 743 -98 l 2
 743 -102.906 l 1
 738.094 -103 l 2
 721.766 -103.328 705.391 -103.844 689.047 -104 c 0
 671.719 -104.172 654.328 -104 637 -104 c 2
 635.812 -104 l 1
 634.766 -103.469 l 2
 634.359 -103.266 633.891 -103 633.156 -102.312 c 0
 628.531 -97.9531 599.281 -62.7188 549.141 -2.1875 c 0
 516.969 36.6719 485.141 75.8125 453.141 114.812 c 2
 442 128.188 l 1
 347.844 14.8125 l 2
 315.188 -24.5312 282.516 -63.8594 249.844 -103.188 c 2
 248.344 -105 l 1
 246 -105 l 2
 194 -105 l 0
 165.891 -105 142.828 -104 142.781 -104 c 2xbffff0
 140.391 -106.5 l 1
 138 -99 l 1x7ffff0
 138 1 l 1
 148 1 l 1
 148 -94.1875 l 1xbffff0
604.125 339.172 m 2
 654.625 401.062 712.578 471.547 716.641 477.438 c 0
 716.875 477.781 716 475 716 475 c 0
 716 575 l 1
 726 575 l 1
 726 475 l 0
 726 473.375 725.25 472.312 724.875 471.766 c 0
 719.781 464.375 662.578 395 611.875 332.828 c 2
 539.188 244.172 l 1
 531.453 250.516 l 1
 604.125 339.172 l 2
277 341.797 m 1
 351.406 251.328 l 1
 343.688 244.984 l 1
 267 338.203 l 1
 267 340 l 2
 267 440 l 1
 277 440 l 1
 277 341.797 l 1
9 371.594 m 1
 24.8125 410.469 48.7188 469.219 50.1094 474.031 c 0
 50.1406 474.125 50 473 50 473 c 1
 50 573 l 1
 60 573 l 1
 60 473 l 0
 60 472.422 59.9219 471.922 59.7188 471.25 c 0
 57.8594 464.812 44.6094 432.953 8.64062 344.125 c 0
 7.6875 341.797 5.5 340.609 3.04688 341.094 c 0
 0.578125 341.562 -1 343.5 -1 346 c 0
 -1 446 l 1
 9 446 l 1
 9 371.594 l 1
EndSplineSet
EndChar

StartChar: uni0059
Encoding: 89 89 58
Width: 510
Flags: HW
LayerCount: 2
Fore
SplineSet
-5 576 m 2
 -2.60938 583.5 l 1
 -0.21875 581 l 2
 -0.171875 581 22.8906 582 51 582 c 2
 104.453 582 l 1
 181.953 482.062 l 1
 255.016 388.547 l 1
 328.062 481.078 l 1
 406.562 581 l 1
 458.906 581 l 2
 467.172 581.297 474.922 581.422 481.859 581.406 c 0
 487.516 581.406 504.625 581.312 510.109 580.25 c 0
 514.672 579.344 515.203 576.031 515 575 c 0
 514.625 573.047 515 573.469 513.953 571.844 c 0
 509.828 565.5 464.688 507.047 408.938 435.906 c 2
 304 302.266 l 1
 304 -5 l 1
 208 -5 l 1
 208 301.281 l 1
 103.078 435.906 l 2
 54.8594 496.391 0.984375 565.297 -3.95312 572.844 c 0
 -4.29688 573.375 -5 574.406 -5 576 c 2
112 339 m 1
 102 339 l 1
 102 439 l 1
 112 439 l 1
 112 339 l 1
261 -100 m 1
 251 -100 l 1
 251 0 l 1
 261 0 l 1
 261 -100 l 1
218 -95 m 1
 294 -95 l 1
 294 0 l 1
 304 0 l 1
 304 -100 l 2
 304 -105 l 1
 299 -105 l 2
 256 -105 l 0
 213 -105 l 2
 208 -105 l 1
 208 -100 l 2
 208 0 l 1
 218 0 l 1
 218 -95 l 1
304 204 m 1
 294 204 l 1
 294 304 l 1
 304 304 l 1
 304 204 l 1
410 353.5 m 1
 454.766 410.719 501.875 471.625 505.562 477.297 c 0
 505.859 477.75 505 475 505 475 c 0
 505 575 l 1
 515 575 l 1
 515 475 l 0
 515 473.422 514.312 472.391 513.953 471.844 c 0
 509.078 464.344 456.375 396.453 408.938 335.922 c 2
 400 324.516 l 1
 400 339 l 2
 400 439 l 1
 410 439 l 1
 410 353.5 l 1
5 476 m 0
 5 476 4.10938 478.797 4.42188 478.312 c 0
 7.64062 473.391 54.4844 412.891 110.922 342.094 c 2
 216.938 206.078 l 1
 209.062 199.922 l 1
 103.078 335.906 l 1
 46.3281 407.078 0.234375 466.453 -3.95312 472.844 c 0
 -5 474.453 -4.96875 474 -5 476 c 0
 -5.54688 509.328 -5 542.672 -5 576 c 1
 5 576 l 1
 5 476 l 0
EndSplineSet
EndChar

StartChar: uni005A
Encoding: 90 90 59
Width: 547
Flags: HW
LayerCount: 2
Fore
SplineSet
27 497.031 m 1
 27 582 l 1
 282 582 l 2
 417.516 582 515.703 581.828 529.422 579.562 c 0
 530.688 579.359 535.062 578.469 535.062 574.109 c 0
 535.062 573.484 534.359 571.609 533.812 570.781 c 0
 530.812 567 448.688 454.859 351.047 321.062 c 2
 175.844 81 l 1
 349.016 81 l 1
 537 79.9688 l 1
 537 -5 l 1
 271 -5 l 2
 127.984 -5 9.96875 -4 9.95312 -4 c 2
 5 1 l 1
 5.54688 2.85938 4.98438 2.5 6 4.0625 c 0
 10.9844 11.7812 91.7344 120.781 188.969 254.953 c 1
 366.125 496 l 1
 203.984 496 l 1
 27 497.031 l 1
352 224 m 1
 342 224 l 1
 342 324 l 1
 352 324 l 1
 352 224 l 1
276 -100 m 1
 266 -100 l 1
 266 0 l 1
 276 0 l 1
 276 -100 l 1
209 401 m 1
 199 401 l 1
 199 501 l 1
 209 501 l 1
 209 401 l 1
37 406.969 m 1
 204.016 406 l 1
 302.5 406 l 1
 302.5 396 l 1
 203.984 396 l 2
 146.656 396.328 89.2969 396.672 31.9688 397 c 2
 27 397.031 l 1
 27 402 l 2
 27 502 l 1
 37 502 l 1
 37 406.969 l 1
15 -94.0469 m 1
 68.6406 -94.4688 169.828 -95 271 -95 c 2
 527 -95 l 1
 527 0 l 1
 537 0 l 1
 537 -100 l 2
 537 -105 l 1
 271 -105 l 0
 127.984 -105 9.96875 -104 9.95312 -104 c 2
 7.48438 -106.5 l 1
 5 -99 l 1
 5 1 l 1
 15 1 l 1
 15 -94.0469 l 1
342.953 226.938 m 1
 525 475.703 l 1
 525 574 l 1
 535 574 l 1
 535 474 l 2
 535 471.922 l 1
 533.531 470.469 l 2
 533.531 470.469 533.875 470.844 533.812 470.781 c 0
 529.938 465.891 432.5 332.953 351.047 221.062 c 2
 243.016 73.0469 l 1
 234.938 78.9531 l 1
 342.953 226.938 l 1
EndSplineSet
EndChar

StartChar: uni005B
Encoding: 91 91 60
Width: 283
Flags: W
LayerCount: 2
Fore
SplineSet
73 -187 m 1
 172 -187 l 1
 271 -187 l 1
 271 -151 l 1
 271 -116 l 1
 214 -116 l 1
 157 -116 l 1
 157 195 l 1
 157 506 l 1
 214 506 l 1
 271 506 l 1
 271 542 l 1
 271 577 l 1
 172 577 l 1
 73 577 l 1
 73 195 l 1
 73 -187 l 1
EndSplineSet
Substitution2: "'rtla' Right to Left Alternates lookup 0 subtable" uni005D
EndChar

StartChar: uni005C
Encoding: 92 92 61
Width: 238
Flags: W
LayerCount: 2
Fore
SplineSet
92 285 m 2
 174 -7 l 1
 206 -8 l 2
 230 -8 237 -8 236 -6 c 0
 235 -4 198 130 153 291 c 2
 71 586 l 1
 40 586 l 2
 13 586 10 585 10 582 c 0
 10 580 47 446 92 285 c 2
EndSplineSet
EndChar

StartChar: uni005D
Encoding: 93 93 62
Width: 284
Flags: W
LayerCount: 2
Fore
SplineSet
13 506 m 1
 70 506 l 1
 127 506 l 1
 127 195 l 1
 127 -116 l 1
 70 -116 l 1
 13 -116 l 1
 13 -151 l 1
 13 -187 l 1
 112 -187 l 1
 211 -187 l 1
 211 195 l 1
 211 577 l 1
 112 577 l 1
 13 577 l 1
 13 542 l 1
 13 506 l 1
EndSplineSet
Substitution2: "'rtla' Right to Left Alternates lookup 0 subtable" uni005B
EndChar

StartChar: uni005E
Encoding: 94 94 63
Width: 396
Flags: W
LayerCount: 2
Fore
SplineSet
22 248 m 0
 21 245 24 245 60 245 c 2
 100 245 l 1
 148 366 l 1
 197 487 l 2
 198 487 221 432 248 366 c 2
 298 245 l 1
 337 245 l 2
 373 245 375 245 374 249 c 0
 373 251 340 326 301 415 c 2
 229 577 l 1
 198 577 l 1
 167 577 l 1
 95 415 l 2
 56 325 23 251 22 248 c 0
EndSplineSet
EndChar

StartChar: uni005F
Encoding: 95 95 64
Width: 467
Flags: W
LayerCount: 2
Fore
SplineSet
-12 -167 m 1
 234 -167 l 1
 481 -167 l 1
 481 -139 l 1
 481 -112 l 1
 234 -112 l 1
 -12 -112 l 1
 -12 -139 l 1
 -12 -167 l 1
EndSplineSet
EndChar

StartChar: uni0060
Encoding: 96 96 65
Width: 282
Flags: W
LayerCount: 2
Fore
SplineSet
98 521 m 2
 144 460 l 1
 169 460 l 2
 193 460 193 460 191 465 c 0
 190 468 178 496 163 527 c 1
 137 585 l 1
 93 585 l 2
 66 585 50 585 51 584 c 1
 51 582 72 554 98 521 c 2
EndSplineSet
EndChar

StartChar: uni0061
Encoding: 97 97 66
Width: 360
Flags: HW
LayerCount: 2
Fore
SplineSet
125.266 389.938 m 0
 135.062 391.328 144.766 392.344 154.5 392.344 c 0
 199.688 392.344 253.344 374.172 278.203 335.719 c 0
 295.578 308.812 295.562 309.766 296 179.016 c 0
 296.281 97.5938 297.062 66.9062 300.484 56.7969 c 0
 300.703 56.1562 300.812 55.0312 301.906 54.625 c 0
 302.703 54.3281 302.453 54.5312 302.625 54.5156 c 0
 302.922 54.5 303.188 54.5 303.188 54.5 c 2
 305.641 54.5156 315.25 56.5156 329.406 65.2812 c 0
 337.953 70.5625 341.312 72.5781 343.672 73.5156 c 0
 344.547 73.8594 345.469 74.4375 346 74 c 0
 348.766 71.7188 350.531 73.5938 351.375 68.8438 c 0
 352.141 64.5625 352 53.1562 352 44 c 2
 352 17 l 1
 334.438 7.64062 l 2
 312.359 -5.25 290.469 -11.0469 271.484 -11.0469 c 0
 246.016 -11.0469 223.719 -0.140625 213.672 21.4531 c 1
 211.031 19.9531 206.438 17 202.594 14.7188 c 0
 173.188 -2.625 143.406 -10.6562 116.641 -10.6562 c 0
 58.6406 -10.6562 17.9844 26.8281 17.9844 84.5781 c 0
 17.9844 85.0625 18 85.5625 18 86.0312 c 0
 18 127.672 36.8594 156.688 81.3906 183.266 c 0
 96.6406 192.359 118.469 200.328 179.359 221.719 c 2
 212.531 233.375 l 1
 211.031 245.5 l 1
 208.047 284.797 186.906 309.453 150.75 309.453 c 0
 133.938 309.453 114.094 303.828 92.2812 292.562 c 0
 76.8281 284.562 66.1875 277.156 42.2344 256.188 c 1
 23 240.453 l 1
 23 294.062 l 1
 24.0469 340.359 l 1
 38.8438 352.875 l 1
 62.5625 371.438 94.2344 385.562 125.266 389.938 c 0
212 78.4375 m 1
 212 131 l 2
 212 148.922 211.625 166.859 211.234 178.562 c 1
 197.547 173.922 161.688 159.078 147.297 151.562 c 0
 138.797 147.125 104.312 130.75 104.312 99.6406 c 0
 104.312 91.6875 106.625 83.25 111.406 74.375 c 0
 121.938 54.7656 142.953 53.3281 150.828 53.3281 c 0
 167.266 53.3281 186.578 59.6406 205 73 c 2
 212 78.4375 l 1
150 56 m 1
 140 56 l 1
 140 156 l 1
 150 156 l 1
 150 56 l 1
337 -88 m 1
 327 -88 l 1
 327 12 l 1
 337 12 l 1
 337 -88 l 1
223 -76 m 1
 213 -76 l 1
 213 24 l 1
 223 24 l 1
 223 -76 l 1
205 -81 m 1
 195 -81 l 1
 195 19 l 1
 205 19 l 1
 205 -81 l 1
221 229.297 m 1
 211 229.297 l 1
 211 246 l 1
 221 246 l 1
 221 229.297 l 1
95 197 m 1
 85 197 l 1
 85 297 l 1
 95 297 l 1
 95 197 l 1
44 160 m 1
 34 160 l 1
 34 260 l 1
 44 260 l 1
 44 160 l 1
33 161.547 m 1
 35.7656 163.812 l 1
 59.7969 184.844 71.3906 193 87.7188 201.438 c 0
 110.609 213.281 131.812 219.453 150.75 219.453 c 0
 157.188 219.453 163.328 218.75 169.125 217.359 c 1
 166.797 207.641 l 1
 161.812 208.828 156.469 209.453 150.75 209.453 c 0
 133.938 209.453 114.094 203.828 92.2812 192.562 c 0
 76.8281 184.562 66.2812 177.047 42.2344 156.188 c 0
 38.6562 153.078 34.8281 150.125 31.1719 147.125 c 2
 23 140.453 l 1
 23 151 l 2
 23 251 l 1
 33 251 l 1
 33 161.547 l 1
27.9844 -15.4219 m 0
 27.9844 -69.4219 66.4219 -100.656 116.641 -100.656 c 0
 141.375 -100.656 169.391 -93.3438 197.406 -76.7188 c 0
 205.016 -72.2188 209.531 -69.0156 212.859 -68.0781 c 0
 213.781 -67.8125 214.547 -67.7188 215.266 -67.7188 c 0
 219.688 -67.7188 221.172 -70.8594 222.594 -74.0312 c 0
 230.594 -91.8594 248.391 -101.047 271.484 -101.047 c 0
 289.016 -101.047 309.453 -95.3594 329.562 -83.6406 c 2
 342 -77 l 1
 342 20 l 1
 352 20 l 1
 352 -80 l 2
 352 -83 l 1
 349.359 -84.4062 l 2
 344.359 -87.0781 339.344 -89.5469 334.438 -92.3594 c 0
 312.266 -105.094 290.469 -111.047 271.484 -111.047 c 0
 245.781 -111.047 223.312 -99.9531 213.406 -77.9688 c 0
 212.125 -75.125 215.266 -77.7188 215.266 -77.7188 c 0
 215.266 -77.7188 215.703 -77.6562 215.578 -77.6875 c 0
 214.234 -78.0781 207.734 -82.2344 202.594 -85.2812 c 0
 173.188 -102.625 143.406 -110.656 116.641 -110.656 c 0
 58.6406 -110.656 17.9844 -73.1719 17.9844 -15.4219 c 0
 17.9844 84.5781 l 1
 27.9844 84.5781 l 1
 27.9844 -15.4219 l 0
142.703 60.4375 m 0
 160.719 70.125 197.656 85.0312 211 88.9688 c 1
 211 185 l 1
 221 185 l 1
 221 85 l 2
 221 80 l 1
 216 80 l 2
 216.219 80.0156 l 0
 211.141 79.3281 164.172 60.625 147.297 51.5625 c 0
 143.812 49.6875 140.219 48 137.094 46.1562 c 1
 132 54.7656 l 1
 135.406 56.7812 138.969 58.4219 142.703 60.4375 c 0
EndSplineSet
EndChar

StartChar: uni0062
Encoding: 98 98 67
Width: 422
Flags: HW
LayerCount: 2
Fore
SplineSet
45 16.5312 m 1
 45 582 l 1
 132 582 l 1
 132 363.328 l 1
 139.562 367.359 l 1
 168.109 384.109 199.281 392.094 229.688 392.094 c 0
 281.375 392.094 330.734 368.859 360.125 325.812 c 0
 385.484 288.703 397.984 241.344 397.984 194.453 c 0
 397.984 142.594 382.797 91.1875 351.859 54.8281 c 1
 327.781 24.4688 284.875 2.25 236.016 -7.89062 c 0
 224.344 -10.3125 210.062 -11.3438 194.422 -11.3438 c 0
 148.406 -11.3438 90.8125 -2.28125 56.1562 12.3594 c 1
 45 16.5312 l 1
294.516 126.203 m 0
 305.172 147.891 310.188 171.125 310.188 193.547 c 0
 310.188 248.422 280.672 297.656 233.969 308.109 c 0
 226.844 309.703 219.875 310.188 212.922 310.188 c 0
 191 310.188 169.516 303.156 145.797 286.859 c 2
 132.969 278.312 l 1
 132 177.969 l 1
 132 79.9531 l 1
 145.094 76.875 l 2
 164.141 72.7812 181.391 70.7812 196.969 70.7812 c 0
 255.5 70.7812 281.375 99.5 294.516 126.203 c 0
240 213 m 1
 230 213 l 1
 230 313 l 1
 240 313 l 1
 240 213 l 1
148 191 m 1
 138 191 l 1
 138 291 l 1
 148 291 l 1
 148 191 l 1
353 -42 m 1
 343 -42 l 1
 343 58 l 1
 353 58 l 1
 353 -42 l 1
240 -103 m 1
 230 -103 l 1
 230 -3 l 1
 240 -3 l 1
 240 -103 l 1
63 -83 m 1
 53 -83 l 1
 53 17 l 1
 63 17 l 1
 63 -83 l 1
55 -76.5312 m 1
 59.8438 -78.3594 l 1
 92.3438 -92.0781 149.797 -101.344 194.422 -101.344 c 0
 209.594 -101.344 223.328 -100.312 233.984 -98.1094 c 0
 281.141 -88.3125 322.219 -66.4688 344.141 -38.8281 c 1
 373.078 -4.8125 387.984 44.5156 387.984 94.4531 c 0
 387.984 194.453 l 1
 397.984 194.453 l 1
 397.984 94.4531 l 0
 397.984 42.5938 382.797 -8.8125 351.859 -45.1719 c 1
 327.781 -75.5312 284.875 -97.75 236.016 -107.891 c 0
 224.344 -110.312 210.062 -111.344 194.422 -111.344 c 0
 148.406 -111.344 90.8594 -102.172 56.1562 -87.6406 c 0
 53.5156 -86.5469 50.9062 -85.6875 48.25 -84.6875 c 2
 45 -83.4688 l 1
 45 -80 l 2
 45 20 l 1
 55 20 l 1
 55 -76.5312 l 1
133 190.344 m 1
 140.203 195.141 l 2
 165.109 212.266 188.781 220.188 212.922 220.188 c 0
 220.562 220.188 228.344 219.609 236.031 217.891 c 0
 272.516 209.781 298.969 180.766 311.625 144.766 c 1
 302.188 141.453 l 1
 290.375 175.047 266.422 200.891 233.969 208.109 c 0
 226.844 209.688 219.875 210.188 212.922 210.188 c 0
 191 210.188 169.547 203.094 145.797 186.859 c 0
 140.844 183.469 135.781 180.172 130.781 176.844 c 2
 123 171.656 l 1
 123 181 l 2
 123 281 l 1
 133 281 l 1
 133 190.344 l 1
EndSplineSet
EndChar

StartChar: uni0063
Encoding: 99 99 68
Width: 370
Flags: HW
LayerCount: 2
Fore
SplineSet
188.25 389.938 m 0
 198.031 391.344 208.25 392.281 218.828 392.281 c 0
 249.688 392.281 282.906 385.828 311.875 373.641 c 2
 332.922 365.453 l 1
 334 321.062 l 2
 334 304.781 333.906 284.266 333.312 280.312 c 0
 332.594 275.531 329.062 275 328 275 c 2
 326.031 275.406 l 2
 325.984 275.422 318.672 278.234 310.672 282.578 c 0
 277.719 300.469 249.953 309.297 224.297 309.297 c 0
 206.703 309.297 189.938 305.688 173.172 297.5 c 0
 139.219 280.922 114.766 236.438 114.766 190.875 c 0
 114.766 188.344 114.828 185.844 114.984 183.312 c 0
 119.703 111.672 166.031 71.3281 235.109 71.3281 c 0
 263.984 71.3281 296.734 78.375 331.891 93.5312 c 0
 332.5 93.7969 333.797 94.6406 335.484 94.4688 c 0
 337.781 94.2344 341.062 93.8125 342.172 87.4844 c 0
 343.109 82.1562 343 69.1562 343 52 c 2
 343 10.4688 l 1
 322.578 3.25 l 1
 292.047 -6.3125 260.641 -10.9688 230.5 -10.9688 c 0
 177.391 -10.9688 127.766 3.25 92.875 31.0938 c 0
 49.1875 65.9688 27.1562 126.609 27.1562 188.031 c 0
 27.1562 237.797 41.9531 288.188 72.0469 327.062 c 0
 94.375 355.891 142.188 383.328 188.25 389.938 c 0
318 187 m 1
 308 187 l 1
 308 287 l 1
 318 287 l 1
 318 187 l 1
176 202 m 1
 166 202 l 1
 166 302 l 1
 176 302 l 1
 176 202 l 1
326 -92 m 1
 316 -92 l 1
 316 8 l 1
 326 8 l 1
 326 -92 l 1
101 -65 m 1
 91 -65 l 1
 91 35 l 1
 101 35 l 1
 101 -65 l 1
37.1562 88.0312 m 0
 37.1562 28.9219 58.625 -28.7812 99.125 -61.0938 c 0
 131.688 -87.0781 179.172 -100.969 230.5 -100.969 c 0
 259.609 -100.969 289.875 -96.5156 319.422 -87.25 c 1
 333 -82.4688 l 1
 333 14 l 1
 343 14 l 1
 343 -86 l 2
 343 -89.5312 l 1
 339.656 -90.7188 l 2
 334 -92.7188 328.297 -94.9062 322.578 -96.75 c 0
 292.094 -106.484 260.641 -110.969 230.5 -110.969 c 0
 177.391 -110.969 127.766 -96.75 92.875 -68.9062 c 0
 49.1875 -34.0312 27.1562 26.6094 27.1562 88.0312 c 0
 27.1562 188.031 l 1
 37.1562 188.031 l 1
 37.1562 88.0312 l 0
168.828 206.5 m 0
 186.719 215.188 205.188 219.297 224.297 219.297 c 0
 252.219 219.297 281.641 210.078 315.328 191.422 c 1
 323 187.734 l 1
 323 280 l 1
 333 280 l 1
 333 180 l 1
 326.031 175.406 l 2
 325.984 175.422 318.672 178.234 310.672 182.578 c 0
 277.734 200.469 249.953 209.297 224.297 209.297 c 0
 206.703 209.297 189.953 205.625 173.172 197.5 c 0
 151.391 186.938 133.594 164.75 123.531 138.266 c 1
 114.188 141.812 l 1
 124.969 170.234 144.188 194.547 168.828 206.5 c 0
EndSplineSet
EndChar

StartChar: uni0064
Encoding: 100 100 69
Width: 431
Flags: HW
LayerCount: 2
Fore
SplineSet
299.875 380.516 m 1
 300.812 387.125 301 404.422 301 475 c 2
 301 582 l 1
 388 582 l 1
 388 -5.04688 l 1
 283.953 -4 l 2
 190.203 -3 184.562 -2.70312 166.656 2.1875 c 0
 127.688 12.8125 91.2656 35.9062 72.9062 62.1406 c 0
 45.9219 100.672 32.0781 147.812 32.0781 194.5 c 0
 32.0781 244.156 47.4688 293 78.1875 329.234 c 0
 112.375 369.562 169.812 392.625 227.094 392.625 c 0
 244.734 392.625 262.484 390.562 279.375 385.812 c 0
 287.578 383.5 295.297 381.734 299.875 380.516 c 1
290.281 304.312 m 2
 282.672 307.156 268.594 311.156 259.891 313.125 c 0
 250.641 315.219 242.312 316.328 234.078 316.328 c 0
 219.891 316.328 205.828 313.172 187.781 306.328 c 0
 144.016 289.719 119.938 237.922 119.938 186.453 c 0
 119.938 141.75 137.984 98.7656 174.25 80.4688 c 0
 186.688 74.1875 209.156 71 261 71 c 2
 301 71 l 1
 301 300.469 l 1
 290.281 304.312 l 2
297 209 m 1
 287 209 l 1
 287 309 l 1
 297 309 l 1
 297 209 l 1
266 218 m 1
 256 218 l 1
 256 318 l 1
 266 318 l 1
 266 218 l 1
191 211 m 1
 181 211 l 1
 181 311 l 1
 191 311 l 1
 191 211 l 1
289 -99 m 1
 279 -99 l 1
 279 1 l 1
 289 1 l 1
 289 -99 l 1
173 -93 m 1
 163 -93 l 1
 163 7 l 1
 173 7 l 1
 173 -93 l 1
82 -35 m 1
 72 -35 l 1
 72 65 l 1
 82 65 l 1
 82 -35 l 1
42.0781 94.5 m 0
 42.0781 49.7344 55.4688 4.4375 81.0938 -32.1406 c 0
 97.4219 -55.4219 132.5 -78.1406 169.344 -88.1875 c 0
 185.625 -92.625 189.797 -93 284.047 -94 c 2
 378 -94.9531 l 1
 378 0 l 1
 388 0 l 1
 388 -100 l 2
 388 -105.047 l 1
 382.953 -105 l 2
 349.953 -104.672 316.953 -104.344 283.953 -104 c 0
 190.203 -103.016 184.562 -102.703 166.656 -97.8125 c 0
 127.688 -87.1875 91.2656 -64.0938 72.9062 -37.8594 c 0
 45.9219 0.671875 32.0781 47.8125 32.0781 94.5 c 0
 32.0781 194.5 l 1
 42.0781 194.5 l 1
 42.0781 94.5 l 0
184.219 215.672 m 0
 202.906 222.766 218.359 226.328 234.078 226.328 c 0
 243.172 226.328 252.281 225.109 262.109 222.875 c 0
 271.391 220.766 285.328 216.844 293.719 213.688 c 2
 307.688 208.703 l 1
 304.312 199.297 l 1
 290.281 204.312 l 2
 282.672 207.156 268.594 211.156 259.891 213.125 c 0
 250.641 215.219 242.312 216.328 234.078 216.328 c 0
 219.891 216.328 205.828 213.172 187.781 206.328 c 0
 158.188 195.109 137.641 168.078 127.391 135.578 c 1
 117.844 138.594 l 1
 128.75 173.109 150.953 203.062 184.219 215.672 c 0
EndSplineSet
EndChar

StartChar: uni0065
Encoding: 101 101 70
Width: 405
Flags: HW
LayerCount: 2
Fore
SplineSet
177.078 388.906 m 0
 188.5 391.094 202.906 392.656 217.125 392 c 0
 313.688 387.516 374.844 318.062 380.984 207.344 c 1
 383.438 178 l 1
 116.766 178 l 1
 116.938 176.797 l 1
 127.484 118.297 154.75 86.3906 206.156 73.8594 c 0
 213.047 72.1875 221.172 71.4844 230.078 71.4844 c 0
 268.281 71.4844 320.25 86.1719 353.188 108.141 c 2
 373.75 122.375 l 1
 375 76.0625 l 2
 375 60.3281 374.922 40.3906 374.141 36.6562 c 0
 374 35.9531 373.719 35.1875 373.297 34.4219 c 0
 373 33.8906 372.609 33.2344 371.75 32.4062 c 0
 363.75 24.6719 318.234 3.875 307.625 0.265625 c 0
 284.234 -7.67188 256.328 -11.1875 228.656 -11.1875 c 0
 187 -11.1875 145.734 -3.1875 120.344 12.7656 c 0
 62.0312 49.4062 29.7344 117.547 29.7344 190.516 c 0
 29.7344 222.031 35.7188 254.531 48.3594 285.875 c 0
 70 339.547 118.531 377.719 177.078 388.906 c 0
291.156 250.781 m 0
 288.703 260.562 280.5 295.406 245.25 308.312 c 0
 234.094 312.406 222.922 314.609 212 314.609 c 0
 169.438 314.609 130.531 284.328 119.891 237.953 c 1
 119.094 234 l 1
 207 234 l 2
 221.625 234 234.047 233.969 244.547 233.969 c 0
 275.438 233.969 292.297 234.906 294.969 236.906 c 0
 294.969 236.984 294.984 237.078 294.984 237.125 c 0
 294.984 239.828 293.203 242.594 291.156 250.781 c 0
294.969 236.891 m 2
 294.953 236.891 l 2
 294.938 236.781 294.953 236.812 294.969 236.891 c 2
301 231.828 m 1
 291 231.828 l 1
 291 252 l 1
 301 252 l 1
 301 231.828 l 1
252 228.969 m 1
 242 228.969 l 1
 242 313 l 1
 252 313 l 1
 252 228.969 l 1
120 229 m 1
 110 229 l 1
 110 239 l 1
 120 239 l 1
 120 229 l 1
249 83 m 1
 239 83 l 1
 239 183 l 1
 249 183 l 1
 249 83 l 1
311 -95 m 1
 301 -95 l 1
 301 5 l 1
 311 5 l 1
 311 -95 l 1
128 -83 m 1
 118 -83 l 1
 118 17 l 1
 128 17 l 1
 128 -83 l 1
39.7344 90.5156 m 0
 39.7344 20.7656 70.4844 -44.0938 125.656 -78.7656 c 0
 142.469 -89.3281 177.531 -101.188 228.656 -101.188 c 0
 255.438 -101.188 282.406 -97.875 304.375 -90.2656 c 0
 322.781 -83.9062 357.109 -66.2969 364 -61.0469 c 1
 364 37 l 1
 374 37 l 1
 374 -63 l 2
 374 -63.6094 l 1
 373.844 -64.2188 l 2
 373.75 -64.6406 373.406 -65.9844 371.75 -67.5938 c 0
 363.375 -75.6719 320.734 -95.2188 307.625 -99.7344 c 0
 284.266 -107.75 256.328 -111.188 228.656 -111.188 c 0
 187 -111.188 145.734 -103.188 120.344 -87.2344 c 0
 62.0312 -50.5938 29.7344 17.5469 29.7344 90.5156 c 0
 29.7344 190.516 l 1
 39.7344 190.516 l 1
 39.7344 90.5156 l 0
169 88 m 1
 313.875 88 l 1
 313.875 78 l 1
 169 78 l 1
 169 88 l 1
373 88 m 1
 373 183 l 1
 383 183 l 1
 383 83 l 2
 383 78 l 1
 369.812 78 l 1
 369.812 88 l 1
 373 88 l 1
EndSplineSet
EndChar

StartChar: uni0066
Encoding: 102 102 71
Width: 212
Flags: W
HStem: -100 5<94 104> -5 5<55 65 94 104 132 142> 206 10<12 60 176 200> 306 5<2 12 29 39 166 176 200 210> 381 26<133 142.203> 381 5<142.203 143 145 155> 405 7.15625<202.824 223.585> 497 5<248.75 254.297> 502.156 85.5938<162.33 249.936>
VStem: 2 10<216 306> 29 10<211 311> 55 10<-95 -5> 55 5<206 216> 94 10<-100 0> 132 10<-95 0 211 311 381 407> 145 10<381 383.844 386 407 470.953 473> 166 10<216 311> 200 10<216 311> 227 10<405 500.031 500.125 505> 245 10<408.219 502>
LayerCount: 2
Fore
SplineSet
162.328 583.703 m 0xf5eff0
 169.109 585.969 180.703 587.75 199 587.75 c 0
 214.047 587.75 230 586.516 241.188 583.859 c 2
 257 579.906 l 1
 257 539 l 2
 256.984 531.641 256.781 509.375 255.375 502.234 c 0
 255.141 501.016 254.297 497 250 497 c 0
 248.75 497 240.469 499.031 231.453 500.031 c 2
 231.156 500.062 l 1
 230.891 500.125 l 2
 224.844 501.5 218.734 502.156 212.719 502.156 c 0
 186.969 502.156 162.047 489.656 154.562 470.953 c 1
 148.969 459.766 144.906 432.562 142.984 406.719 c 2
 142.203 386 l 1
 210 386 l 1
 210 306 l 1
 142 306 l 1
 142 -5 l 1
 55 -5 l 1xf5f7f0
 55 306 l 1
 2 306 l 1
 2 386 l 1
 55.1875 386 l 1
 56 408.25 l 1
 62.1562 509.828 93.375 560.719 162.328 583.703 c 0xf5eff0
237 405 m 1xf3e7f0
 227 405 l 1
 227 505 l 1
 237 505 l 1
 237 405 l 1xf3e7f0
155 381 m 1xf5e7f0
 145 381 l 1
 145 473 l 1
 155 473 l 1
 155 381 l 1xf5e7f0
143 381 m 1
 133 381 l 1
 133 407 l 1
 143 407 l 1xf9e7f0
 143 381 l 1
104 -100 m 1
 94 -100 l 1
 94 0 l 1
 104 0 l 1
 104 -100 l 1
39 211 m 1
 29 211 l 1
 29 311 l 1
 39 311 l 1
 39 211 l 1
12 216 m 1
 60 216 l 1
 60 206 l 1xf1eff0
 7 206 l 2
 2 206 l 1
 2 211 l 2
 2 311 l 1
 12 311 l 1
 12 216 l 1
65 -95 m 1xf1f7f0
 132 -95 l 1
 132 0 l 1
 142 0 l 1
 142 -100 l 2
 142 -105 l 1
 137 -105 l 2
 99 -105 l 0
 55 -105 l 1
 55 -100 l 2
 55 0 l 1xf1eff0
 65 0 l 1
 65 -95 l 1xf1f7f0
142 211 m 1
 132 211 l 1
 132 311 l 1
 142 311 l 1
 142 211 l 1
176 216 m 1
 200 216 l 1
 200 311 l 1
 210 311 l 1
 210 211 l 2
 210 206 l 1
 205 206 l 2
 171 206 l 2
 166 206 l 1
 166 211 l 2
 166 311 l 1
 176 311 l 1
 176 216 l 1
212.719 412.156 m 0xf3e7f0
 219.359 412.156 226.062 411.109 232.828 409.938 c 0
 238.703 408.922 242.547 408.688 245 408.219 c 1
 245 502 l 1
 255 502 l 1
 255 402 l 2
 255 397 l 1
 250 397 l 2
 248.547 397 240.625 399.016 231.453 400.031 c 2
 231.156 400.062 l 1
 230.891 400.125 l 2
 224.844 401.5 218.734 402.156 212.719 402.156 c 0
 193.547 402.156 170 394.797 158.438 378.156 c 1
 150.219 383.844 l 1
 162.547 401.609 186.875 412.156 212.719 412.156 c 0xf3e7f0
EndSplineSet
EndChar

StartChar: uni0067
Encoding: 103 103 72
Width: 360
Flags: HW
LayerCount: 2
Fore
SplineSet
172.5 383.969 m 0
 183.141 385.031 227.828 386 273 386 c 2
 360 386 l 1
 360 314 l 1
 292.781 314 l 1
 296.906 309.109 l 1
 311.781 289.281 315.391 282.703 318.859 268.188 c 0
 321.109 258.75 322.656 249.219 322.656 239.375 c 0
 322.656 209.344 311.094 178.609 290.734 155.688 c 0
 269.391 131.641 249.969 119.578 186.953 107.094 c 0
 149.531 99.6719 134.438 93.0781 134.438 83.75 c 0
 134.438 80.7031 135.797 77.5781 136.5 76.1875 c 0
 142.203 64.7031 165.031 57.3438 217.172 44.8594 c 0
 281.016 29.5625 295.375 25.1562 310.688 15.2188 c 0
 342.844 -5.64062 359.188 -39.7188 359.188 -73.8125 c 0
 359.188 -101.281 348.562 -129.344 326.547 -151.516 c 0
 287.734 -190.625 216.656 -198.25 178.422 -198.25 c 0
 119.328 -198.25 59.7188 -183.016 27.4531 -150.516 c 0
 5.21875 -128.141 -5.26562 -101.141 -5.26562 -75.0156 c 0
 -5.26562 -31.1094 24.5938 10.2031 76.5469 25.7812 c 2
 81.2188 27.2188 l 1
 74.625 33.3125 l 2
 59.7031 46.9531 51.7969 62.0469 51.7969 76.9531 c 0
 51.7969 97.6406 67.2188 117.047 98.2188 128.672 c 2
 101.766 130.031 l 1
 97.3438 132.766 l 2
 52.6719 161.375 28.3125 203.391 28.3125 248.031 c 0
 28.3125 269.016 33.6562 290.516 44.5781 311.328 c 0
 59.1875 339.203 92.2344 376.062 172.5 383.969 c 0
207.797 191.484 m 0
 230.891 202.812 242.031 223.656 242.031 244.719 c 0
 242.031 267.016 229.391 289.234 203.969 300.438 c 0
 194 304.828 183.906 307.062 174.109 307.062 c 0
 139.281 307.062 108.359 281.031 108 244.953 c 0
 107.641 209.125 139.156 183.734 174.703 183.734 c 0
 185.641 183.734 196.938 186.172 207.797 191.484 c 0
224.703 -121.172 m 0
 259.359 -112.266 274.016 -95.0625 274.016 -79.3281 c 0
 274.016 -59.9375 253.188 -40.4844 215.75 -30.8438 c 0
 202.547 -27.4375 177.375 -25.1719 156.375 -25.1719 c 0
 142.984 -25.1719 130.969 -26.2031 125.391 -27.7969 c 0
 92.5781 -37.2188 78.2031 -55.8125 78.2031 -73.1094 c 0
 78.2031 -91.4219 94.5781 -111.609 130.359 -121.188 c 0
 134.719 -122.359 149.109 -125.5 177.125 -125.5 c 0
 205.625 -125.5 220.219 -122.328 224.703 -121.172 c 0
222 -126 m 1
 212 -126 l 1
 212 -26 l 1
 222 -26 l 1
 222 -126 l 1
129 -123 m 1
 119 -123 l 1
 119 -23 l 1
 129 -23 l 1
 129 -123 l 1
211 205 m 1
 201 205 l 1
 201 305 l 1
 211 305 l 1
 211 205 l 1
324 219 m 1
 314 219 l 1
 314 319 l 1
 324 319 l 1
 324 219 l 1
292 59 m 1
 282 59 l 1
 282 159 l 1
 292 159 l 1
 292 59 l 1
191 47.7031 m 1
 181 47.7031 l 1
 181 112 l 1
 191 112 l 1
 191 47.7031 l 1
328 -248 m 1
 318 -248 l 1
 318 -148 l 1
 328 -148 l 1
 328 -248 l 1
36 -247 m 1
 26 -247 l 1
 26 -147 l 1
 36 -147 l 1
 36 -247 l 1
83 21 m 1
 73 21 l 1
 73 37 l 1
 83 37 l 1
 83 21 l 1
61.7969 12.5938 m 1
 51.7969 12.5938 l 1
 51.7969 76.9531 l 1
 61.7969 76.9531 l 1
 61.7969 12.5938 l 1
105 124 m 1
 95 124 l 1
 95 137 l 1
 105 137 l 1
 105 124 l 1
38.3125 148.031 m 0
 38.3125 123.922 45.9531 100.656 60.8594 80 c 1
 52.75 74.1406 l 1
 36.7031 96.375 28.3125 121.781 28.3125 148.031 c 0
 28.3125 248.031 l 1
 38.3125 248.031 l 1
 38.3125 148.031 l 0
4.73438 -175.016 m 0
 4.73438 -198.438 14 -222.781 34.5469 -243.484 c 0
 63.5625 -272.703 121.062 -288.25 178.422 -288.25 c 0
 234.844 -288.25 290.953 -273.234 319.453 -244.484 c 0
 339.656 -224.094 349.188 -198.688 349.188 -173.812 c 1
 359.188 -173.812 l 1
 359.188 -201.281 348.562 -229.344 326.547 -251.516 c 0
 287.734 -290.625 216.656 -298.25 178.422 -298.25 c 0
 119.328 -298.25 59.7188 -283.016 27.4531 -250.516 c 0
 5.21875 -228.141 -5.26562 -201.141 -5.26562 -175.016 c 0
 -5.26562 -75.0156 l 1
 4.73438 -75.0156 l 1
 4.73438 -175.016 l 0
283.266 62.3125 m 0
 301.891 83.2344 312.656 111.906 312.656 139.375 c 0
 312.656 239.375 l 1
 322.656 239.375 l 1
 322.656 139.375 l 0
 322.656 109.344 311.125 78.5781 290.734 55.6875 c 0
 279.75 43.3438 268.766 34.1406 253.719 26.8594 c 1
 249.359 35.8594 l 1
 263.203 42.5625 272.844 50.625 283.266 62.3125 c 0
317.656 224 m 1
 350 224 l 1
 350 319 l 1
 360 319 l 1
 360 219 l 2
 360 214 l 1
 319 214 l 2
 317.656 214 l 1
 317.656 224 l 1
174.109 217.062 m 0
 185.312 217.062 196.797 214.609 208.031 209.562 c 0
 214.688 206.578 220.656 203.047 225.859 198.859 c 1
 219.594 191.062 l 1
 215.094 194.688 209.828 197.797 203.969 200.438 c 0
 194.031 204.891 183.906 207.062 174.109 207.062 c 0
 157.719 207.062 142.203 201.234 130.359 191.328 c 1
 123.938 199 l 1
 137.594 210.422 155.344 217.062 174.109 217.062 c 0
122.578 -118.203 m 2
 128.969 -116.328 139.531 -115.172 156.375 -115.172 c 0
 178.125 -115.172 203.375 -117.281 218.25 -121.156 c 0
 219.719 -121.547 221.172 -121.922 222.594 -122.328 c 1
 219.859 -131.953 l 1
 218.516 -131.562 217.141 -131.203 215.75 -130.844 c 0
 202.547 -127.406 177.375 -125.172 156.375 -125.172 c 0
 142.984 -125.172 130.984 -126.156 125.422 -127.797 c 2
 122.875 -128.547 l 1
 120.016 -118.969 l 1
 122.578 -118.203 l 2
EndSplineSet
EndChar

StartChar: uni0068
Encoding: 104 104 73
Width: 424
Flags: W
HStem: -100 5<85 95 330 340> -5 5<47 57 85 95 124 134 291 301 330 340 368 378> 223 6.85899<215.56 228.368> 562 20G<47 134>
VStem: 47 10<-95 -5> 85 10<-100 0> 124 10<-95 0 171 271> 143 10<199.453 288> 200 10<227.875 323> 278 10<189 286.703> 291 10<-95 -5 23 157.547> 330 10<-100 0> 368 10<-95 0>
LayerCount: 2
Fore
SplineSet
47 -5 m 1
 47 582 l 1
 134 582 l 1
 134 344.078 l 1
 136.531 346.594 l 1
 169.359 377.047 209.031 392.281 246.766 392.281 c 0
 290.453 392.281 331.703 371.75 356.266 331.609 c 0
 376.156 299.094 378 273.672 378 122 c 2
 378 -5 l 1
 291 -5 l 1
 291 123 l 2
 291 258.453 290.344 263.906 278.562 286.703 c 0
 267.406 308.281 246.594 319.859 222.359 319.859 c 0
 217.078 319.859 211.656 319.406 206.094 318.125 c 0
 185.875 313.422 174.25 306.203 151.391 284.328 c 1
 134 268.766 l 1
 134 -5 l 1
 47 -5 l 1
340 -100 m 1
 330 -100 l 1
 330 0 l 1
 340 0 l 1
 340 -100 l 1
288 189 m 1
 278 189 l 1
 278 289 l 1
 288 289 l 1
 288 189 l 1
210 223 m 1
 200 223 l 1
 200 323 l 1
 210 323 l 1
 210 223 l 1
95 -100 m 1
 85 -100 l 1
 85 0 l 1
 95 0 l 1
 95 -100 l 1
57 -95 m 1
 124 -95 l 1
 124 0 l 1
 134 0 l 1
 134 -100 l 2
 134 -105 l 1
 90 -105 l 0
 52 -105 l 2
 47 -105 l 1
 47 -100 l 2
 47 0 l 1
 57 0 l 1
 57 -95 l 1
134 171 m 1
 124 171 l 1
 124 271 l 1
 134 271 l 1
 134 171 l 1
153 199.453 m 1
 171.469 215.953 184.844 223.469 203.906 227.875 c 0
 210.109 229.312 216.359 229.859 222.359 229.859 c 0
 249.922 229.859 274.625 216.047 287.438 191.297 c 0
 300.312 166.438 301 157.547 301 23 c 1
 291 23 l 1
 291 158.453 290.344 163.906 278.562 186.703 c 0
 267.406 208.281 246.594 219.859 222.359 219.859 c 0
 217.078 219.859 211.656 219.406 206.094 218.125 c 0
 185.875 213.422 174.312 206.25 151.453 184.391 c 2
 143 176.297 l 1
 143 188 l 2
 143 288 l 1
 153 288 l 1
 153 199.453 l 1
301 -95 m 1
 368 -95 l 1
 368 0 l 1
 378 0 l 1
 378 -100 l 2
 378 -105 l 1
 373 -105 l 2
 335 -105 l 0
 291 -105 l 1
 291 -100 l 2
 291 0 l 1
 301 0 l 1
 301 -95 l 1
EndSplineSet
EndChar

StartChar: uni0069
Encoding: 105 105 74
Width: 188
Flags: W
HStem: -105 10<59 89 99 128> 444.234 100.469<74.2921 133.8>
VStem: 49 10<-95 -5 386.131 464.419> 64 10<386 448.395> 89 10<-95 -5> 128 10<-95 -5> 134.391 10<386.297 464.957>
LayerCount: 2
Fore
SplineSet
99 -95 m 1xfc
 128 -95 l 1
 128 -5 l 1
 99 -5 l 1
 99 -95 l 1xfc
89 -95 m 1
 89 -5 l 1
 59 -5 l 1
 59 -95 l 1
 89 -95 l 1
138 -5 m 1
 138 -100 l 1
 138 -105 l 1xfc
 94 -105 l 1
 54 -105 l 1
 49 -105 l 1
 49 -100 l 1
 49 -5 l 1
 49 0 l 1
 49 373.029 l 1
 45.7813 379.85 44.2188 387.203 44.2188 394.5 c 2
 44.2188 494.5 l 2
 44.2188 513.812 55.3525 533.104 76.125 541.625 c 0
 81.3303 543.76 86.8594 544.703 92.2969 544.703 c 0
 116.344 544.703 140.278 526.357 143.953 500.688 c 0
 144.264 498.515 144.391 496.344 144.391 494.219 c 2
 144.391 394.219 l 2xfa
 144.391 385.578 142.011 377.493 138 370.504 c 1
 138 0 l 1
 138 -5 l 1
133.469 386 m 1
 134.072 388.644 134.391 391.391 134.391 394.219 c 2
 134.391 464.957 l 1xfa
 124.721 452.268 109.213 444.234 93.1719 444.234 c 0
 86.745 444.234 80.2266 445.568 74 448.395 c 1
 74 386 l 1
 133.469 386 l 1
55.1101 386 m 1
 64 386 l 1
 64 454.479 l 1
 60.1819 457.449 56.9235 460.8 54.2188 464.419 c 1
 54.2188 394.5 l 2
 54.2188 391.652 54.5133 388.801 55.1101 386 c 1
EndSplineSet
EndChar

StartChar: uni006A
Encoding: 106 106 75
Width: 184
Flags: HW
LayerCount: 2
Fore
SplineSet
36.4531 494.234 m 0
 36.4531 513.859 47.9219 533.5 69.2031 541.656 c 0
 74.2656 543.609 79.5469 544.531 84.8438 544.531 c 0
 106.953 544.531 129.25 529.312 134.844 507.25 c 0
 136.016 502.609 136.656 498.109 136.656 493.688 c 0
 136.656 465.531 113.031 444.188 86.6406 444.188 c 0
 76.75 444.188 66.4219 447.203 57.0781 453.938 c 0
 43.9844 463.359 36.4531 478.125 36.4531 494.234 c 0
43 153.016 m 2
 44.0156 386 l 1
 131.016 386 l 1
 130 147.984 l 2
 130 123.141 130.016 100.828 130.016 80.75 c 0
 130.016 -111.656 129.125 -99.8281 111.484 -135.219 c 0
 98.4688 -161.328 67.2656 -193.672 53.25 -197.531 c 0
 52.2188 -197.812 51.1562 -198.109 50 -198 c 0
 48.8281 -197.891 48.2656 -198 46.2969 -196.875 c 0
 36.3906 -191.172 -4.28125 -147.828 -8.34375 -139.359 c 0
 -8.89062 -138.234 -9.125 -137.234 -9.125 -136.297 c 0
 -9.125 -135.406 -7.375 -132.172 -6.60938 -131.734 c 0
 14.2812 -119.969 28.6406 -108.391 37.375 -87.0938 c 0
 42.4375 -74.75 42 -75.2344 43 153.016 c 2
51.0156 -188.047 m 2
 51.2812 -188.203 l 2
 51.4688 -188.312 51.2969 -188.172 51.0156 -188.047 c 2
112 -233 m 1
 102 -233 l 1
 102 -133 l 1
 112 -133 l 1
 112 -233 l 1
55 -293 m 1
 45 -293 l 1
 45 -193 l 1
 55 -193 l 1
 55 -293 l 1
65 381 m 1
 55 381 l 1
 55 458 l 1
 65 458 l 1
 65 381 l 1
46.4531 394.234 m 0
 46.4531 386.516 48.625 378.812 53.0938 372.172 c 1
 44.7969 366.594 l 1
 39.1719 374.969 36.4531 384.641 36.4531 394.234 c 0
 36.4531 494.234 l 1
 46.4531 494.234 l 1
 46.4531 394.234 l 0
126.656 393.688 m 0
 126.656 493.688 l 1
 136.656 493.688 l 1
 136.656 393.688 l 0
 136.656 386.484 135.062 378.016 130.312 369.656 c 1
 121.625 374.609 l 1
 124.812 380.219 126.656 386.672 126.656 393.688 c 0
0.875 -236.297 m 0
 0.875 -236.297 0.625 -234.938 0.671875 -235.031 c 0
 3.65625 -241.281 42.1094 -282.922 51.2812 -288.203 c 0
 51.7344 -288.453 50 -288 50 -288 c 0
 50.125 -288 50.2812 -287.969 50.5938 -287.891 c 0
 59.2656 -285.5 89.9219 -256.344 102.516 -230.781 c 0
 120 -195.281 120.016 -206.781 120.016 -19.25 c 0
 120.016 80.75 l 1
 130.016 80.75 l 1
 130.016 -19.25 l 0
 130.016 -211.656 128.953 -199.734 111.484 -235.219 c 0
 99.4375 -259.656 67.2656 -293.672 53.25 -297.531 c 0
 52.1562 -297.828 51.9531 -297.938 50 -298 c 0
 48.0625 -298.062 46.5312 -297 46.2969 -296.875 c 0
 36.3906 -291.172 -4.28125 -247.828 -8.34375 -239.359 c 0
 -9.15625 -237.672 -9.125 -237.141 -9.125 -236.297 c 0
 -9.28125 -202.953 -9.125 -169.625 -9.125 -136.297 c 1
 0.875 -136.297 l 1
 0.875 -236.297 l 0
EndSplineSet
EndChar

StartChar: uni006B
Encoding: 107 107 76
Width: 406
Flags: W
HStem: -105 10<58 87 97 125 326 368 378 419> 562 20G<48 135.059>
VStem: 48 10<-95 -5> 87 10<-95 -5> 125 10<-95 -5> 221 10<-0.953125 84.7427> 307 10<200.489 273.734> 316 10<-87.7558 -5> 368 10<-95 -5> 387 10<281.859 366.517> 419 10<-95 -5>
LayerCount: 2
Fore
SplineSet
97 -95 m 1xfce0
 125 -95 l 1
 125 -5 l 1
 97 -5 l 1
 97 -95 l 1xfce0
87 -95 m 1
 87 -5 l 1
 58 -5 l 1
 58 -95 l 1
 87 -95 l 1
326 -95 m 1xfde0
 368 -95 l 1
 368 -5 l 1
 326 -5 l 1
 326 -95 l 1xfde0
316 -87.7558 m 1
 316 -2.03304 l 1
 231 84.7427 l 1
 231 -0.953125 l 1
 316 -87.7558 l 1
378 -95 m 1
 419 -95 l 1
 419 -5 l 1
 378 -5 l 1
 378 -95 l 1
317 200.489 m 1xfee0
 387 281.859 l 1
 387 366.517 l 1
 317 285.154 l 1
 317 200.489 l 1xfee0
307 188.888 m 1
 307 273.734 l 1
 277.154 239.685 246.887 204.631 238.422 194.203 c 1
 277.062 154.663 l 1
 307 188.888 l 1
48 -5 m 1
 48 0 l 1
 48 582 l 1
 134.953 582 l 1
 136.938 207.922 l 1
 297.781 386 l 1
 346 386 l 2
 364.328 386 387.375 385.969 391.812 385.281 c 0
 396.5 384.547 397 381.062 397 380 c 2
 397 378.141 l 1
 397 280 l 1
 397 278.141 l 1
 395.797 276.734 l 2
 369.125 245.734 342.422 214.719 315.766 183.719 c 2
 284.14 147.553 l 1
 331.531 100.547 l 1
 435.984 -5 l 1
 429 -5 l 1
 429 -100 l 1
 429 -105 l 1
 373 -105 l 1
 321 -105 l 1
 318.906 -105 l 1
 317.422 -103.5 l 2
 285.766 -71.1719 254.094 -38.8281 222.422 -6.5 c 2
 221 -5.04688 l 1
 221 -3 l 1
 221 94.937 l 1
 136 180.844 l 1
 136 97 l 1
 136 96.9688 l 1
 135.002 -0.0268576 l 2
 135.002 -1.59048 134.978 -3.15411 134.978 -4.71773 c 0
 134.978 -36.4785 135 -68.2392 135 -100 c 2
 135 -105 l 1
 130 -105 l 1
 92 -105 l 1
 48 -105 l 1
 48 -100 l 1
 48 -5 l 1
EndSplineSet
EndChar

StartChar: uni006C
Encoding: 108 108 77
Width: 189
Flags: HW
LayerCount: 2
Fore
SplineSet
51 -5 m 1
 51 582 l 1
 138 582 l 1
 138 -5 l 1
 51 -5 l 1
100 -100 m 1
 90 -100 l 1
 90 0 l 1
 100 0 l 1
 100 -100 l 1
61 -95 m 1
 128 -95 l 1
 128 0 l 1
 138 0 l 1
 138 -100 l 2
 138 -105 l 1
 133 -105 l 2
 95 -105 l 0
 51 -105 l 1
 51 -100 l 2
 51 0 l 1
 61 0 l 1
 61 -95 l 1
EndSplineSet
EndChar

StartChar: uni006D
Encoding: 109 109 78
Width: 652
Flags: HW
LayerCount: 2
Fore
SplineSet
380 196.016 m 1
 403.812 215.531 429.016 225.219 452.109 225.219 c 0
 478.201 225.219 501.18 212.914 515 189.025 c 1
 515 262.367 l 1
 506.099 297.038 481.609 315.219 452.109 315.219 c 0
 429.934 315.219 404.342 304.951 380 282.816 c 1
 380 196.016 l 1
148 201.031 m 1
 169.109 218.25 192.047 227.438 214.703 227.438 c 0
 224.994 227.438 235.183 225.531 245 221.688 c 1
 245 310.848 l 1
 234.165 315.751 223.85 317.438 214.703 317.438 c 0
 192.663 317.438 169.581 307.492 148 287.818 c 1
 148 201.031 l 1
216.953 390.891 m 0
 222.485 392.123 228.359 392.516 234.266 392.516 c 0
 273.75 392.516 319.547 369.016 343.969 336.031 c 2
 349.438 328.375 l 1
 351.25 329.812 353.935 332.143 357.625 335.688 c 0
 395.562 372.125 437.047 392.516 476.734 392.516 c 0
 486.438 392.516 495.969 391.234 505.266 388.844 c 0
 549.484 377.438 577.289 353.169 592.719 308.625 c 0
 605.26 272.42 605.938 268.656 607 130.031 c 2
 607.993 2.08167e-15 l 1
 608 0 l 1
 607.997 -0.028898 l 2
 607.99 -1.64253 608.003 -3.25617 608.015 -4.86982 c 0
 608.015 -4.91322 608.031 -4.95661 608.031 -5 c 2
 608 -5 l 1
 608 -100 l 1
 608 -105 l 1
 564 -105 l 1
 526 -105 l 1
 521 -105 l 1
 521 -100 l 2
 521 -68.2626 521.023 -36.5252 521.023 -4.7877 c 0
 521.023 -3.19174 521 -1.59587 521 0 c 1
 521.006 -2.53145e-06 l 1
 520.835 21.1315 l 2
 520.312 21.9175 520.012 22.881 520 23.9531 c 0
 518.826 131.936 518.125 149.891 515.141 161.812 c 0
 506.359 196.844 481.766 215.219 452.109 215.219 c 0
 429.469 215.219 403.203 204.453 378.406 181.344 c 2
 370 173.5 l 1
 370 0 l 1
 370 -5 l 1
 370 -100 l 1
 370 -105 l 1
 326 -105 l 1
 288 -105 l 1
 283 -105 l 1
 283 -100 l 2
 283 -68.2626 283.023 -36.5252 283.023 -4.7877 c 0
 283.023 -3.19174 283 -1.59587 283 0 c 1
 283.006 -2.53145e-06 l 1
 282.835 21.1081 l 2
 282.308 21.8966 282.007 22.8676 282 23.9531 c 2
 282 24 l 2
 281.015 183.252 279.216 193.798 247.766 209.531 c 0
 235.922 215.453 224.625 217.438 214.703 217.438 c 0
 192.125 217.438 168.422 207.047 146.422 186.359 c 2
 138 178.422 l 1
 138 190 l 1
 138 278.458 l 1
 132 272.828 l 1
 132 175 l 1
 132 0 l 1
 132 -5 l 1
 132 -100 l 1
 132 -105 l 1
 127 -105 l 1
 89 -105 l 1
 45 -105 l 1
 45 -100 l 1
 45 -5 l 1
 45 0 l 1
 45 386 l 1
 132 386 l 1
 132 358.109 l 1
 132.578 344.688 l 1
 140.906 350.922 l 1
 165.5 371.422 216.953 390.891 216.953 390.891 c 0
94 -95 m 1
 122 -95 l 1
 122 -5 l 1
 94 -5 l 1
 94 -95 l 1
84 -95 m 1
 84 -5 l 1
 55 -5 l 1
 55 -95 l 1
 84 -95 l 1
255 217.06 m 1
 267.622 210.489 275.837 204.052 281.229 190.364 c 1
 279.614 277.246 275.138 293.602 255 305.63 c 1
 255 217.06 l 1
331 -95 m 1
 360 -95 l 1
 360 -5 l 1
 331 -5 l 1
 331 -95 l 1
321 -95 m 1
 321 -5 l 1
 293 -5 l 1
 293 -95 l 1
 321 -95 l 1
569 -95 m 1
 598 -95 l 1
 598 -5 l 1
 569 -5 l 1
 569 -95 l 1
559 -95 m 1
 559 -5 l 1
 531 -5 l 1
 531 -95 l 1
 559 -95 l 1
EndSplineSet
EndChar

StartChar: uni006E
Encoding: 110 110 79
Width: 424
Flags: W
HStem: -100 5<86 96 330 340> -5 5<47 57 86 96 126 136 291 301 330 340 368 378> 216.609 10<196.343 252.052> 316.609 75.547<170.209 279.312>
VStem: 47 10<-95 -5> 86 10<-100 0> 126 10<-95 0 170 270> 138 10<195.172 283> 275 10<195 292.328> 291 10<-95 -5 26.0312 163.531> 330 10<-100 0> 368 10<-95 0>
LayerCount: 2
Fore
SplineSet
215.938 388.891 m 0
 225.844 391 235.625 392.156 245.297 392.156 c 0
 303.688 392.156 355.375 353.391 369.844 296.234 c 0
 376.922 268.266 378 240.938 378 121 c 2
 378 -5 l 1
 291 -5 l 1
 291 125.984 l 1
 290 264.484 288.828 271.656 275.766 292.328 c 0
 265.625 308.406 247.188 316.609 225.562 316.609 c 0
 198.969 316.609 168.359 303.938 146.703 279.641 c 2
 136 268.047 l 1
 136 -5 l 1
 47 -5 l 1
 47 386 l 1
 136 386 l 1
 136 345.219 l 1
 137.609 346.672 l 2
 158.438 366.469 190.688 383.516 215.938 388.891 c 0
340 -100 m 1
 330 -100 l 1
 330 0 l 1
 340 0 l 1
 340 -100 l 1
285 195 m 1
 275 195 l 1
 275 295 l 1
 285 295 l 1
 285 195 l 1
96 -100 m 1
 86 -100 l 1
 86 0 l 1
 96 0 l 1
 96 -100 l 1
57 -95 m 1
 126 -95 l 1
 126 0 l 1
 136 0 l 1
 136 -100 l 2
 136 -105 l 1
 131 -105 l 2
 91 -105 l 0
 47 -105 l 1
 47 -100 l 2
 47 0 l 1
 57 0 l 1
 57 -95 l 1
136 170 m 1
 126 170 l 1
 126 270 l 1
 136 270 l 1
 136 170 l 1
148 195.172 m 1
 170.625 215.891 199.375 226.609 225.562 226.609 c 0
 249.578 226.609 271.828 217.312 284.234 197.672 c 0
 299.016 174.234 300 163.531 301 26.0312 c 1
 291 25.9688 l 1
 290 164.469 288.828 171.656 275.766 192.328 c 0
 265.625 208.406 247.188 216.609 225.562 216.609 c 0
 198.969 216.609 168.391 203.969 146.734 179.672 c 2
 138 169.875 l 1
 138 183 l 2
 138 283 l 1
 148 283 l 1
 148 195.172 l 1
301 -95 m 1
 368 -95 l 1
 368 0 l 1
 378 0 l 1
 378 -100 l 2
 378 -105 l 1
 373 -105 l 2
 335 -105 l 0
 291 -105 l 1
 291 -100 l 2
 291 0 l 1
 301 0 l 1
 301 -95 l 1
EndSplineSet
EndChar

StartChar: uni006F
Encoding: 111 111 80
Width: 464
Flags: W
HStem: -111.156 10<185.767 277.535> -11.1562 81.75<162.425 304.199> 208 7.312<217.965 249.047> 305.312 80.594<163.591 302.95>
VStem: 26.2969 88.0471<150.901 257.049> 26.2969 10<43.988 88.2344> 352.141 87.703<150.587 255.477> 429.844 10<41.0099 83.7031 183.703 183.703>
LayerCount: 2
Fore
SplineSet
36.2969 88.2344 m 0xf5
 36.2969 188.234 l 1xf5
 26.2969 188.234 l 1xf8
 26.2969 88.2344 l 0
 26.2969 63.7812 30.8906 38.5156 40.3125 13.25 c 0
 69.7344 -65.625 147.266 -111.156 230.859 -111.156 c 0
 270.438 -111.156 311.451 -100.966 349.469 -79.3438 c 0
 408.325 -45.87 439.844 17.6562 439.844 83.7031 c 0xf5
 439.844 183.703 l 1xf2
 429.844 183.703 l 1
 429.844 83.7031 l 0
 429.844 20.75 399.875 -39.1719 344.531 -70.6562 c 0
 308.016 -91.4062 268.734 -101.156 230.859 -101.156 c 0
 150.766 -101.156 77.4706 -57.7122 49.6875 16.75 c 0
 40.6619 40.9396 36.2969 65 36.2969 88.2344 c 0xf5
50 15 m 1
 50 115 l 1
 40 115 l 1
 40 15 l 1
 50 15 l 1
352 -75 m 1
 352 25 l 1
 342 25 l 1
 342 -75 l 1
 352 -75 l 1
173 194 m 1
 173 294 l 1
 163 294 l 1
 163 194 l 1
 173 194 l 1
263 208 m 1
 263 308 l 1
 253 308 l 1
 253 208 l 1
 263 208 l 1
26.2969 188.234 m 0xfa
 26.2969 163.781 30.8906 138.516 40.3125 113.25 c 0
 69.7344 34.375 147.266 -11.1562 230.859 -11.1562 c 0
 270.438 -11.1562 311.451 -0.96555 349.469 20.6562 c 0
 408.325 54.13 439.844 117.656 439.844 183.703 c 0
 439.844 227.547 425.859 272.515 397 311 c 0
 362.483 357.03 295.656 385.906 231.516 385.906 c 0
 222.016 385.906 212.531 385.359 203.266 383.953 c 0
 96.5625 367.734 26.2969 284.703 26.2969 188.234 c 0xfa
165.484 198.328 m 0
 145.257 186.57 129.977 169.698 119.768 150.348 c 1
 116.151 162.13 114.344 174.533 114.344 187.016 c 0
 114.344 227.578 133.441 268.15 170.516 289.672 c 0
 187.252 299.388 211.391 305.312 234 305.312 c 0
 242 305.312 249.796 304.529 257.016 303.094 c 0
 315.496 291.467 352.141 242.203 352.141 187.734 c 0
 352.141 175.294 350.203 162.593 346.174 149.996 c 1
 328.912 181.191 298.44 205.046 258.984 212.906 c 0
 251.016 214.484 242.594 215.312 234 215.312 c 0
 209.688 215.312 184.25 209.219 165.484 198.328 c 0
124.618 137.341 m 1
 133.831 158.695 149.179 177.281 170.516 189.672 c 0
 187.25 199.39 211.391 205.312 234 205.312 c 0
 242 205.312 249.797 204.53 257.016 203.094 c 0
 296.837 195.17 326.466 169.871 341.381 137.307 c 1
 339.484 133.156 l 2
 320.561 93.5164 278.141 70.5938 233.516 70.5938 c 0
 210.719 70.5938 187.484 76.6719 166.594 89.2812 c 0
 147.204 100.985 133.214 117.934 124.618 137.341 c 1
EndSplineSet
EndChar

